<?xml version="1.0" encoding="utf-8"?>
<!-- Generator: Adobe Illustrator 27.5.0, SVG Export Plug-In . SVG Version: 6.00 Build 0)  -->
<svg version="1.1" xmlns="http://www.w3.org/2000/svg" xmlns:xlink="http://www.w3.org/1999/xlink" x="0px" y="0px"
	 viewBox="0 0 2520.031 2520.031" style="enable-background:new 0 0 2520.031 2520.031;" xml:space="preserve">
<g id="background">
	<rect y="0" style="fill:#FFFFFF;" width="2520.031" height="2520.031"/>
	<g>
		<path style="fill:#E7ECFF;" d="M1340.674,398.883C890.88,313.424,437.637,994.738,304.335,1629.759
			s943.789,714.187,1428.848,639.795c273.782-41.989,291.4-608.711,221.234-1039.325
			c-54.148-332.302-170.114-530.988-201.653-671.695C1680.356,235.49,1517.314,432.444,1340.674,398.883z"/>
		<path style="fill:#E7ECFF;" d="M1820,514.011c-51.461,43.093,208.124,634.568,183.756,1053.729
			c-24.367,419.16,364.61,302.779,335.942-302.257S1924.01,384.483,1820,514.011C1715.99,643.54,1871.461,470.919,1820,514.011z"/>
		<path style="fill:#E7ECFF;" d="M447.188,996.631c-159.629-5.484-111.085-509.812,0-671.027
			c111.085-161.215,452.035-5.624,495.489,52.662c43.453,58.286-287.652,355.607-367.203,485.078
			C495.923,992.816,488.756,998.06,447.188,996.631z"/>
	</g>
</g>
<g id="illustration">
	<g>
		<defs>
			<rect id="SVGID_1_" y="0" width="2520.031" height="2520.031"/>
		</defs>
		<clipPath id="SVGID_00000027583733531546375540000007939278795330569137_">
			<use xlink:href="#SVGID_1_"  style="overflow:visible;"/>
		</clipPath>
		<g style="clip-path:url(#SVGID_00000027583733531546375540000007939278795330569137_);">
			
				<linearGradient id="SVGID_00000135682043668910037790000000074830457995394214_" gradientUnits="userSpaceOnUse" x1="1239.604" y1="2520.0315" x2="1239.604" y2="2126.8479">
				<stop  offset="0" style="stop-color:#C50B79"/>
				<stop  offset="1" style="stop-color:#C01160"/>
			</linearGradient>
			<path style="fill:url(#SVGID_00000135682043668910037790000000074830457995394214_);" d="M899.612,2411.73v108.302h661.68
				c0,0,0.938-221.072,17.977-360.715C1596.307,2019.672,941.4,2373.329,899.612,2411.73z"/>
			<g>
				
					<linearGradient id="SVGID_00000132072083694066640910000009745397991602658993_" gradientUnits="userSpaceOnUse" x1="1816.99" y1="991.4995" x2="1816.99" y2="290.2431">
					<stop  offset="0" style="stop-color:#7E8EFF"/>
					<stop  offset="1" style="stop-color:#7096FF"/>
				</linearGradient>
				<path style="fill:url(#SVGID_00000132072083694066640910000009745397991602658993_);" d="M1493.346,950.669l575.666,40.831
					c0,0,21.487-441.641,71.622-683.578c0,0-360.497-39.776-613.561,0C1527.073,307.921,1495.43,603.455,1493.346,950.669z"/>
				
					<linearGradient id="SVGID_00000034077619044461336480000014983690491485617812_" gradientUnits="userSpaceOnUse" x1="2111.7979" y1="991.4995" x2="2111.7979" y2="307.9214">
					<stop  offset="0" style="stop-color:#26258A"/>
					<stop  offset="1" style="stop-color:#3C2C95"/>
				</linearGradient>
				<path style="fill:url(#SVGID_00000034077619044461336480000014983690491485617812_);" d="M2154.583,326.127l-13.95-18.205
					c0,0-66.847,348.547-71.622,683.578h14.324C2083.336,991.499,2082.962,686.624,2154.583,326.127z"/>
				<path style="opacity:0.2;fill:#A492F9;" d="M1557.259,715.127c-48.166,23.583-34.274-363.45,0-396.873
					s530.853-9.55,545.973,3.979c15.12,13.528-7.958,167.118-23.874,174.28c-15.916,7.162-71.553,24.461-151.167,120.857
					c-79.614,96.396-174.314,13.355-224.45,5.138C1653.605,614.291,1570.733,708.53,1557.259,715.127z"/>
				<path style="fill:#FFFFFF;" d="M1956.009,453.485c-54.062-26.889-127.765,71.041-83.777,150.142
					c43.987,79.102,117.997-29.921,124.363-70.11C2002.961,493.33,1976.699,463.776,1956.009,453.485z"/>
				<path style="fill:#C5ABE3;" d="M2040.364,950.665c-12.695,35.551-357.314-43.532-478.674-22.836
					c-121.359,20.697-0.529-164.978,48.876-226.525c49.405-61.548,117.844,82.284,178.325,114.618
					c60.481,32.333,196.477-263.931,261.022-305.944C2114.458,467.964,2052.3,917.236,2040.364,950.665z"/>
				<path style="opacity:0.5;fill:#C5ABE3;" d="M1821.12,933.662c-52.523-35.022,122.107-306.331,185.198-337.197
					c63.092-30.866,35.636,220.626,8.181,294.824C1987.044,965.488,1821.12,933.662,1821.12,933.662z"/>
				<path style="fill:#4F63F9;" d="M1570.722,557.781c-30.24,4.775,32.666-19.71,135.703-65.163
					c103.037-45.453,116.566,3.887,169.088,21.394c52.522,17.508,97.087-8.976,130.511-8.069
					c33.423,0.907-45.361,20.006-184.626,18.414C1682.134,522.765,1570.722,557.781,1570.722,557.781z"/>
				<path style="fill:#4F63F9;" d="M1688.674,584.344c-27.903-10.326,116.742-28.119,194.832-46.61
					c78.09-18.49,88.745,14.859,96.905,16.389c8.159,1.53-106.584-2.649-179.556,4.411
					C1727.883,565.594,1695.905,587.02,1688.674,584.344z"/>
				<path style="fill:#93C2FF;" d="M1522.862,371.686c12.36,30.562,14.922-60.377,130.6-71.234
					c115.678-10.856,427.624,20.665,452.961,28.381c25.338,7.715,30.113-17.75,30.113-17.75s-303.598-22.68-432.119-17.905
					c-128.522,4.775-170.99,12.305-174.678,17.507S1522.862,371.686,1522.862,371.686z"/>
			</g>
			<path style="fill:#4B81EE;" d="M1777.686,1238.637c-18.239,6.723-27.74,89.486-6.676,141.213
				c21.064,51.727,77.935,100.922,115.765,118.574c37.829,17.652-0.796-168.709-38.198-213.274
				C1811.173,1240.585,1777.686,1238.637,1777.686,1238.637z"/>
			
				<linearGradient id="SVGID_00000011012399495900653350000003350742161900659375_" gradientUnits="userSpaceOnUse" x1="1220.5593" y1="2471.3135" x2="1220.5593" y2="1020.3929">
				<stop  offset="0" style="stop-color:#FF6686"/>
				<stop  offset="1" style="stop-color:#FF7C89"/>
			</linearGradient>
			<path style="fill:url(#SVGID_00000011012399495900653350000003350742161900659375_);" d="M1083.668,1078.979
				c-18.954,14.383-54.368,85.209-110.471,103.115c-56.104,17.906-96.766-11.664-121.198,26.995
				c-24.433,38.658,128.36,316.791,151.041,612.828c22.68,296.037-108.627,626.692-108.627,626.692s177.354,15.763,250.677,21.486
				c163.139,12.732,355.723-77.59,446.444-119.37c4.414-52.715-57.298-892.887-79.58-1080.695
				c-22.283-187.809-19.099-192.583-108.229-210.091c-89.129-17.507-150.232-39.546-150.232-39.546L1083.668,1078.979z"/>
			<path style="opacity:0.5;fill:#E392AD;" d="M1081.993,2437.17c-13.301-5.274,98.047-125.837,154.581-236.851
				c56.534-111.014,93.538-238.74,105.476-244.708c11.937-5.968,88.38,242.321,101.487,352.141
				C1456.644,2417.572,1254.056,2486.611,1081.993,2437.17z"/>
			<path style="opacity:0.5;fill:#FFBB9A;" d="M1085.205,1230.229c-3.97,7.753,27.125,208.434,38.618,222.065
				c11.493,13.63,97.48-12.278,165.703-76.036c68.224-63.757,35.006-167.342,21.877-171.397
				c-13.129-4.056-32.476,72.135-80.368,82.453C1151.906,1304.361,1092.352,1216.271,1085.205,1230.229z"/>
			
				<linearGradient id="SVGID_00000026141846295417184770000015644048903660630417_" gradientUnits="userSpaceOnUse" x1="1173.6309" y1="2279.4971" x2="1173.6309" y2="1166.6934">
				<stop  offset="0.016" style="stop-color:#FFFFFF"/>
				<stop  offset="0.9916" style="stop-color:#EA8CC1"/>
			</linearGradient>
			<path style="fill:url(#SVGID_00000026141846295417184770000015644048903660630417_);" d="M1069.271,1166.693
				c0,0,75.099,694.615,139.919,861.733c64.819,167.118,77.996,224.416,64.245,248.289
				c-13.751,23.874-148.193-101.991-178.855-530.862C1063.918,1316.982,1069.271,1166.693,1069.271,1166.693z"/>
			
				<linearGradient id="SVGID_00000028302268930203911130000000975564161577073572_" gradientUnits="userSpaceOnUse" x1="1266.0591" y1="2450.1853" x2="1266.0591" y2="1252.5219">
				<stop  offset="0.016" style="stop-color:#FFFFFF"/>
				<stop  offset="0.9916" style="stop-color:#EA8CC1"/>
			</linearGradient>
			<path style="fill:url(#SVGID_00000028302268930203911130000000975564161577073572_);" d="M1151.906,2450.15
				c-72.547,3.609,135.457-273.705,203.983-584.067c68.525-310.362-12.077-613.562-12.077-613.562s87.341,312.106,34.632,686.055
				C1325.736,2312.527,1200.901,2447.713,1151.906,2450.15z"/>
			
				<linearGradient id="SVGID_00000111872747140431530790000017019297912851470264_" gradientUnits="userSpaceOnUse" x1="1493.3237" y1="2399.5906" x2="1493.3237" y2="1017.9586">
				<stop  offset="0" style="stop-color:#2B2583"/>
				<stop  offset="1" style="stop-color:#482C97"/>
			</linearGradient>
			<path style="fill:url(#SVGID_00000111872747140431530790000017019297912851470264_);" d="M1706.124,1720.426
				c-21.483,3.591-106.219-87.13-144.461-184.97c0,0,8.82,77.554,24.696,185.978c0,0.126,0.063,0.189,0,0.252
				c0.063,0.126,0.063,0.189,0.063,0.189c3.843,26.523,8.19,55,12.915,84.547c0,0,0,0.063,0,0.189
				c8.505,53.236,18.27,110.188,29.169,166.889c41.832,217.29-5.922,290.056-23.814,304.42
				c-17.955,14.301-99.1,27.468-201.792,95.509c-38.557,25.578-61.93,30.744-75.286,22.617c-0.945-0.567-1.827-1.197-2.709-1.953
				c-4.158-3.465-7.182-8.442-9.198-14.742c-0.063-0.252-0.126-0.504-0.189-0.756c-6.993-22.491-2.142-60.418,5.04-100.675
				c15.498-87.13,80.011-339.007,72.829-631.457c-7.182-292.45-87.76-544.327-99.667-570.031
				c-11.97-25.641-33.705-32.634-33.705-32.634l-6.552-23.373c16.569-5.04,125.561,34.524,137.531,32.634
				c11.907-1.89,136.082-44.794,225.228-33.075c0,0,34.965,20.034,37.359,175.268c0,0,40.635,85.933,66.844,142.004
				C1746.697,1393.389,1727.608,1716.897,1706.124,1720.426z"/>
			<path style="fill:#E392AD;" d="M1260.016,1043.785c0,0,31.5,48,57.762,144.682c26.261,96.683,44.839,868.683,44.839,868.683
				s52.979-292.727,34.741-537.239c-18.238-244.512-78.784-445.327-96.292-476.125c-17.508-30.799-47.574-23.392-47.574-23.392
				L1260.016,1043.785z"/>
			
				<linearGradient id="SVGID_00000067236169473864593440000003239232458538465182_" gradientUnits="userSpaceOnUse" x1="899.6028" y1="2450.1504" x2="899.6028" y2="1053.0315">
				<stop  offset="0" style="stop-color:#2B2583"/>
				<stop  offset="1" style="stop-color:#482C97"/>
			</linearGradient>
			<path style="fill:url(#SVGID_00000067236169473864593440000003239232458538465182_);" d="M1060.996,2335.943
				c-5.859,17.766-12.537,31.941-20.16,41.833c-57.331,74.467-163.424,74.971-209.73,71.128c-0.378,0-0.693,0-0.945-0.063h-0.063
				c-13.482-1.134-21.609-2.646-21.609-2.646c8.568-12.726,16.632-26.964,24.381-42.525c0.063-0.126,0.126-0.315,0.189-0.441
				c5.67-11.403,11.151-23.499,16.317-36.225c43.66-105.967,73.018-254.397,92.485-393.314c0.063-0.441,0.126-0.882,0.189-1.323
				c2.772-19.719,5.355-39.187,7.686-58.276c21.294-171.425,27.72-315.508,28.161-326.659
				c-1.827,14.742-30.618,250.869-56.008,277.455c-26.271,27.468-174.323,82.342-186.23,69.238
				c-11.97-13.104-57.331-131.294-23.877-282.937c33.39-151.58,124.112-298.372,124.112-298.372
				c-25.011-91.918-19.467-143.705-19.467-143.705c85.177-56.197,175.079-45.739,194.169-57.646
				c19.089-11.97,59.662-103.447,68.356-98.218l4.725,25.704c0,0-10.206,23.184-12.6,43.471
				c-2.394,20.286-4.788,211.242,14.301,427.712C1102.577,1744.555,1113.287,2179.197,1060.996,2335.943z"/>
			<path style="fill:#E392AD;" d="M1078.953,1053.277c0,0-29.291,92.892-27.336,211.324c1.956,118.432,20.34,742.339,22.289,904.682
				c1.949,162.343-53.423,230.279-53.423,230.279s77.285-29.738,95.773-285.985c18.488-256.248-43.508-842.406-46.76-925.11
				c-3.253-82.704,21.247-103.256,21.247-103.256L1078.953,1053.277z"/>
			
				<linearGradient id="SVGID_00000120521364530359387360000003642511034951417268_" gradientUnits="userSpaceOnUse" x1="1001.5056" y1="2237.3323" x2="1001.5056" y2="1053.2767">
				<stop  offset="0" style="stop-color:#38328A"/>
				<stop  offset="1" style="stop-color:#5C43A2"/>
			</linearGradient>
			<path style="fill:url(#SVGID_00000120521364530359387360000003642511034951417268_);" d="M1078.953,1053.277
				c0,0-20.733,26.868-58.47,87.989s-96.425,140.523-96.425,150.072c0,21.429,37.145,21.429,51.676,28.032
				c14.531,6.602-24.193,64.862-27.207,105.448c-3.014,40.586,61.675,420.973,83.161,552.281
				c21.486,131.307,35.21,257.978,37.234,260.226c2.024,2.249,14.497-436.894,1.166-674.44
				c-13.332-237.546-29.142-384.371-16.462-444.056C1066.305,1059.143,1078.953,1053.277,1078.953,1053.277z"/>
			
				<linearGradient id="SVGID_00000133505903180586435160000014323267842725375653_" gradientUnits="userSpaceOnUse" x1="1393.6052" y1="2201.853" x2="1393.6052" y2="1022.3724">
				<stop  offset="0" style="stop-color:#38328A"/>
				<stop  offset="1" style="stop-color:#5C43A2"/>
			</linearGradient>
			<path style="fill:url(#SVGID_00000133505903180586435160000014323267842725375653_);" d="M1276.989,1022.372
				c0,0,92.515,34.383,168.116,94.863s62.869,82.639,63.664,91.853c0.796,9.214-53.318,40.251-57.297,43.433
				c-3.979,3.183,42.895,67.643,57.656,151.998c14.762,84.355-124.503,649.372-139.624,692.346
				c-15.12,42.973-33.707,104.988-33.707,104.988s74.293-314.217,75.885-613.471
				C1413.273,1289.129,1295.089,1072.344,1276.989,1022.372z"/>
			<path style="fill:#D07CAD;" d="M943.752,1962.375c-5.192,40.751,138.241,4.423,257.839-317.07
				c42.52-114.298,137.673-52.18,184.626-73.667c46.952-21.487,57.321-140.857,57.321-140.857s-157.746-6.836-228.495,33.356
				c-70.749,40.193-267.327,251.54-267.327,251.54l-0.12,199.169L943.752,1962.375z"/>
			<path style="fill:#4B81EE;" d="M934.998,1870.858c1.106,78.532,114.595-13.131,128.323-140.856
				c9.341-86.912,4.178-131.307,4.178-131.307s-17.309-45.361-60.282-26.261C964.243,1591.533,934.401,1828.482,934.998,1870.858z"
				/>
			<path style="fill:#B588AD;" d="M1508.663,1194.508c0.902,19.418-36.5,36.528-61.966,35.732
				c-25.466-0.796-93.669-10.486-93.669-10.486s1.417,6.443,1.363,6.194c-0.054-0.249,39.385-1.417,60.872,6.013
				c21.486,7.43,36.209,20.56,36.209,20.56s44.962-13.528,62.072-27.057C1530.654,1211.936,1508.663,1194.508,1508.663,1194.508z"/>
			<g>
				
					<linearGradient id="SVGID_00000114069141677409234240000009123876936538008240_" gradientUnits="userSpaceOnUse" x1="1215.042" y1="1760.1791" x2="1215.042" y2="1156.0964">
					<stop  offset="0" style="stop-color:#FFB595"/>
					<stop  offset="0.984" style="stop-color:#FFAEA9"/>
				</linearGradient>
				<path style="fill:url(#SVGID_00000114069141677409234240000009123876936538008240_);" d="M1337.129,1315.834
					c-0.189,0.189-0.315,0.378-0.441,0.567l0.189-0.063l0.504-0.126c7.182-1.323,68.545-12.852,78.058-11.781
					c10.143,1.197,17.325,30.429,17.703,34.02c0.441,3.591-6.741,6.363-6.741,6.363s6.741-0.756,12.348,0.441
					c5.544,1.197,10.332,33.012,9.954,38.556c-0.441,5.607-5.166,7.56-5.166,7.56s7.56,17.514,7.56,33.453
					c0,15.876-36.855,40.194-49.96,68.23c0,0-30.429,6.552-35.218-14.301c0,0-53.74,49.519-73.396,58.465
					c-5.922,2.709-13.986,3.087-22.932,2.52c-20.916-1.386-46.936-8.253-63.631-4.914c-23.877,4.788-186.23,171.236-247.53,225.354
					c0,0-13.104-110.566,57.709-192.719c0,0,68.041-59.473,128.963-109.621c60.859-50.149,118.756-146.225,122.914-151.013
					c4.221-4.788,47.188-23.877,71.632-69.805c0.063,0,0.063,0,0.126-0.063c2.331-1.197,39.88-20.349,59.599-42.337
					c20.286-22.68,30.429-35.784,43.533-38.178c13.167-2.394,25.074,7.749,29.232,26.838c2.079,9.513-2.646,26.397-16.128,43.219
					c-13.356,16.758-35.47,33.453-67.978,42.714C1388.033,1269.214,1355.714,1289.815,1337.129,1315.834z"/>
				
					<linearGradient id="SVGID_00000167386105990214618600000011172639519726788516_" gradientUnits="userSpaceOnUse" x1="1268.0168" y1="1274.9677" x2="1456.0114" y2="1274.9677">
					<stop  offset="0.016" style="stop-color:#FFFFFF"/>
					<stop  offset="0.9916" style="stop-color:#EA9DC8"/>
				</linearGradient>
				<path style="fill:url(#SVGID_00000167386105990214618600000011172639519726788516_);" d="M1456.011,1226.499
					c-13.356,16.758-35.47,33.453-67.978,42.714c0,0-32.319,20.601-50.905,46.621l3.339-0.63l-3.087,1.008l-0.504,0.126
					l-0.189,0.063c0,0-36.036,5.733-39.627,6.93c-0.441,0.126-1.134,0.126-2.016,0.063h-0.126
					c-6.552-0.882-23.373-8.001-26.901-16.569c4.221-4.788,47.188-23.877,71.632-69.805c0.063,0,0.063,0,0.126-0.063
					c25.767-7.434,29.106,17.451,36.478,26.334C1383.686,1272.175,1456.011,1226.499,1456.011,1226.499z"/>
				
					<linearGradient id="SVGID_00000122681748114931018450000009287956247731858092_" gradientUnits="userSpaceOnUse" x1="1269.5919" y1="1422.1635" x2="1451.0972" y2="1422.1635">
					<stop  offset="0.0084" style="stop-color:#EA9DC8"/>
					<stop  offset="0.984" style="stop-color:#FFDBD6"/>
				</linearGradient>
				<path style="opacity:0.5;fill:url(#SVGID_00000122681748114931018450000009287956247731858092_);" d="M1451.097,1424.826
					c0,15.876-36.855,40.194-49.96,68.23c0,0-30.429,6.552-35.218-14.301c0,0-53.74,49.519-73.396,58.465
					c-5.922,2.709-13.986,3.087-22.932,2.52c28.287,1.26,87.949-72.325,95.509-97.84c7.56-25.452-9.576-35.784-15.498-40.194
					c-5.985-4.347-11.088-36.981-22.239-41.77c-11.151-4.725-14.742-26.271-20.349-29.799c-5.544-3.591-12.285-6.678-12.285-6.678
					l0.189-0.063h0.126l42.085-7.56l3.339-0.63l-3.087,1.008c7.182-1.323,68.545-12.852,78.058-11.781
					c10.143,1.197,17.325,30.429,17.703,34.02c0.441,3.591-6.741,6.363-6.741,6.363s6.741-0.756,12.348,0.441
					c5.544,1.197,10.332,33.012,9.954,38.556c-0.441,5.607-5.166,7.56-5.166,7.56S1451.097,1408.887,1451.097,1424.826z"/>
				<path style="fill:#E392AD;" d="M1405.281,1187.978c0,0-8.52,9.633-6.53,19.382c1.989,9.749,40.673,3.183,57.261-8.356
					c16.588-11.54,13.901-25.853,3.917-31.51C1449.945,1161.838,1405.281,1187.978,1405.281,1187.978z"/>
				<path style="fill:#FFC4B1;" d="M1442.022,1158.22c-9.848-1.492-46.554,32.105-42.078,46.641
					c4.477,14.536,59.685-3.071,65.654-20.38C1471.566,1167.173,1442.022,1158.22,1442.022,1158.22z"/>
				<path style="fill:#FFE4DB;" d="M1432.981,1161.38c0,0,16.303,4.201,24.261,12.159c7.958,7.958,6.168,12.356,7.759,12.345
					c1.591-0.01,6.89-11.846-8.99-21.049C1440.132,1155.634,1432.981,1161.38,1432.981,1161.38z"/>
				<path style="fill:#FFE4DB;" d="M1400.455,1197.323c0,0,6.849-6.516,12.022-2.815c5.173,3.701,3.241,15.569,3.241,15.569
					S1395.169,1212.334,1400.455,1197.323z"/>
				<path style="opacity:0.5;fill:#E392AD;" d="M1367.913,1260.016c5.695,16.135-31.506-20.795-23.512-24.092
					C1352.395,1232.627,1363.536,1247.615,1367.913,1260.016z"/>
				<path style="fill:#E392AD;" d="M1433.142,1338.452c0,0-61.25-2.371-109.396,15.535l102.655-9.172
					C1426.401,1344.815,1431.523,1341.221,1433.142,1338.452z"/>
				<path style="fill:#E392AD;" d="M1443.537,1391.372c0,0-33.049-5.554-96.015,7.715L1443.537,1391.372z"/>
				<path style="fill:#E392AD;" d="M1365.92,1478.755c0,0,31.039-26.586,39.097-30.765c8.057-4.178,26.858-5.968,26.858-5.968
					s-24.172,5.67-25.963,7.461c-1.79,1.79,22.084,1.79,22.084,1.79s-19.019,3.979-26.818,5.571
					c-7.8,1.591-14.365,6.366-15.757,9.749c-1.393,3.382,0.077,16.99-6.977,19.298
					C1371.39,1488.199,1365.92,1478.755,1365.92,1478.755z"/>
				<path style="opacity:0.3;fill:#FFFFFF;" d="M1139.12,1484.149c-5.257,44.579,72.285,38.262,120.895,28.059
					c48.61-10.203,85.427-75.827,87.507-93.165c2.08-17.338-9.85-40.586-23.776-55.507c-13.926-14.921-24.021-26.432-38.994-40.1
					c-14.973-13.669-41.536,28.41-69.71,66.783C1186.869,1428.593,1141.508,1463.905,1139.12,1484.149z"/>
				
					<linearGradient id="SVGID_00000163768778994521977810000000600657600651907722_" gradientUnits="userSpaceOnUse" x1="1271.9001" y1="1343.3198" x2="1288.3787" y2="1343.3198">
					<stop  offset="0.016" style="stop-color:#FFFFFF"/>
					<stop  offset="0.9916" style="stop-color:#EA9DC8"/>
				</linearGradient>
				<path style="opacity:0.5;fill:url(#SVGID_00000163768778994521977810000000600657600651907722_);" d="M1288.314,1330.266
					c-11.643,2.035-16.414,26.107-16.414,26.107S1289.58,1344.636,1288.314,1330.266z"/>
				
					<linearGradient id="SVGID_00000179629365100607218790000015258945215770402210_" gradientUnits="userSpaceOnUse" x1="1294.8751" y1="1370.976" x2="1319.6674" y2="1370.976">
					<stop  offset="0.016" style="stop-color:#FFFFFF"/>
					<stop  offset="0.9916" style="stop-color:#EA9DC8"/>
				</linearGradient>
				<path style="opacity:0.5;fill:url(#SVGID_00000179629365100607218790000015258945215770402210_);" d="M1319.667,1356.374
					c0,0-23.874,5.67-24.769,24.471C1294.003,1399.646,1319.667,1356.374,1319.667,1356.374z"/>
				
					<linearGradient id="SVGID_00000157986703351288611610000001335000631153346197_" gradientUnits="userSpaceOnUse" x1="1314.0522" y1="1408.8744" x2="1337.2749" y2="1408.8744">
					<stop  offset="0.016" style="stop-color:#FFFFFF"/>
					<stop  offset="0.9916" style="stop-color:#EA9DC8"/>
				</linearGradient>
				<path style="opacity:0.5;fill:url(#SVGID_00000157986703351288611610000001335000631153346197_);" d="M1337.275,1397.557
					c0,0-16.874,10.225-23.223,22.636C1329.118,1418.844,1337.275,1397.557,1337.275,1397.557z"/>
			</g>
			<g>
				
					<linearGradient id="SVGID_00000076570020822434066470000007429379473908151998_" gradientUnits="userSpaceOnUse" x1="1161.4031" y1="1209.0887" x2="1161.4031" y2="931.0187">
					<stop  offset="0.016" style="stop-color:#FFA67F"/>
					<stop  offset="1" style="stop-color:#FF8B7C"/>
				</linearGradient>
				<path style="fill:url(#SVGID_00000076570020822434066470000007429379473908151998_);" d="M1046.41,931.019
					c0,0,34.106,91.119,46.697,217.651c0,0,50.391,65.654,117.238,60.083c66.847-5.571,66.051-103.454,66.051-103.454
					s-27.57-107.813-45.219-157.36L1046.41,931.019z"/>
				<path style="fill:#E392AD;" d="M1067.045,1000.209c0,0,60.463,43.353,123.766,69.844c63.303,26.491,56.443-71.316,56.443-71.316
					l-16.077-50.799c0,0-92.514,9.354-184.796-16.913L1067.045,1000.209z"/>
				
					<linearGradient id="SVGID_00000044900414055545158320000004746798907510266509_" gradientUnits="userSpaceOnUse" x1="1123.8228" y1="1144.1704" x2="1123.8228" y2="935.4023">
					<stop  offset="0.016" style="stop-color:#FFFFFF"/>
					<stop  offset="0.9916" style="stop-color:#F29DC8"/>
				</linearGradient>
				<path style="fill:url(#SVGID_00000044900414055545158320000004746798907510266509_);" d="M1059.23,935.688
					c-30.8-7.523,56.209,135.721,106.655,186.652s24.712,4.545,0-55.14s-52.043-121.6-64.174-123.909
					C1089.581,940.982,1059.23,935.688,1059.23,935.688z"/>
			</g>
			
				<linearGradient id="SVGID_00000012445466293249694720000001234456997379738522_" gradientUnits="userSpaceOnUse" x1="894.3682" y1="1938.983" x2="894.3682" y2="1557.4038">
				<stop  offset="0" style="stop-color:#38328A"/>
				<stop  offset="1" style="stop-color:#4F349B"/>
			</linearGradient>
			<path style="fill:url(#SVGID_00000012445466293249694720000001234456997379738522_);" d="M1075.99,1648.983
				c-4.095,164.999-72.577,246.522-72.577,246.522c-15.12,6.993-32.823,13.104-51.787,18.27
				c-86.563,23.814-199.083,29.547-210.801,22.239c-14.301-8.883-34.209-70.75-26.271-165.44s64.891-202.926,101.494-207.273
				c36.603-4.41,69.238,40.95,90.721,38.997c21.483-2.016,87.508-42.589,91.918-44.164c0.189-0.063,0.378-0.126,0.63-0.189
				c4.662-1.323,14.49,0.189,14.49,0.189l2.331,9.324c-44.542,59.473-90.721,312.169-39.753,311.35
				c50.905-0.819,84.547-215.085,84.547-215.085L1075.99,1648.983z"/>
			<g>
				
					<linearGradient id="SVGID_00000039113691258690887980000015949558952638595480_" gradientUnits="userSpaceOnUse" x1="1797.7905" y1="1550.1312" x2="1797.7905" y2="893.0294">
					<stop  offset="0" style="stop-color:#FFB595"/>
					<stop  offset="0.984" style="stop-color:#FFAEA9"/>
				</linearGradient>
				<path style="fill:url(#SVGID_00000039113691258690887980000015949558952638595480_);" d="M1941.999,982.497
					c0,0-25.011,106.912-35.344,124.364c-10.332,17.514-21.253,23.657-32.405,49.236c-11.151,25.641-10.562,247.624-45.59,355.859
					c-34.965,108.235-154.163-48.07-154.163-48.07s104.77-165.062,121.844-311.917c0.756-6.3,1.323-12.6,1.701-18.837
					c0,0-74.845-22.743-82.153-47.944c-0.063-0.189-0.126-0.315-0.126-0.441c0-0.063,0-0.063-0.063-0.126
					c-2.457-9.702-4.536-21.609-6.867-34.524c0,0,0-0.063-0.063-0.126c-3.78-20.979-8.316-44.353-16.191-64.072
					c-0.756-1.89-1.575-3.78-2.394-5.67c-13.356-29.988-36.604-60.166-36.604-69.931c0-10.332,27.846-29.421,59.725-6.363
					c21.672,15.75,24.129,33.706,24.822,48.07c0.252,6.678,0.189,12.6,1.449,17.199c1.827,6.489,5.859,10.08,9.765,12.033
					c4.788,2.331,9.324,2.331,9.324,2.331l-0.819-13.545L1941.999,982.497z"/>
				
					<linearGradient id="SVGID_00000057850248476558435080000013389444723865164931_" gradientUnits="userSpaceOnUse" x1="1849.9167" y1="1055.9867" x2="1849.9167" y2="970.0131">
					<stop  offset="0.016" style="stop-color:#FFDBD6"/>
					<stop  offset="0.9916" style="stop-color:#EA9DC8"/>
				</linearGradient>
				<path style="fill:url(#SVGID_00000057850248476558435080000013389444723865164931_);" d="M1758.651,983.542
					c0,0,36.542,9.351,60.05,57.696c23.509,48.345,2.619-36.508-37.668-49.738c0,0,29.246,5.571,70.727,38.398
					c41.481,32.827,68.936-28.948,73.711-35.214c4.775-6.267,12.714,3.625,12.714,3.625l3.795-15.818l-184.124-12.477
					L1758.651,983.542z"/>
				
					<linearGradient id="SVGID_00000068658734866021543620000003532103276278855090_" gradientUnits="userSpaceOnUse" x1="1715.7635" y1="1118.4877" x2="1843.5343" y2="1118.4877">
					<stop  offset="0.0084" style="stop-color:#EA9DC8"/>
					<stop  offset="0.984" style="stop-color:#FFFFFF"/>
				</linearGradient>
				<path style="fill:url(#SVGID_00000068658734866021543620000003532103276278855090_);" d="M1796.342,1151.969
					c0.756-6.3,1.323-12.6,1.701-18.837c0,0-74.845-22.743-82.153-47.944c-0.063-0.189-0.126-0.315-0.126-0.441
					c13.797,16.695,121.528,46.81,127.199,53.992C1847.372,1144.346,1825.763,1153.922,1796.342,1151.969z"/>
				<path style="fill:#E392AD;" d="M1664.021,933.495c0,0,13.543,28.828,32.955,26.969c16.612-1.591,13.731-43.294,2.638-51.688
					C1688.521,900.381,1664.021,933.495,1664.021,933.495z"/>
				<path style="opacity:0.3;fill:#E392AD;" d="M1708.833,1050.097c0,0,0-0.063-0.063-0.126
					c-3.78-20.979-8.316-44.353-16.191-64.072c-0.756-1.89-1.575-3.78-2.394-5.67c26.397,11.781,43.03-33.894,43.03-33.894
					s1.449-0.756,4.914,5.67c0.252,6.678,0.189,12.6,1.449,17.199c1.827,6.489,5.859,10.08,9.765,12.033
					C1761.124,1018.408,1715.89,1085.189,1708.833,1050.097z"/>
				<path style="fill:#FFC4B1;" d="M1654.577,914.788c-3.311-9.478,31.656-12.816,42.001-8.439c10.345,4.377,15.941,44.551,0,49.737
					C1680.637,961.273,1660.721,932.379,1654.577,914.788z"/>
				<path style="fill:#FFE4DB;" d="M1656.055,918.593c0,0,2.325-7.469,21.424-9.857c19.099-2.387,26.062,7.516,26.062,7.516
					s0.497-16.091-30.24-11.803C1642.563,908.737,1656.055,918.593,1656.055,918.593z"/>
				<path style="fill:#FFE4DB;" d="M1680.45,951.941c0,0,11.353-7.99,23.092-0.828
					C1703.542,951.113,1697.746,968.089,1680.45,951.941z"/>
				<path style="opacity:0.3;fill:#FFFFFF;" d="M1729.206,1090.179c-15.256-12.552,18.037-64.062,26.128-89.13
					c8.091-25.067,67.378,19.099,82.896,80.774C1853.748,1143.498,1760.64,1116.043,1729.206,1090.179z"/>
			</g>
			<path style="fill:#C2096F;" d="M1116.255,1609.964l23.08-21.582c0,0-7.975,33.192-12.749,34.385
				C1121.812,1623.961,1116.255,1609.964,1116.255,1609.964z"/>
			
				<linearGradient id="SVGID_00000125596610286026692480000010035055570987390639_" gradientUnits="userSpaceOnUse" x1="1771.0057" y1="1721.8782" x2="1771.0057" y2="1231.9614">
				<stop  offset="0" style="stop-color:#38328A"/>
				<stop  offset="1" style="stop-color:#4F349B"/>
			</linearGradient>
			<path style="fill:url(#SVGID_00000125596610286026692480000010035055570987390639_);" d="M1930.533,1504.459
				c-1.134,2.52-2.394,5.103-3.78,7.749c-40.383,76.798-182.45,204.815-201.54,208.848c-19.656,4.158-57.268-5.355-93.682-77.617
				c-36.415-72.199-18.522-262.587,16.128-293.017c34.587-30.429,57.268,15.498,79.948-23.31
				c13.293-22.743,24.885-54.559,34.524-75.034c6.804-14.553,12.6-23.31,17.262-19.026c0,0-15.183,42.526-7.245,95.068
				c8.001,52.543,101.116,177.473,117.812,155.99c16.695-21.42-33.453-177.851-33.453-177.851l0.756-22.617
				C1911.633,1407.879,1930.533,1504.459,1930.533,1504.459z"/>
			<path style="fill:#A4A6FF;" d="M1930.533,1504.459c-1.134,2.52-2.394,5.103-3.78,7.749
				c-19.656-5.166-44.227-15.876-74.845-35.281c-104.077-65.899-104.329-175.898-89.776-224.85
				c6.804-14.553,12.6-23.31,17.262-19.026c0,0-15.183,42.526-7.245,95.068c8.001,52.543,101.116,177.473,117.812,155.99
				c16.695-21.42-33.453-177.851-33.453-177.851l0.756-22.617C1911.633,1407.879,1930.533,1504.459,1930.533,1504.459z"/>
			
				<linearGradient id="SVGID_00000173123087481549306580000017323719080926141114_" gradientUnits="userSpaceOnUse" x1="1823.6749" y1="1452.2942" x2="1823.6749" y2="1173.2632">
				<stop  offset="0" style="stop-color:#FF6686"/>
				<stop  offset="1" style="stop-color:#FF7C89"/>
			</linearGradient>
			<path style="fill:url(#SVGID_00000173123087481549306580000017323719080926141114_);" d="M1878.369,1222.467
				c-0.126,0.441-0.252,0.945-0.378,1.386c-9.513,32.256-35.532,228.441-35.532,228.441
				c-113.212-101.116-66.214-208.218-66.214-208.218c5.67-35.343,6.867-63.757,7.497-67.348c0.567-3.591,9.576-3.465,9.576-3.465
				s-2.331,17.325,1.953,24.318c22.491,37.044,76.798,22.68,75.979,9.954c-0.819-12.726-2.835-13.041-2.835-13.041l1.008-10.269
				C1869.422,1184.226,1887.063,1191.471,1878.369,1222.467z"/>
			<path style="fill:#E33D6F;" d="M1868.417,1194.508l-2.931,19.816c0,0,6.4,1.875,8.555-8.804
				C1876.196,1194.841,1868.417,1194.508,1868.417,1194.508z"/>
			<path style="fill:#E392AD;" d="M1090.742,1127.321c0,0,39.227,81.83,104.88,78.249c65.654-3.581,78.662-91.506,75.541-120.359
				l5.234,22.874c0,0,11.539,97.486-67.246,107.831c-78.784,10.345-115.107-58.243-116.044-67.245
				C1092.168,1139.668,1090.742,1127.321,1090.742,1127.321z"/>
			<path style="fill:#B588AD;" d="M1051.617,1264.601c0,0-65.886,50.889-69.169,52.977c-3.282,2.089-49.24-13.429-55.805-21.785
				c-6.565-8.356,0,14.026,11.937,26.262c11.937,12.235,40.401,3.932,40.364,4.764c-0.038,0.832-2.227,10.944-2.227,10.944
				s9.323-24.466,45.123-47.937c22.368-14.665,29.777-14.921,29.777-14.921V1264.601z"/>
			<path style="fill:#E392AD;" d="M1075.99,1648.983c-4.095,164.999-72.577,246.522-72.577,246.522
				c-15.12,6.993-32.823,13.104-51.787,18.27c-4.788-5.544-9.135-13.482-13.041-24.255c-24.633-68.167,45.99-287.347,60.733-331.573
				c4.662-1.323,14.49,0.189,14.49,0.189l2.331,9.324c-44.542,59.473-90.721,312.169-39.753,311.35
				c50.905-0.819,84.547-215.085,84.547-215.085L1075.99,1648.983z"/>
			
				<linearGradient id="SVGID_00000052087117262506315880000003577446980768024197_" gradientUnits="userSpaceOnUse" x1="1053.6252" y1="1789.6633" x2="1053.6252" y2="1484.1487">
				<stop  offset="0" style="stop-color:#FF6686"/>
				<stop  offset="1" style="stop-color:#FF7C89"/>
			</linearGradient>
			<path style="fill:url(#SVGID_00000052087117262506315880000003577446980768024197_);" d="M1151.906,1576.847
				c0,0-16.443,44.479-29.106,61.111c-3.024,3.969-5.796,6.363-8.127,6.111c-11.97-1.197-159.329,145.595-159.329,145.595
				s13.104-158.573,60.796-222.204c0,0,55.189-48.448,68.86-67.474c16.065-22.239,26.964-14.553,26.964-14.553
				s-31.311,65.521,9.261,133.562l18.081-30.618L1151.906,1576.847z"/>
			
				<linearGradient id="SVGID_00000034781394033331879190000013511792148993224577_" gradientUnits="userSpaceOnUse" x1="1592.5449" y1="1535.4288" x2="1592.5449" y2="1204.8608">
				<stop  offset="0.0084" style="stop-color:#C2798B"/>
				<stop  offset="0.984" style="stop-color:#FFFFFF"/>
			</linearGradient>
			<path style="opacity:0.8;fill:url(#SVGID_00000034781394033331879190000013511792148993224577_);" d="M1561.69,1535.429
				c0,0-17.905-165.128,0-246.3c17.906-81.172,76.795-63.932,80.774-72.154c3.979-8.222-42.178-24.737-74.805,4.609
				C1535.031,1250.931,1535.031,1428.394,1561.69,1535.429z"/>
			<path style="fill:#E392AD;" d="M1653.605,1195.224c-34.618-7.162-54.91,52.522-87.14,48.942
				c-32.23-3.581,28.881-204.687,49.737-224.214c31.037,33.106,35.881,131.691,36.391,143.601
				C1653.102,1175.462,1653.605,1195.224,1653.605,1195.224z"/>
			<path style="fill:#E392AD;" d="M816.44,1209.089c12.319-19.833,105.789,120.037,119.751,181.903
				c13.962,61.866,14.324,102.061,5.969,103.852c-8.356,1.79-59.088-124.742-73.413-146.228
				c-14.324-21.487-32.827,4.178-32.827,4.178S810.091,1255.182,816.44,1209.089z"/>
			
				<linearGradient id="SVGID_00000104679293399532799260000005488988847821081263_" gradientUnits="userSpaceOnUse" x1="898.2929" y1="1597.1198" x2="898.2929" y2="1512.208">
				<stop  offset="0.0084" style="stop-color:#C2798B"/>
				<stop  offset="0.984" style="stop-color:#FFFFFF"/>
			</linearGradient>
			<path style="opacity:0.8;fill:url(#SVGID_00000104679293399532799260000005488988847821081263_);" d="M959.471,1579.868
				c0,0-31.635-64.62-122.356-67.66c0,0,71.994,37.977,86.929,84.912L959.471,1579.868z"/>
			
				<linearGradient id="SVGID_00000163065503607938091310000011854175121947135364_" gradientUnits="userSpaceOnUse" x1="752.6691" y1="1591.1193" x2="927.8359" y2="1591.1193">
				<stop  offset="0.016" style="stop-color:#FFFFFF"/>
				<stop  offset="0.9916" style="stop-color:#C2798B"/>
			</linearGradient>
			<path style="opacity:0.8;fill:url(#SVGID_00000163065503607938091310000011854175121947135364_);" d="M927.836,1595.511
				c0,0-9.628,9.23-21.065,6.788c-11.437-2.443-56.876-41.763-90.721-38.997c-33.845,2.765-63.38,73.586-63.38,73.586
				s17.107-63.625,62.767-86.765C861.097,1526.984,927.836,1595.511,927.836,1595.511z"/>
			
				<linearGradient id="SVGID_00000011740088429560412610000016202738047956143549_" gradientUnits="userSpaceOnUse" x1="760.7181" y1="1639.609" x2="899.6122" y2="1639.609">
				<stop  offset="0.016" style="stop-color:#FFFFFF"/>
				<stop  offset="0.9916" style="stop-color:#C2798B"/>
			</linearGradient>
			<path style="opacity:0.8;fill:url(#SVGID_00000011740088429560412610000016202738047956143549_);" d="M760.718,1689.416
				c0,0,34.274-87.639,138.894-87.986l-12.922-10.311C886.69,1591.119,785.388,1570.842,760.718,1689.416z"/>
			
				<linearGradient id="SVGID_00000011729067747232801440000011391159798117850526_" gradientUnits="userSpaceOnUse" x1="1610.5663" y1="1399.0875" x2="1720.452" y2="1399.0875">
				<stop  offset="0.016" style="stop-color:#FFFFFF"/>
				<stop  offset="0.9916" style="stop-color:#C2798B"/>
			</linearGradient>
			<path style="opacity:0.8;fill:url(#SVGID_00000011729067747232801440000011391159798117850526_);" d="M1720.452,1337.275
				c-11.744,5.968-84.753,48.942-89.527,152.793c0,0-0.437-79.539,26.858-114.595c27.296-35.056,42.884-32.046,42.884-32.046
				s-38.706-7.532-61.386,17.927c-22.68,25.459-25.396,108.285-25.396,108.285s-15.19-71.703,19.427-131.876
				c34.618-60.173,82.612-10.153,82.612-10.153L1720.452,1337.275z"/>
			<path style="fill:#E392AD;" d="M1561.69,1535.429c0,0-36.209-44.167-38.596-103.056c-2.388-58.889,34.165-124.266,34.165-124.266
				S1537.418,1415.661,1561.69,1535.429z"/>
			
				<linearGradient id="SVGID_00000022553252300368551300000017104290859786321551_" gradientUnits="userSpaceOnUse" x1="1678.4238" y1="1629.7583" x2="1888.7864" y2="1629.7583">
				<stop  offset="0.0084" style="stop-color:#C2798B"/>
				<stop  offset="0.984" style="stop-color:#FFFFFF"/>
			</linearGradient>
			<path style="opacity:0.8;fill:url(#SVGID_00000022553252300368551300000017104290859786321551_);" d="M1687.844,1712.913
				c-56.313-69.475,156.752-166.873,192.311-174.533c35.558-7.66-46.79,100.828-100.865,141.752
				C1725.214,1721.056,1709.639,1730.893,1687.844,1712.913z"/>
			
				<linearGradient id="SVGID_00000107552530961838389690000018242976836635800206_" gradientUnits="userSpaceOnUse" x1="1479.6321" y1="2399.5906" x2="1479.6321" y2="1411.0112">
				<stop  offset="0.0084" style="stop-color:#C2798B"/>
				<stop  offset="0.984" style="stop-color:#FFFFFF"/>
			</linearGradient>
			<path style="opacity:0.5;fill:url(#SVGID_00000107552530961838389690000018242976836635800206_);" d="M1604.693,2277.92
				c-17.955,14.301-99.1,27.468-201.792,95.509c-38.557,25.578-61.93,30.744-75.286,22.617c-0.945-0.567-1.827-1.197-2.709-1.953
				c-4.599-3.591-7.749-8.505-9.198-14.742c-0.063-0.252-0.126-0.504-0.189-0.756c-17.01-80.767,118.693-540.484,157.124-704.727
				c38.367-164.243,53.236-261.39,64.009-262.839c10.71-1.449,18.837,87.571,25.011,124.427
				c6.048,35.658,23.625,177.158,24.696,185.978c0,0.126,0.063,0.189,0,0.252c-2.016-6.048-52.921-156.683-92.989,26.523
				c-40.888,186.86-175.898,548.107-129.467,586.6c46.495,38.493,157.628-35.029,210.108-146.414
				c51.724-109.684,26.145-373.469,25.326-381.785c8.505,53.236,18.27,110.188,29.169,166.889
				C1670.34,2190.79,1622.585,2263.555,1604.693,2277.92z"/>
			
				<linearGradient id="SVGID_00000039829093154503926270000001286118939548747934_" gradientUnits="userSpaceOnUse" x1="820.6797" y1="2448.8406" x2="820.6797" y2="2403.6692">
				<stop  offset="0.016" style="stop-color:#FFFFFF"/>
				<stop  offset="0.9916" style="stop-color:#C2798B"/>
			</linearGradient>
			<path style="opacity:0.8;fill:url(#SVGID_00000039829093154503926270000001286118939548747934_);" d="M830.098,2448.841
				c-13.482-1.134-21.609-2.646-21.609-2.646c8.568-12.726,16.632-26.964,24.381-42.525
				C824.68,2424.774,818.758,2447.329,830.098,2448.841z"/>
			
				<linearGradient id="SVGID_00000126322528898865634980000005976545923048149434_" gradientUnits="userSpaceOnUse" x1="953.2105" y1="2450.1504" x2="953.2105" y2="1708.7704">
				<stop  offset="0.016" style="stop-color:#FFFFFF"/>
				<stop  offset="0.9916" style="stop-color:#C2798B"/>
			</linearGradient>
			<path style="opacity:0.8;fill:url(#SVGID_00000126322528898865634980000005976545923048149434_);" d="M1071.454,2178.819
				c6.993,51.787,0.882,106.723-10.458,157.124c-5.859,17.766-12.537,31.941-20.16,41.833
				c-57.331,74.467-163.424,74.971-209.73,71.128c25.641,1.323,211.305-46.747,209.73-125.435
				c-1.575-79.822-4.158-442.265-113.023-252.885c5.103-19.593,10.332-61.489,14.049-96.895c0.063-0.441,0.126-0.882,0.189-1.323
				c3.339-31.5,5.544-57.52,5.544-57.52l2.142-0.756l53.677-18.585c61.93-81.019,68.041-186.734,68.041-186.734
				s13.167,96.013-9.135,135.011c-22.302,38.997-46.936,34.524-41.833,69.994C1025.59,1949.244,1050.412,2022.829,1071.454,2178.819
				z"/>
			
				<linearGradient id="SVGID_00000160152641282531303780000011771908662880045753_" gradientUnits="userSpaceOnUse" x1="739.4839" y1="1887.3744" x2="947.5949" y2="1887.3744">
				<stop  offset="0.0084" style="stop-color:#C2798B"/>
				<stop  offset="0.984" style="stop-color:#FFFFFF"/>
			</linearGradient>
			<path style="opacity:0.8;fill:url(#SVGID_00000160152641282531303780000011771908662880045753_);" d="M740.826,1936.014
				c-18.307-19.796,156.36-86.538,175.072-98.58c18.713-12.041,16.44,65.694,31.696,77.412
				C947.595,1914.846,806.881,1947.851,740.826,1936.014z"/>
			<path style="opacity:0.8;fill:#E392AD;" d="M1151.906,1576.847c0,0-16.443,44.479-29.106,61.111
				c-15.561-9.198-31.374-28.854-35.91-70.246c-9.702-88.39,25.074-82.279,25.074-82.279s-31.311,65.521,9.261,133.562
				l18.081-30.618L1151.906,1576.847z"/>
			<path style="fill:#E392AD;" d="M1016.14,1567.46c0,0-54.719,128.743-22.086,184.131l61.723-58.987
				c0,0-45.355,136.077-67.947,148.014c-22.591,11.937-32.486-50.954-32.486-50.954S961.199,1648.432,1016.14,1567.46z"/>
			<path style="fill:#E392AD;" d="M1777.686,1238.637c0,0-15.712,68.731,11.603,128.082c27.315,59.352,56.024,64.159,56.024,64.159
				l15.675-110.167c0,0,14.248,45.888,10.667,90.313c-3.581,44.426-21.871,49.587-21.871,49.587
				S1726.293,1387.693,1777.686,1238.637z"/>
			<path style="fill:#391861;" d="M1349.636,2154.78c-2.812-12.952,144.663-604.656,144.663-604.656s-31.846,233.595-72.351,405.488
				C1381.442,2127.503,1349.636,2154.78,1349.636,2154.78z"/>
			<path style="fill:#E392AD;" d="M1040.258,2002.294c-16.203-69.757,10.864,291.384,13.368,319.229
				c2.504,27.846,26.668-30.54,15.297-131.55C1057.551,2088.964,1040.258,2002.294,1040.258,2002.294z"/>
			<path style="fill:#FEB1C8;" d="M1139.306,1588.376c0,0-39.578,3.435-27.342-102.943c0,0-29.316,50.452,4.292,124.532
				L1139.306,1588.376z"/>
			<path style="fill:#E392AD;" d="M1069.271,1166.693c0,0,74.62,121.127,159.972,97.908c85.352-23.22,82.116-146.113,82.116-146.113
				s4.759,131.015-84.502,156.48c-89.261,25.466-157.325-102.222-157.325-102.222L1069.271,1166.693z"/>
			<path style="fill:#D07CAD;" d="M1561.69,2426.255c-60.878-51.656-229.849,80.447-341.131,93.777
				c-111.281,13.33-206.777-45.161-250.347-58.292c-43.57-13.131-70.6,9.574-70.6,9.574l-0.01-21.163c0,0,33.07-2.208,91.101,3.284
				c60.356,5.712,147.455,18.958,238.74,9.499c179.055-18.552,362.089-112.208,362.089-112.208l-28.052,14.921L1561.69,2426.255z"/>
			<path style="fill:#D07CAD;" d="M1388.278,2382.577c0,0,47.278-0.816,99.8-13.548c52.522-12.733,103.454-45.589,103.454-45.589
				l-1.777-37.855c0,0-55.846,13.413-99.851,33.308S1388.278,2382.577,1388.278,2382.577z"/>
			<path style="fill:#D07CAD;" d="M899.603,2450.15c0,0,92.693,1.499,140.441-23.896c47.748-25.394,51.727-247.422,51.727-247.422
				s-19.106,154.371-50.934,198.943C1009.007,2422.347,899.603,2450.15,899.603,2450.15z"/>
			
				<linearGradient id="SVGID_00000155148492676273095540000006920388947290752432_" gradientUnits="userSpaceOnUse" x1="1604.5171" y1="1576.4595" x2="1737.0708" y2="1346.8698">
				<stop  offset="0.016" style="stop-color:#FFFFFF"/>
				<stop  offset="0.9916" style="stop-color:#C2798B"/>
			</linearGradient>
			<path style="opacity:0.8;fill:url(#SVGID_00000155148492676273095540000006920388947290752432_);" d="M1720.452,1337.275
				c0,0-63.483,107.18-70.03,220.129c-6.547,112.948-28.021-34.955-17.091-105.136
				C1644.26,1382.086,1720.452,1337.275,1720.452,1337.275z"/>
			<path style="opacity:0.2;fill:#FFFFFF;" d="M1390.994,1053.058c-12.579,18.755,101.957,75.676,135.132,79.079
				c33.176,3.403,84.439-104.331,84.439-104.331S1573.634,1002.806,1390.994,1053.058z"/>
			<path style="opacity:0.2;fill:#FFFFFF;" d="M830.35,1204.376c-4.775,7.56,60.083,69.633,72.816,79.58
				c12.732,9.947,90.323-108.392,95.098-117.263C1003.039,1157.822,898.789,1157.822,830.35,1204.376z"/>
			<path style="opacity:0.2;fill:#FFFFFF;" d="M804.982,1632.983c-39.124,27.429-90.42,194.106-70.526,233.896
				c19.895,39.79,150.81-56.631,189.602-121.026c38.793-64.396-9.751-144.771-9.751-144.771S862.774,1592.466,804.982,1632.983z"/>
			<path style="opacity:0.5;fill:#E392AD;" d="M1737.52,1308.107c0,0-55.332,107.917-72.011,168.813
				c-16.679,60.896-19.71,161.764-11.927,177.282c7.783,15.518,110.44-93.108,122.974-125.935
				c12.533-32.827-48.942-140.259-45.361-168.311C1734.776,1331.903,1737.52,1308.107,1737.52,1308.107z"/>
			<path style="opacity:0.2;fill:#FFFFFF;" d="M1561.69,1611.346c-54.512-56.42-77.446,296.963-68.366,364.582
				c9.079,67.619,84.317,132.874,99.221,128.1c14.903-4.775,14.903-155.977-1.012-302.404
				C1575.616,1655.196,1561.69,1611.346,1561.69,1611.346z"/>
			<path style="opacity:0.2;fill:#FFFFFF;" d="M1585.962,2257.617c-23.078-21.487,20.691-127.123,34.219-178.157
				c13.529-51.034,30.441,65.878,13.529,125.01S1585.962,2257.617,1585.962,2257.617z"/>
			<g>
				
					<linearGradient id="SVGID_00000082351342966741108740000002165194848744172464_" gradientUnits="userSpaceOnUse" x1="1241.7731" y1="586.1437" x2="1209.6995" y2="383.6388">
					<stop  offset="0" style="stop-color:#3E2987"/>
					<stop  offset="0.1442" style="stop-color:#372987"/>
					<stop  offset="0.6639" style="stop-color:#212885"/>
					<stop  offset="1" style="stop-color:#192885"/>
				</linearGradient>
				<path style="fill:url(#SVGID_00000082351342966741108740000002165194848744172464_);" d="M1180.77,388.221
					c0,0,38.74,9.834,60.021,42.749c21.281,32.915,19.225,152.285,19.225,152.285L1180.77,388.221z"/>
				
					<linearGradient id="SVGID_00000156589489851196031640000008533238896483033246_" gradientUnits="userSpaceOnUse" x1="1093.0962" y1="950.6655" x2="1093.0962" y2="372.4907">
					<stop  offset="0" style="stop-color:#FFB595"/>
					<stop  offset="0.984" style="stop-color:#FFC2A9"/>
				</linearGradient>
				<path style="fill:url(#SVGID_00000156589489851196031640000008533238896483033246_);" d="M1340.594,833.563
					c0,0.063-0.063,0.189-0.126,0.378c-10.08,44.794-42.714,90.658-80.452,106.597c-48.889,20.727-171.425,5.607-213.636-9.513
					c-14.994-5.355-29.043-20.16-42.904-39.69c-0.063-0.063-0.126-0.126-0.126-0.126c-25.137-35.344-49.897-86.122-79.066-124.553
					c-5.544-7.245-10.773-14.238-15.75-21.105c-35.785-49.267-57.016-88.957-65.458-142.382
					c-9.513-60.922,81.397-139.421,93.115-152.84c98.911-112.834,204.123-82.342,254.271-36.981
					c16.758,15.183,29.358,32.067,38.682,47.818l0.126,0.189c18.522,31.374,24.192,58.213,24.192,58.213s1.386,14.742,4.599,33.768
					c0.441,2.898,1.008,5.922,1.575,9.009c1.89,10.206,6.489,25.641,9.387,35.848c4.851,17.073,20.853,50.59,38.304,90.973
					c1.89,4.347,3.78,8.757,5.67,13.104c14.616,34.776,27.657,69.679,30.24,93.052
					C1344.563,807.481,1343.555,820.459,1340.594,833.563z"/>
				
					<linearGradient id="SVGID_00000058548729080405492800000006617051785690484887_" gradientUnits="userSpaceOnUse" x1="1068.6976" y1="737.6083" x2="1012.3701" y2="381.9704">
					<stop  offset="0.016" style="stop-color:#FFFFFF"/>
					<stop  offset="0.9916" style="stop-color:#F29DC8"/>
				</linearGradient>
				<path style="fill:url(#SVGID_00000058548729080405492800000006617051785690484887_);" d="M1229.271,461.355
					c0,0-13.731,33.523-112.831,41.524c-99.1,8.064-155.174-34.594-177.854-8.386c-22.68,26.271,16.695,161.156,45.423,136.082
					c0,0-10.206,22.68-4.095,75.475c6.048,52.795-1.953,46.306-16.254,46.747c-5.355,0.189-28.035-2.457-55.126-7.245
					c-35.785-49.267-57.016-88.957-65.458-142.382c-9.513-60.922,81.397-139.421,93.115-152.84
					c98.911-112.834,204.123-82.342,254.271-36.981c16.758,15.183,29.358,32.067,38.682,47.818L1229.271,461.355z"/>
				
					<linearGradient id="SVGID_00000011723997445260034960000017788296321530038454_" gradientUnits="userSpaceOnUse" x1="978.3357" y1="893.9042" x2="874.6901" y2="751.2482">
					<stop  offset="0" style="stop-color:#FFB595"/>
					<stop  offset="0.984" style="stop-color:#FF958D"/>
				</linearGradient>
				<path style="fill:url(#SVGID_00000011723997445260034960000017788296321530038454_);" d="M939.773,765.493
					c0,0-39.989-20.314-69.831-9.57c-29.842,10.743-19.696,68.062,10.146,94.323c29.843,26.261,54.91,28.649,87.737,39.392
					c32.827,10.744,28.052-37.601,28.052-37.601S988.118,783.995,939.773,765.493z"/>
				
					<linearGradient id="SVGID_00000044856931969639730340000009921349044097239971_" gradientUnits="userSpaceOnUse" x1="861.5445" y1="597.1654" x2="843.7632" y2="484.8992">
					<stop  offset="0" style="stop-color:#3E2987"/>
					<stop  offset="0.5684" style="stop-color:#2C2F90"/>
					<stop  offset="1" style="stop-color:#243294"/>
				</linearGradient>
				<path style="fill:url(#SVGID_00000044856931969639730340000009921349044097239971_);" d="M911.124,474.23
					c-7.032,20.292-87.021,31.435-105.48,65.853c-18.459,34.418-14.943,59.312-9.669,66.561
					c5.274,7.249,16.253-42.488,64.529-74.321C908.78,500.491,911.124,474.23,911.124,474.23z"/>
				
					<linearGradient id="SVGID_00000138536168396061098530000006508241909395565973_" gradientUnits="userSpaceOnUse" x1="918.681" y1="869.9741" x2="918.681" y2="785.4996">
					<stop  offset="0.016" style="stop-color:#FFFFFF"/>
					<stop  offset="0.9916" style="stop-color:#F29DC8"/>
				</linearGradient>
				<path style="fill:url(#SVGID_00000138536168396061098530000006508241909395565973_);" d="M957.471,806.874
					c0,0-46.347-25.864-73.405-20.691c-27.057,5.172-11.28,46.762,0,61.277c11.28,14.514,31.036,17.905,31.036,17.905
					s-27.256-5.272-34.418-34.22c-7.163-28.947,7.759-34.319,19.099-37.005c11.34-2.686,1.082,17.228,5.968,43.57
					c4.887,26.343,23.278,31.335,33.722,32.23c10.444,0.895-10.744-16.712-10.744-37.9c0-21.188,14.026,16.712,32.23,10.744
					C979.165,836.816,957.471,806.874,957.471,806.874z"/>
				
					<linearGradient id="SVGID_00000029766368489287494130000005608755142143795844_" gradientUnits="userSpaceOnUse" x1="1131.8979" y1="760.6479" x2="1131.8979" y2="533.5178">
					<stop  offset="0.016" style="stop-color:#FFFFFF"/>
					<stop  offset="0.9916" style="stop-color:#F29DC8"/>
				</linearGradient>
				<path style="fill:url(#SVGID_00000029766368489287494130000005608755142143795844_);" d="M1093.106,590.993
					c59.145,2.608,87.663-16.492,87.663-16.492s42.157-30.24,56.556-38.994c14.4-8.754,19.374,14.225,19.374,14.225
					s9.196,54.544,34.739,103.321c0,0-39.455,26.319-67.168,20.127c-27.713-6.19-23.476-26.097-41.381-50.295
					c-32.628-16.95-37.402,14.484-37.402,14.484s11.141,53.769-6.764,83.784c-17.906,30.016-96.212,54.387-135.246,28.673
					c-39.034-25.715-30.28-92.363-30.28-92.363S1022.025,593.956,1093.106,590.993z"/>
				<path style="opacity:0.6;fill:#BF7988;" d="M929.725,794.141c-24.877-7.298-2.188,43.272,18.702,44.465
					c20.89,1.194,2.388-20.293,0.895-26.56c-1.492-6.267,8.149-5.172,8.149-5.172S941.689,798.258,929.725,794.141z"/>
				<g>
					
						<linearGradient id="SVGID_00000127005346694248800540000018246303154225608347_" gradientUnits="userSpaceOnUse" x1="1027.4296" y1="676.8356" x2="1129.0648" y2="676.8356">
						<stop  offset="0.0084" style="stop-color:#EA9DC8"/>
						<stop  offset="0.984" style="stop-color:#FFFFFF"/>
					</linearGradient>
					<path style="fill:url(#SVGID_00000127005346694248800540000018246303154225608347_);" d="M1031.162,714.168
						c0,0-15.983-33.985,18.197-65.952c34.179-31.967,79.706,34.32,79.706,34.32L1031.162,714.168z"/>
					<path style="fill:#E392AD;" d="M1032.208,719.689c4.724,17.646,79.688-18.261,95.772-25.412
						c16.084-7.152-7.413-15.215-16.287-25.972c-8.874-10.757-25.735-22.198-53.792-9.996
						C1029.844,670.513,1028.032,704.092,1032.208,719.689z"/>
					<path style="fill:#FFE4EC;" d="M1120.435,695.624c-4.663,1.612-14.335,5.7-25.677,10.19
						c-17.156,6.736-37.996,14.45-50.893,16.177c-6.045,0.806-10.305,0.288-11.629-2.303c-1.094-2.13-1.785-6.275-1.612-11.514
						c0.345-16.696,9.039-44.503,39.378-51.181c0.346-0.057,0.691-0.173,1.036-0.173
						C1110.13,649.049,1132.813,691.422,1120.435,695.624z"/>
					<path style="fill:#7F6186;" d="M1097.867,691.306c0,5.124-1.094,10.075-3.109,14.508c-17.156,6.736-37.996,14.45-50.893,16.177
						c-5.584-3.281-10.19-8.06-13.241-13.817c0.345-16.696,9.039-44.503,39.378-51.181c0.346-0.057,0.691-0.173,1.036-0.173
						C1086.468,660.679,1097.867,674.668,1097.867,691.306z"/>
					
						<linearGradient id="SVGID_00000070809131581105242470000009989623613322801592_" gradientUnits="userSpaceOnUse" x1="1062.1051" y1="714.1681" x2="1062.1051" y2="668.5007">
						<stop  offset="0.016" style="stop-color:#E0B3D1"/>
						<stop  offset="0.9916" style="stop-color:#C2798B"/>
					</linearGradient>
					<path style="fill:url(#SVGID_00000070809131581105242470000009989623613322801592_);" d="M1084.938,691.335
						c0,12.611-10.223,22.833-22.833,22.833c-12.611,0-22.833-10.223-22.833-22.833c0-12.611,10.222-22.834,22.833-22.834
						C1074.716,668.501,1084.938,678.724,1084.938,691.335z"/>
					<path style="fill:#6C2A51;" d="M1119.886,678.309c0,0-16.463-28.295-56.323-17.919c-39.861,10.376-31.974,57.702-31.974,57.702
						s-14.852-34.455,15.259-59.732C1078.744,631.583,1114.071,666.171,1119.886,678.309z"/>
					<path style="fill:#FFFFFF;" d="M1078.187,682.535c0,0,9.086-9.937,20.405-7.085L1078.187,682.535z"/>
				</g>
				<g>
					
						<linearGradient id="SVGID_00000168825526668041717450000010042861261264098981_" gradientUnits="userSpaceOnUse" x1="1212.4763" y1="614.8763" x2="1264.9708" y2="614.8763">
						<stop  offset="0.016" style="stop-color:#FFFFFF"/>
						<stop  offset="0.9916" style="stop-color:#EA9DC8"/>
					</linearGradient>
					<path style="fill:url(#SVGID_00000168825526668041717450000010042861261264098981_);" d="M1219.582,652.725
						c0,0-16.611-47.793,0.962-69.61c17.573-21.816,44.427,22.025,44.427,22.025L1219.582,652.725z"/>
					<path style="fill:#E392AD;" d="M1219.557,658.154c-7.367-8.932-10.249-41.859,10.51-60.236s39.137,15.314,44.241,30.118
						c5.105,14.804-17.037,25.013-30.299,27.736C1230.748,658.494,1220.787,659.647,1219.557,658.154z"/>
					<path style="fill:#FFE4EC;" d="M1268.863,639.253c-3.167,3.339-8.578,6.621-14.681,9.384
						c-6.563,2.994-13.932,5.354-20.15,6.506c-5.239,1.036-9.73,1.151-12.263,0.057c-1.209-0.576-2.015-1.382-2.187-2.475
						c-2.303-12.32-2.245-28.152,1.842-40.012c2.13-6.332,5.469-11.514,10.132-14.508c2.361-1.497,5.009-2.418,8.06-2.648
						C1260.342,593.829,1279.744,627.854,1268.863,639.253z"/>
					<path style="fill:#7F6186;" d="M1256.6,633.841c0,5.238-0.864,10.305-2.418,14.795c-6.563,2.994-13.932,5.354-20.15,6.506
						c-1.9,1.036-3.973,1.554-6.16,1.554c-2.13,0-4.203-0.518-6.103-1.497c-1.209-0.576-2.015-1.382-2.187-2.475
						c-2.303-12.32-2.245-28.152,1.842-40.012c2.13-6.332,5.469-11.514,10.132-14.508
						C1245.546,599.529,1256.6,615.016,1256.6,633.841z"/>
					
						<linearGradient id="SVGID_00000135659659419931054390000013171298139308361145_" gradientUnits="userSpaceOnUse" x1="1231.627" y1="656.6969" x2="1231.627" y2="611.0428">
						<stop  offset="0.016" style="stop-color:#E0B3D1"/>
						<stop  offset="0.9916" style="stop-color:#C2798B"/>
					</linearGradient>
					<path style="fill:url(#SVGID_00000135659659419931054390000013171298139308361145_);" d="M1245.201,633.841
						c0,9.729-4.663,18.077-11.169,21.301c-1.9,1.036-3.973,1.554-6.16,1.554c-2.13,0-4.203-0.518-6.103-1.497
						c-1.209-0.576-2.015-1.382-2.187-2.475c-2.303-12.32-2.245-28.152,1.842-40.012c2.015-1.094,4.145-1.669,6.448-1.669
						C1237.429,611.043,1245.201,621.233,1245.201,633.841z"/>
					<path style="fill:#6C2A51;" d="M1218.057,641.989c0,0,1.46-36.244,22.561-43.391c21.1-7.146,31.377,27.107,31.377,27.107
						s-7.725-35.784-23.805-37.061C1232.109,587.368,1215.235,605.49,1218.057,641.989z"/>
					<path style="fill:#FFFFFF;" d="M1246.447,622.884c0,0,9.085-9.937,20.404-7.085L1246.447,622.884z"/>
				</g>
				
					<linearGradient id="SVGID_00000170962329890876282410000006111159791711060898_" gradientUnits="userSpaceOnUse" x1="1173.5662" y1="765.9833" x2="1173.5662" y2="727.6226">
					<stop  offset="0.0084" style="stop-color:#EA9DC8"/>
					<stop  offset="0.984" style="stop-color:#FFFFFF"/>
				</linearGradient>
				<path style="fill:url(#SVGID_00000170962329890876282410000006111159791711060898_);" d="M1161.588,727.623
					c0,0-0.384,26.53,3.793,33.393c4.178,6.864,25.429,1.718,25.429,1.718s-17.871,7.832-29.409-0.823
					C1149.864,753.258,1161.588,727.623,1161.588,727.623z"/>
				<path style="fill:#CE7988;" d="M1139.12,816.038c0,0,108.627,16.302,149.212-37.017c0,0-17.157,34.729-65.653,42.974
					C1182.89,828.759,1139.12,816.038,1139.12,816.038z"/>
				
					<linearGradient id="SVGID_00000121254678328282044190000001895411433127186616_" gradientUnits="userSpaceOnUse" x1="1052.0398" y1="834.2296" x2="1088.5717" y2="834.2296" gradientTransform="matrix(-0.7872 0.6166 0.6166 0.7872 1474.6136 -503.9013)">
					<stop  offset="0.016" style="stop-color:#FFFFFF"/>
					<stop  offset="0.9916" style="stop-color:#F29DC8"/>
				</linearGradient>
				<path style="fill:url(#SVGID_00000121254678328282044190000001895411433127186616_);" d="M1154.513,793.422
					c0,0-20.013,13.166-14.918,39.997C1139.595,833.419,1116.673,810.93,1154.513,793.422z"/>
				<path style="fill:#FEB1C8;" d="M954.017,885.399c13.808,4.238,40.459-11.923,40.459-11.923s-3.574,17.288-15.51,17.72
					C967.029,891.627,954.017,885.399,954.017,885.399z"/>
				<path style="fill:#E392AD;" d="M1340.468,833.941c-10.08,44.794-42.714,90.658-80.452,106.597
					c-48.889,20.727-171.425,5.607-213.636-9.513c-14.994-5.355-29.043-20.16-42.904-39.69
					c3.024,2.709,52.354,46.432,140.114,48.574c90.658,2.268,153.911-35.091,167.015-48.7
					C1322.954,878.483,1338.578,838.855,1340.468,833.941z"/>
				
					<linearGradient id="SVGID_00000110461803871497630610000002980709791846988421_" gradientUnits="userSpaceOnUse" x1="1220.3138" y1="574.501" x2="1220.3138" y2="506.7465">
					<stop  offset="0" style="stop-color:#B877B8"/>
					<stop  offset="0.2337" style="stop-color:#9A6DBA"/>
					<stop  offset="0.5605" style="stop-color:#7762BB"/>
					<stop  offset="0.8276" style="stop-color:#615BBD"/>
					<stop  offset="1" style="stop-color:#5958BD"/>
				</linearGradient>
				<path style="fill:url(#SVGID_00000110461803871497630610000002980709791846988421_);" d="M1184.693,574.501
					c0,0-4.606-23.874,0-40.884v28.35c0,0,1.605-31.507,23.133-42.847l-18.477,34.491c0,0,29.187-39.714,44.189-45.958
					c15.002-6.243,22.229,21.644,23.855,25.864c1.626,4.22-0.628,16.214-0.628,16.214S1243.488,533.915,1184.693,574.501z"/>
				
					<linearGradient id="SVGID_00000162320141691144421480000002019041990663792521_" gradientUnits="userSpaceOnUse" x1="989.5758" y1="675.26" x2="989.5758" y2="583.5443" gradientTransform="matrix(0.9967 0.0808 -0.0808 0.9967 97.6964 -95.679)">
					<stop  offset="0" style="stop-color:#B877B8"/>
					<stop  offset="0.2337" style="stop-color:#9A6DBA"/>
					<stop  offset="0.5605" style="stop-color:#7762BB"/>
					<stop  offset="0.8276" style="stop-color:#615BBD"/>
					<stop  offset="1" style="stop-color:#5958BD"/>
				</linearGradient>
				<path style="fill:url(#SVGID_00000162320141691144421480000002019041990663792521_);" d="M1094.576,595.907
					c0,0-21.923-24.313-45.981-29.058l34.578,25.161c0,0-32.386-23.984-49.478-19.982c0,0-12.203-1.249-27.462,13.741
					c-19.52,19.176-36.548,66.697-36.548,66.697S1040.578,603.881,1094.576,595.907z"/>
				
					<linearGradient id="SVGID_00000087384306135890314370000003520982866786342541_" gradientUnits="userSpaceOnUse" x1="1059.6769" y1="929.075" x2="1059.6769" y2="769.1961">
					<stop  offset="0.016" style="stop-color:#FFFFFF"/>
					<stop  offset="0.9916" style="stop-color:#F29DC8"/>
				</linearGradient>
				<path style="opacity:0.4;fill:url(#SVGID_00000087384306135890314370000003520982866786342541_);" d="M976.777,777.43
					c29.047-37.402,106.023,62.072,152.287,109.025c46.265,46.952-27.745,51.222-82.655,31.579
					c-54.91-19.642-45.367-75.539-60.321-101.996C971.136,789.581,976.777,777.43,976.777,777.43z"/>
				<g>
					<path style="fill:#8075BA;" d="M1274.307,582.573l34.375-21.977c0,0-0.368-15.83-6.808-13.778
						c-6.44,2.052-31.216,20.945-31.216,20.945L1274.307,582.573z"/>
					<path style="opacity:0.5;fill:#E15153;" d="M1304.349,681.038c-2.514,3.201-8.391,12.392-11.672,14.376
						c-25.571,15.62-91.483,26.759-99.917-95.065c-1.313-18.437,37.325-40.73,65.532-45.147c-0.758-3.137-1.022-6.406-1.642-9.351
						c-35.224,6.081-76.546,34.972-77.569,47.135c-0.361,4.417,0.222,10.883,1.832,18.693l-0.754-3.073
						c0,0-34.494-11.907-56.976,20.293c-1.467-2.369-2.911-4.353-4.198-5.826c-11.963-13.315-104.377-13.187-145.849,40.267
						c-17.291,22.278,20.608,100.379,58.982,117.023c34.945,15.172,96.53-0.832,108.336-45.901
						c8.542-32.457-0.163-68.818-10.128-91.736c2.799-5.762,18.419-33.738,52.862-21.638c6.106,22.662,18.926,52.11,38.507,73.62
						c24.779,27.208,68.1,23.106,89.665,3.773C1309.2,694.066,1306.508,685.456,1304.349,681.038z M1061.045,776.396
						c-45.863,4.161-95.401-67.474-80.013-102.364c19.488-44.107,112.743-61.456,127.995-36.554
						C1172.548,741.123,1097.076,773.195,1061.045,776.396z"/>
					
						<linearGradient id="SVGID_00000116927512016717604850000013903666411541825171_" gradientUnits="userSpaceOnUse" x1="1295.6866" y1="711.0519" x2="1295.6866" y2="550.1017" gradientTransform="matrix(1 0 0.0619 1.0161 -73.6305 -19.3241)">
						<stop  offset="0" style="stop-color:#26258A"/>
						<stop  offset="1" style="stop-color:#3C2C95"/>
					</linearGradient>
					<path style="fill:url(#SVGID_00000116927512016717604850000013903666411541825171_);" d="M1301.865,546.832
						c-53.71-24.326-112.283,19.397-113.752,36.618c-1.467,17.285,12.618,67.474,42.482,99.547
						c29.864,32.073,81.49,23.203,96.875-7.589C1342.855,644.616,1324.28,556.947,1301.865,546.832z M1301.577,683.701
						c-25.591,15.3-91.519,26.183-99.797-93.081c-2-28.679,65.498-58.255,100.059-30.792
						C1329.114,581.466,1334.155,664.176,1301.577,683.701z"/>
					<path style="fill:#CFC7B8;" d="M1301.577,683.701c-25.591,15.3-91.519,26.183-99.797-93.081
						c-2-28.679,65.498-58.255,100.059-30.792C1329.114,581.466,1334.155,664.176,1301.577,683.701z"/>
					
						<linearGradient id="SVGID_00000046333087499814786650000004982602622889607351_" gradientUnits="userSpaceOnUse" x1="1096.3314" y1="779.0891" x2="1096.3314" y2="615.0994" gradientTransform="matrix(1 0 0.0619 1.0161 -73.6305 -19.3241)">
						<stop  offset="0" style="stop-color:#26258A"/>
						<stop  offset="1" style="stop-color:#3C2C95"/>
					</linearGradient>
					<path style="fill:url(#SVGID_00000046333087499814786650000004982602622889607351_);" d="M1127.978,612.898
						c-11.948-13.059-104.362-12.931-145.904,39.37c-17.318,21.83,20.48,98.266,58.835,114.59
						c34.926,14.853,96.553-0.826,108.418-44.934C1161.187,677.753,1139.926,625.958,1127.978,612.898z M1069.84,762.954
						c-45.867,4.097-95.315-66.066-79.881-100.186c19.542-43.212,112.82-60.176,128.041-35.786
						C1181.39,728.449,1105.874,759.817,1069.84,762.954z"/>
					<path style="fill:#CFC7B8;" d="M1069.84,762.954c-45.867,4.097-95.315-66.066-79.881-100.186
						c19.542-43.212,112.82-60.176,128.041-35.786C1181.39,728.449,1105.874,759.817,1069.84,762.954z"/>
					<path style="fill:#382A8D;" d="M1138.786,633.178c0,0,15.152-35.385,53.375-22.244l-2.977-12.239
						c0,0-34.604-11.675-57.102,19.961L1138.786,633.178z"/>
					
						<linearGradient id="SVGID_00000002354804186434678960000013072329597402064004_" gradientUnits="userSpaceOnUse" x1="974.033" y1="762.0137" x2="974.033" y2="688.2542" gradientTransform="matrix(1 0 0.0619 1.0161 -73.6305 -19.3241)">
						<stop  offset="0" style="stop-color:#26258A"/>
						<stop  offset="1" style="stop-color:#3C2C95"/>
					</linearGradient>
					<path style="fill:url(#SVGID_00000002354804186434678960000013072329597402064004_);" d="M978.892,680.011
						c0,0-13.356,5.299-18.673,9.453c-5.317,4.154-53.95,61.731-53.95,61.731l12.581,3.763c0,0,43.446-41.2,49.87-46.786
						c6.424-5.585,16.533-8.885,16.533-8.885L978.892,680.011z"/>
					<path style="fill:#5CF1FF;" d="M962.023,688.21c-5.426,4.522-3.364,11.876,0.934,15.313c4.297,3.437,19.525-5.003,20.743-7.656
						c1.219-2.654-3.168-15.855-3.168-15.855S965.868,685.006,962.023,688.21z"/>
					<path style="fill:#5CF1FF;" d="M1212.102,633.178c19.491-34.98,71.803,28.024,81.978,38.369
						c10.175,10.345,24.328-10.229,24.328-10.229s-10.869,33.329-54.002,24.933C1221.274,677.855,1212.102,633.178,1212.102,633.178
						z"/>
					<path style="fill:#5CF1FF;" d="M1004.146,707.357c19.491-34.98,71.802,28.024,81.978,38.369
						c10.175,10.345,24.328-10.229,24.328-10.229s-10.87,33.329-54.002,24.933C1013.317,752.034,1004.146,707.357,1004.146,707.357z
						"/>
					<path style="fill:#5CF1FF;" d="M1064.63,610.518c-2.468,1.471,34.342,0.365,46.059,9.008
						c11.717,8.643,25.503,34.065,31.384,32.649c5.882-1.415-5.253-29.768-19.214-39.775
						C1108.898,602.393,1068.805,608.03,1064.63,610.518z"/>
					<path style="fill:#5CF1FF;" d="M1247.726,544.626c-3.593,1.954,25.713-1.668,44.555,6.368
						c18.843,8.036,27.184,34.72,29.002,35.175c1.818,0.455-4.581-31.081-19.815-38.663
						C1286.235,539.926,1259.713,538.106,1247.726,544.626z"/>
					<path style="fill:#FAFBF9;" d="M1317.099,685.617c-8.986,2.904,3.132-20.43,7.666-27.644
						C1329.298,650.76,1333.098,680.448,1317.099,685.617z"/>
					<path style="fill:#FAFBF9;" d="M1136.076,740.169c-7.738,2.5,2.696-17.592,6.601-23.803
						C1146.58,710.154,1149.852,735.717,1136.076,740.169z"/>
				</g>
				<g>
					
						<linearGradient id="SVGID_00000034055574432641655650000012350652562142324129_" gradientUnits="userSpaceOnUse" x1="1157.2595" y1="704.3801" x2="1261.5062" y2="704.3801">
						<stop  offset="0" style="stop-color:#FFB595"/>
						<stop  offset="0.984" style="stop-color:#FFC2A9"/>
					</linearGradient>
					<path style="fill:url(#SVGID_00000034055574432641655650000012350652562142324129_);" d="M1161.403,755.607
						c4.357,10.972,40.939,1.033,64.459-5.781c23.521-6.814,35.357-16.339,35.641-25.312c0.284-8.973-24.224-33.405-43.758-53.259
						c-19.535-19.854-34.856-27.122-47.986-20.756C1156.628,656.866,1153.843,736.57,1161.403,755.607z"/>
					
						<linearGradient id="SVGID_00000071547596042171128520000013530755837115571875_" gradientUnits="userSpaceOnUse" x1="1209.1898" y1="763.7421" x2="1209.1898" y2="666.5119">
						<stop  offset="0.0084" style="stop-color:#F29DC8"/>
						<stop  offset="0.984" style="stop-color:#FFFFFF"/>
					</linearGradient>
					<path style="opacity:0.3;fill:url(#SVGID_00000071547596042171128520000013530755837115571875_);" d="M1253.492,741.103
						c20.517-9.829-6.938-38.876-19.671-46.039c-12.732-7.162-30.501-38.994-53.051-25.067
						c-22.55,13.926-29.832,84.645-16.84,91.463c12.991,6.818,32.839-3.701,44.184-4.883c11.345-1.181,22.922,5.266,34.063-10.218
						L1253.492,741.103z"/>
					
						<linearGradient id="SVGID_00000070817825088934268210000005572661745297918122_" gradientUnits="userSpaceOnUse" x1="1215.4296" y1="765.0511" x2="1215.4296" y2="713.2941">
						<stop  offset="0.0084" style="stop-color:#F29DC8"/>
						<stop  offset="0.984" style="stop-color:#FFFFFF"/>
					</linearGradient>
					<path style="fill:url(#SVGID_00000070817825088934268210000005572661745297918122_);" d="M1244.349,745.691
						c0,0,20.01-8.027,22.343-18.092c2.332-10.065-9.454-8.523-31.401-13.244c-21.947-4.721-36.577,7.065-48.589,20.578
						c-12.012,13.513-23.708,20.219-22.772,26.528c0.937,6.308,24.688,2.974,30.15,0.057c5.461-2.917,6.829-5.661,14.035-4.94
						c7.205,0.721,19.532-2.804,25.013-6.923C1238.608,745.536,1244.349,745.691,1244.349,745.691z"/>
					<path style="opacity:0.5;fill:#E7ECFF;" d="M1247.572,710.274c-19.385-7.168-47.351,6.589-62.431,4.372
						c-15.079-2.217-8.826-23.284,0-35.317c8.826-12.033,28.954,5.482,39.908,14.035
						C1236.003,701.916,1247.572,710.274,1247.572,710.274z"/>
					<path style="fill:#D1A1C8;" d="M1237.326,747.242c6.84-7.612,12.099-10.865,14.929-9.758c4.314,1.688-7.691,9.438-10.079,8.875
						C1239.789,745.796,1237.326,747.242,1237.326,747.242z"/>
					
						<linearGradient id="SVGID_00000014612624716612587310000009402233271827703438_" gradientUnits="userSpaceOnUse" x1="1237.326" y1="719.6073" x2="1264.0033" y2="719.6073">
						<stop  offset="0.0084" style="stop-color:#EA9DC8"/>
						<stop  offset="0.984" style="stop-color:#FFDBD6"/>
					</linearGradient>
					<path style="fill:url(#SVGID_00000014612624716612587310000009402233271827703438_);" d="M1237.326,747.242
						c0,0,15.277-19.743,12.918-30.166c-2.359-10.423-12.336-25.103-12.336-25.103s14.398,13.636,22.961,26.369
						c8.564,12.733-2.143,21.352-11.486,24.67C1240.04,746.33,1237.326,747.242,1237.326,747.242z"/>
					<path style="opacity:0.5;fill:#FEB1C8;" d="M1161.403,758.93c11.141,11.338,37.596,30.151,65.653,26.57
						c28.057-3.581,36.948-60.985,36.948-60.985s-3.524-0.76-12.477-2.173c-8.952-1.413-17.706-15.638-42.337-4.25
						C1190.203,726.87,1179.707,751.969,1161.403,758.93z"/>
					<path style="fill:#D1A1C8;" d="M1195.025,759.723c0,0,7.063-7.262,12.136-9.152c5.073-1.89,5.84,3.383,4.611,4.576
						c-1.229,1.193-7.496,0.497-11.176,2.188C1196.915,759.027,1195.025,759.723,1195.025,759.723z"/>
				</g>
				
					<linearGradient id="SVGID_00000117649439035961019770000008292451075677342636_" gradientUnits="userSpaceOnUse" x1="939.0659" y1="623.4417" x2="1040.0868" y2="623.4417" gradientTransform="matrix(0.9967 0.0808 -0.0808 0.9967 97.6964 -95.679)">
					<stop  offset="0.016" style="stop-color:#FFFFFF"/>
					<stop  offset="0.9916" style="stop-color:#F29DC8"/>
				</linearGradient>
				<path style="fill:url(#SVGID_00000117649439035961019770000008292451075677342636_);" d="M1085.033,596.715
					c0,0-33.692-21.379-55.57-20.1c-21.878,1.279-45.449,37.291-48.119,49.849c-2.67,12.558,26.019-5.872,56.753-15.955
					C1068.832,600.427,1085.033,596.715,1085.033,596.715z"/>
				<path style="fill:#E392AD;" d="M1190.202,570.774c0,0,22.838-53.571,41.751-59.937c17.466-5.879,19.189,20.003,14.636,29.787
					C1242.037,550.408,1225.082,546.101,1190.202,570.774z"/>
				
					<linearGradient id="SVGID_00000065762209543518209230000012665914758058534813_" gradientUnits="userSpaceOnUse" x1="1227.188" y1="857.5021" x2="1227.188" y2="823.3838">
					<stop  offset="0.016" style="stop-color:#FFFFFF"/>
					<stop  offset="0.9916" style="stop-color:#F29DC8"/>
				</linearGradient>
				<path style="fill:url(#SVGID_00000065762209543518209230000012665914758058534813_);" d="M1195.025,835.023
					c0,0,39.205,3.631,64.325-11.639c0,0-3.522,32.233-22.024,34.024C1218.824,859.198,1195.025,835.023,1195.025,835.023z"/>
				<g>
					
						<linearGradient id="SVGID_00000057826847893155868710000003067916212893854357_" gradientUnits="userSpaceOnUse" x1="1082.4618" y1="434.1198" x2="1062.686" y2="309.2602">
						<stop  offset="0" style="stop-color:#3E2987"/>
						<stop  offset="0.5684" style="stop-color:#2C2F90"/>
						<stop  offset="1" style="stop-color:#243294"/>
					</linearGradient>
					<path style="fill:url(#SVGID_00000057826847893155868710000003067916212893854357_);" d="M937.421,429.992
						c0,0,99.893-127.801,189.645-130.031c89.752-2.23,99.516,106.754,90.922,112.535c-8.594,5.781,6.345-86.031-88.923-97.625
						C1055.334,305.898,958.608,399.153,937.421,429.992z"/>
					
						<linearGradient id="SVGID_00000131339596773879281850000006158573140268679852_" gradientUnits="userSpaceOnUse" x1="1087.2765" y1="775.3942" x2="1013.281" y2="308.2047">
						<stop  offset="0" style="stop-color:#3E2987"/>
						<stop  offset="0.5684" style="stop-color:#2C2F90"/>
						<stop  offset="1" style="stop-color:#243294"/>
					</linearGradient>
					<path style="fill:url(#SVGID_00000131339596773879281850000006158573140268679852_);" d="M1273.435,437.792
						c-32.256,28.665-48.322,16.884-48.322,16.884s-10.773,10.017-66.907,14.301c-56.071,4.284-104.455,5.859-104.455,5.859
						c-0.567,14.931-7.371,22.05-7.371,22.05c-23.436-19.089-110.188-33.768-122.348,2.835
						c-12.096,36.603,7.371,108.172,7.371,108.172s-15.498,35.847-17.892,70.435c-2.394,34.65,63.253,99.1,63.253,99.1
						l-7.749,16.695c-14.931-23.877-67.096-40.384-67.096-40.384c-67.726-54.685-77.932-118.378-85.114-176.843
						c-7.119-58.528,88.768-76.42,107.227-127.325c18.522-50.968,69.049-148.052,147.044-149.627
						c71.632-1.449,109.936,80.137,128.585,104.077c1.701,2.142,3.15,3.78,4.536,4.914
						C1220.955,422.672,1273.435,437.792,1273.435,437.792z"/>
					
						<linearGradient id="SVGID_00000159434290849122983600000002708146420984467123_" gradientUnits="userSpaceOnUse" x1="967.6537" y1="469.3589" x2="946.6856" y2="336.9718">
						<stop  offset="0" style="stop-color:#3E2987"/>
						<stop  offset="0.5684" style="stop-color:#2C2F90"/>
						<stop  offset="1" style="stop-color:#243294"/>
					</linearGradient>
					<path style="fill:url(#SVGID_00000159434290849122983600000002708146420984467123_);" d="M940.394,439.369
						c0,0-4.799-40.758,12.509-73.615c17.309-32.856,51.334-32.595,51.329-35.985c0,0-56.701-4.928-76.397,45.383
						c-19.696,50.311-10.146,81.868-16.712,99.6C904.558,492.485,940.394,439.369,940.394,439.369z"/>
					
						<linearGradient id="SVGID_00000174595572680993677120000004169920896067867061_" gradientUnits="userSpaceOnUse" x1="924.2216" y1="428.5612" x2="1273.4351" y2="428.5612">
						<stop  offset="0.016" style="stop-color:#FFFFFF"/>
						<stop  offset="0.9916" style="stop-color:#C2798B"/>
					</linearGradient>
					<path style="fill:url(#SVGID_00000174595572680993677120000004169920896067867061_);" d="M1273.435,437.792
						c-32.256,28.665-48.322,16.884-48.322,16.884s-10.773,10.017-66.907,14.301c-56.071,4.284-104.455,5.859-104.455,5.859
						c-62.371-43.47-125.939-26.334-129.53-25.326c42.399-25.263,112.708,14.364,141.374,15.183
						c28.728,0.756,110.44-14.364,110.44-14.364s-67.474-50.464-120.898-53.299c-53.362-2.835-114.724,42.337-114.724,42.337
						s70.183-78.94,136.775-51.157c66.655,27.783,121.592,31.122,122.474,15.813c1.701,2.142,3.15,3.78,4.536,4.914
						C1220.955,422.672,1273.435,437.792,1273.435,437.792z"/>
					
						<linearGradient id="SVGID_00000029756822767387696460000006262953364839168676_" gradientUnits="userSpaceOnUse" x1="889.1352" y1="742.2577" x2="889.1352" y2="493.4222">
						<stop  offset="0.016" style="stop-color:#FFFFFF"/>
						<stop  offset="0.9916" style="stop-color:#C2798B"/>
					</linearGradient>
					<path style="fill:url(#SVGID_00000029756822767387696460000006262953364839168676_);" d="M927.174,493.422
						c0,0-67.456,76.147-75.176,140.089c-7.721,63.941,36.664,108.747,36.664,108.747s-26.48-83.941-9.171-144.053
						C896.8,538.093,927.174,493.422,927.174,493.422z"/>
					
						<linearGradient id="SVGID_00000065752631880142365040000005356086920456764291_" gradientUnits="userSpaceOnUse" x1="907.1866" y1="749.8259" x2="907.1866" y2="607.9242">
						<stop  offset="0.016" style="stop-color:#FFFFFF"/>
						<stop  offset="0.9916" style="stop-color:#C2798B"/>
					</linearGradient>
					<path style="fill:url(#SVGID_00000065752631880142365040000005356086920456764291_);" d="M931.417,607.924
						c0,0-33.424,29.239-44.764,60.576c-11.34,31.339,7.03,78.302,7.03,78.302l5.09,3.023
						C898.772,749.826,877.701,672.384,931.417,607.924z"/>
					<path style="fill:#E392AD;" d="M947.757,431.854c0,0,58.036-69.831,113.061-83.559c55.025-13.727,83.307,83.559,83.307,83.559
						s-44.538-35.065-98.184-34.841C992.296,397.236,947.757,431.854,947.757,431.854z"/>
					<path style="fill:#E392AD;" d="M927.174,493.422c0,0,7.227-29.936,46.022-38.888c38.795-8.953,73.184,42.353,73.184,42.353
						S998.731,475.012,927.174,493.422z"/>
					<path style="fill:#E392AD;" d="M795.975,606.644c0,0,17.159-59.2,46.405-86.258c29.246-27.058,61.724-29.359,61.724-29.359
						s-42.012,50.012-53.009,66.444c-10.997,16.432-34.291,19.426-34.291,19.426s-8.849,15.635-13.546,22.651
						C798.562,606.565,799.997,608.149,795.975,606.644z"/>
					<path style="opacity:0.5;fill:#FFFFFF;" d="M1047.782,303.373c45.761-1.019,64.281,16.87,73.831,35.969
						c9.55,19.099-46.025,7.136-68.174,11.128c-22.149,3.992,24.992-6.723,45.39-11.128
						C1119.225,334.937,1096.107,299.634,1047.782,303.373z"/>
					<path style="opacity:0.5;fill:#FFFFFF;" d="M1023.857,398.98c34.49-1.942,13.145,25.754-6.892,36.654
						c-20.037,10.899-41.792,5.38-56.905,5.475c-15.115,0.096,37.806-4.679,58.894-18.605
						C1040.043,408.576,1023.857,398.98,1023.857,398.98z"/>
				</g>
				<path style="opacity:0.2;fill:#E392AD;" d="M1008.562,776.774c-70.458-17.612-8.458,50.515,45.88,79.564
					C1108.78,885.388,1057.955,789.121,1008.562,776.774z"/>
			</g>
			<path style="fill:#A46BAD;" d="M1697.535,895.603c0,0,47.587,8.847,53.755,73.361l-11.712,0.24c0,0-1.688-21.073-6.394-38.63
				C1728.447,912.903,1697.535,895.603,1697.535,895.603z"/>
			<path style="opacity:0.5;fill:#FFFFFF;" d="M1190.338,1265.938c-37.162-14.431,40.611-42.305,62.738-71.431
				c22.127-29.126,26.305-80.455,31.676-79.858c5.371,0.597,25.068,51.329-3.581,106.24
				C1252.522,1275.799,1190.338,1265.938,1190.338,1265.938z"/>
			<path style="opacity:0.3;fill:#FFFFFF;" d="M995.877,1636.888c-10.272,72.695,33.854,35.219,59.9-6.56
				c26.047-41.779,29.778-110.901,29.404-118.12c-0.374-7.219-41.773,28.972-57.481,45.195S998.998,1614.798,995.877,1636.888z"/>
			<path style="opacity:0.5;fill:#FFFFFF;" d="M1878.369,1222.467c-9.828,5.481-24.823,10.017-45.739,6.552
				c-42.4-7.056-48.889-52.291-48.889-52.291c0.567-3.591,9.576-3.465,9.576-3.465s-2.331,17.325,1.953,24.318
				c22.491,37.044,76.798,22.68,75.979,9.954c-0.819-12.726-2.835-13.041-2.835-13.041l1.008-10.269
				C1869.422,1184.226,1887.063,1191.471,1878.369,1222.467z"/>
			<path style="fill:#E392AD;" d="M1792.737,1185.884c0,0,10.356,27.317,37.912,29.932s37.766-21.321,37.766-21.321l-2.928,21.52
				C1865.487,1216.015,1804.143,1241.003,1792.737,1185.884z"/>
			<path style="opacity:0.5;fill:#E392AD;" d="M914.307,1601.082c0,0-51.988-10.052-117.164,38.527
				c-42.306,31.533,71.665-42.418,117.118-128.77c24.571-46.68-22.154-117.606-7.912-130.591
				c40.586-37.005,60.461,195.633,60.461,195.633L914.307,1601.082z"/>
			<path style="opacity:0.2;fill:#FFFFFF;" d="M947.715,1278.327c1.751,19.104,34.235,19.555,66.863-5.115
				c32.628-24.67,37.801-167.118,40.188-173.484c2.387-6.366-44.308,58.273-64.147,87.746
				C970.779,1216.948,946.506,1265.137,947.715,1278.327z"/>
			<path style="fill:#5E4FB8;" d="M1467.94,1287.314c-2.94,9.375,28.356,159.126,23.451,232.27
				c-4.904,73.143-49.056,240.596-49.056,240.596s77.497-270.509,66.793-355.66C1498.424,1319.37,1467.94,1287.314,1467.94,1287.314
				z"/>
			<path style="fill:#5E4FB8;" d="M963.676,1545.351c0,0-3.321-103.794,3.134-150.697c6.454-46.904,27.544-82.084,27.544-82.084
				s-33.426,51.13-41.144,86.518C945.492,1434.476,963.676,1545.351,963.676,1545.351z"/>
			<path style="fill:#5E4FB8;" d="M926.642,1295.793c7.56-9.848,34.617,4.874,58.491,1.692
				c23.874-3.183,44.963-19.158,44.963-19.158s-39.352,36.125-49.34,36.665C970.768,1315.533,933.406,1300.071,926.642,1295.793z"/>
			<path style="fill:#6A5CD4;" d="M1765.17,1367.117c0,0,66.296,88.165,100.317,108.94c34.02,20.775,51.636,3.389,57.098,10.196
				c5.463,6.808,4.168,25.954,4.168,25.954S1805.909,1481.712,1765.17,1367.117z"/>
			<path style="opacity:0.5;fill:#FFBB9A;" d="M1167.769,1760.179c-15.153,11.42,35.042,248.558,71.835,319.281
				c36.792,70.724,107.084-201.279,109.992-277.836c2.907-76.558-73.2,95.496-114.979,79.978
				C1192.837,1866.083,1192.694,1741.395,1167.769,1760.179z"/>
			<path style="fill:#5E4FB8;" d="M1296.355,1030.281c0,0,134.524,85.914,176.254,113.89
				C1472.609,1144.171,1411.809,1067.471,1296.355,1030.281z"/>
			<path style="fill:#D07CAD;" d="M899.612,2520.031c0,0,0.37-49.936,4.35-57.099c3.979-7.162,20.097,59.061,20.097,59.061
				L899.612,2520.031z"/>
			<path style="fill:#D07CAD;" d="M1561.292,2520.031c0,0,0-83.36-6.367-88.931c-6.366-5.571-22.126,90.458-22.126,90.458
				L1561.292,2520.031z"/>
			<path style="fill:#4BFFFF;" d="M730.025,1929.349c0,0-27.455-140.693-11.087-251.309
				c16.368-110.616,116.982-325.248,116.982-325.248s-116.487,192.186-131.059,336.623S730.025,1929.349,730.025,1929.349z"/>
			<path style="fill:#4BFFFF;" d="M835.921,1352.793c7.163,2.388-4.775-31.651,26.261-43.57
				c31.036-11.919-19.824-69.9-27.221-92.248c-7.396-22.347,75.631-47.738,75.631-47.738s-58.88,13.591-91.246,37.993
				C819.346,1207.231,806.079,1225.067,835.921,1352.793z"/>
			<path style="fill:#4BFFFF;" d="M1513.787,1024.008c0,0,74.663-6.247,97.691,9.669s17.349,127.744,17.357,144.068
				c0.008,16.323,16.139,14.035,22.979,24.001c31.036,45.217,32.213,105.1,42.717,111.032c10.504,5.932,25.92,24.497,25.92,24.497
				l-66.847-142.05c0,0,1.591-145.228-37.403-175.273C1616.202,1019.952,1584.963,1014.051,1513.787,1024.008z"/>
			<path style="fill:#4BFFFF;" d="M849.361,2446.785c-30.273-17.553,46.046-164.498,70.517-250.444
				c24.471-85.947,15.111-171.495,15.111-171.495s-18.345,133.006-50.148,237.031c-31.803,104.024-59.219,159.224-76.352,184.318
				C808.489,2446.195,838.529,2451.329,849.361,2446.785z"/>
			<path style="fill:#4BFFFF;" d="M1603.599,1616.047c0,0,67.266,87.332,110.275,85.306c43.009-2.026,182.45-143.663,182.45-143.663
				s-119.197,141.885-171.111,163.365c0,0-19.476,6.286-44.945-13.274C1654.799,1688.222,1603.599,1616.047,1603.599,1616.047z"/>
			<path style="fill:#4BFFFF;" d="M1585.166,2279.498c-11.937-12.331,40.586-49.443,49.34-124.718
				c8.754-75.275-11.59-210.92-11.59-210.92s28.542,119.806,20.066,230.211C1634.506,2284.475,1585.166,2279.498,1585.166,2279.498z
				"/>
			<path style="opacity:0.8;fill:#B892AD;" d="M1561.664,1535.455c0,0,45.696,126.505,92.693,126.505
				c46.996,0,128.372-132.633,122.934-155.495c-5.438-22.862-55.472-135.767-61.527-150.092
				c-6.055-14.324-58.349,42.714-58.349,42.714s-7.199-57.12-30.572-13.509c-23.373,43.611-36.503-131.863-59.184-133.056
				C1544.978,1251.329,1535.376,1429.242,1561.664,1535.455z"/>
		</g>
	</g>
</g>
</svg>
