<?xml version="1.0" encoding="utf-8"?>
<!-- Generator: Adobe Illustrator 27.5.0, SVG Export Plug-In . SVG Version: 6.00 Build 0)  -->
<svg version="1.1" xmlns="http://www.w3.org/2000/svg" xmlns:xlink="http://www.w3.org/1999/xlink" x="0px" y="0px"
	 viewBox="0 0 500 500" style="enable-background:new 0 0 500 500;" xml:space="preserve">
<g id="Background_Complete">
	<g>
		<rect y="382.398" style="fill:#EBEBEB;" width="500" height="0.25"/>
		<rect x="416.779" y="398.494" style="fill:#EBEBEB;" width="33.122" height="0.25"/>
		<rect x="322.527" y="401.208" style="fill:#EBEBEB;" width="8.693" height="0.25"/>
		<rect x="396.586" y="389.208" style="fill:#EBEBEB;" width="19.192" height="0.25"/>
		<rect x="52.459" y="390.888" style="fill:#EBEBEB;" width="43.193" height="0.25"/>
		<rect x="104.556" y="390.888" style="fill:#EBEBEB;" width="6.333" height="0.25"/>
		<rect x="131.471" y="395.111" style="fill:#EBEBEB;" width="93.676" height="0.25"/>
		<path style="fill:#EBEBEB;" d="M237.014,337.8H43.915c-3.147,0-5.708-2.561-5.708-5.708V60.66c0-3.147,2.561-5.708,5.708-5.708
			h193.099c3.146,0,5.707,2.561,5.707,5.708v271.432C242.721,335.239,240.16,337.8,237.014,337.8z M43.915,55.203
			c-3.01,0-5.458,2.448-5.458,5.458v271.432c0,3.01,2.448,5.458,5.458,5.458h193.099c3.009,0,5.457-2.448,5.457-5.458V60.66
			c0-3.009-2.448-5.458-5.457-5.458H43.915z"/>
		<path style="fill:#EBEBEB;" d="M453.31,337.8H260.212c-3.147,0-5.707-2.561-5.707-5.708V60.66c0-3.147,2.561-5.708,5.707-5.708
			H453.31c3.148,0,5.708,2.561,5.708,5.708v271.432C459.019,335.239,456.458,337.8,453.31,337.8z M260.212,55.203
			c-3.009,0-5.457,2.448-5.457,5.458v271.432c0,3.01,2.448,5.458,5.457,5.458H453.31c3.01,0,5.458-2.448,5.458-5.458V60.66
			c0-3.009-2.448-5.458-5.458-5.458H260.212z"/>
	</g>
	<g>
		<g>
			<g>
				
					<rect x="281.052" y="97.888" transform="matrix(-1 -1.224647e-16 1.224647e-16 -1 630.1977 427.8471)" style="fill:#FAFAFA;" width="68.093" height="232.07"/>
				
					<rect x="279.481" y="94.739" transform="matrix(-1 -1.224647e-16 1.224647e-16 -1 630.1975 200.8661)" style="fill:#F0F0F0;" width="71.236" height="11.388"/>
				<g>
					
						<rect x="279.481" y="107.389" transform="matrix(-1 -1.224647e-16 1.224647e-16 -1 630.1975 220.4716)" style="fill:#F0F0F0;" width="71.236" height="5.694"/>
					
						<rect x="279.481" y="115.84" transform="matrix(-1 -1.224647e-16 1.224647e-16 -1 630.1975 237.3733)" style="fill:#F0F0F0;" width="71.236" height="5.694"/>
					
						<rect x="279.481" y="124.29" transform="matrix(-1 -1.224647e-16 1.224647e-16 -1 630.1975 254.2752)" style="fill:#F0F0F0;" width="71.236" height="5.694"/>
					
						<rect x="279.481" y="132.741" transform="matrix(-1 -1.224647e-16 1.224647e-16 -1 630.1975 271.1769)" style="fill:#F0F0F0;" width="71.236" height="5.694"/>
					
						<rect x="279.481" y="141.192" transform="matrix(-1 -1.224647e-16 1.224647e-16 -1 630.1975 288.0787)" style="fill:#F0F0F0;" width="71.236" height="5.694"/>
					
						<rect x="279.481" y="149.643" transform="matrix(-1 -1.224647e-16 1.224647e-16 -1 630.1975 304.9804)" style="fill:#F0F0F0;" width="71.236" height="5.694"/>
					
						<rect x="279.481" y="158.094" transform="matrix(-1 -1.224647e-16 1.224647e-16 -1 630.1975 321.8822)" style="fill:#F0F0F0;" width="71.236" height="5.694"/>
					
						<rect x="279.481" y="166.545" transform="matrix(-1 -1.224647e-16 1.224647e-16 -1 630.1975 338.7839)" style="fill:#F0F0F0;" width="71.236" height="5.694"/>
					
						<rect x="279.481" y="174.996" transform="matrix(-1 -1.224647e-16 1.224647e-16 -1 630.1975 355.6858)" style="fill:#F0F0F0;" width="71.236" height="5.694"/>
					
						<rect x="279.481" y="183.447" transform="matrix(-1 -1.224647e-16 1.224647e-16 -1 630.1975 372.5874)" style="fill:#F0F0F0;" width="71.236" height="5.694"/>
					
						<rect x="279.481" y="191.898" transform="matrix(-1 -1.224647e-16 1.224647e-16 -1 630.1975 389.4893)" style="fill:#F0F0F0;" width="71.236" height="5.694"/>
					
						<rect x="279.481" y="200.348" transform="matrix(-1 -1.224647e-16 1.224647e-16 -1 630.1975 406.391)" style="fill:#F0F0F0;" width="71.236" height="5.694"/>
					
						<rect x="279.481" y="208.799" transform="matrix(-1 -1.224647e-16 1.224647e-16 -1 630.1975 423.2928)" style="fill:#F0F0F0;" width="71.236" height="5.694"/>
					
						<rect x="279.481" y="217.25" transform="matrix(-1 -1.224647e-16 1.224647e-16 -1 630.1975 440.1946)" style="fill:#F0F0F0;" width="71.236" height="5.694"/>
					
						<rect x="279.481" y="225.701" transform="matrix(-1 -1.224647e-16 1.224647e-16 -1 630.1975 457.0963)" style="fill:#F0F0F0;" width="71.236" height="5.694"/>
					
						<rect x="279.481" y="234.152" transform="matrix(-1 -1.224647e-16 1.224647e-16 -1 630.1975 473.9982)" style="fill:#F0F0F0;" width="71.236" height="5.694"/>
					
						<rect x="279.481" y="242.603" transform="matrix(-1 -1.224647e-16 1.224647e-16 -1 630.1975 490.8998)" style="fill:#F0F0F0;" width="71.236" height="5.694"/>
					
						<rect x="279.481" y="251.054" transform="matrix(-1 -1.224647e-16 1.224647e-16 -1 630.1975 507.8017)" style="fill:#F0F0F0;" width="71.236" height="5.694"/>
					
						<rect x="279.481" y="259.505" transform="matrix(-1 -1.224647e-16 1.224647e-16 -1 630.1975 524.7034)" style="fill:#F0F0F0;" width="71.236" height="5.694"/>
					
						<rect x="279.481" y="267.956" transform="matrix(-1 -1.224647e-16 1.224647e-16 -1 630.1975 541.6052)" style="fill:#F0F0F0;" width="71.236" height="5.694"/>
					
						<rect x="279.481" y="276.406" transform="matrix(-1 -1.224647e-16 1.224647e-16 -1 630.1975 558.5069)" style="fill:#F0F0F0;" width="71.236" height="5.694"/>
					
						<rect x="279.481" y="284.857" transform="matrix(-1 -1.224647e-16 1.224647e-16 -1 630.1975 575.4087)" style="fill:#F0F0F0;" width="71.236" height="5.694"/>
					
						<rect x="279.481" y="293.308" transform="matrix(-1 -1.224647e-16 1.224647e-16 -1 630.1975 592.3104)" style="fill:#F0F0F0;" width="71.236" height="5.694"/>
					
						<rect x="279.481" y="301.759" transform="matrix(-1 -1.224647e-16 1.224647e-16 -1 630.1975 609.2123)" style="fill:#F0F0F0;" width="71.236" height="5.694"/>
					
						<rect x="279.481" y="310.21" transform="matrix(-1 -1.224647e-16 1.224647e-16 -1 630.1975 626.114)" style="fill:#F0F0F0;" width="71.236" height="5.694"/>
					
						<rect x="279.481" y="318.661" transform="matrix(-1 -1.224647e-16 1.224647e-16 -1 630.1975 643.0158)" style="fill:#F0F0F0;" width="71.236" height="5.694"/>
					
						<rect x="279.481" y="327.112" transform="matrix(-1 -1.224647e-16 1.224647e-16 -1 630.1975 659.9175)" style="fill:#F0F0F0;" width="71.236" height="5.694"/>
				</g>
			</g>
			<g>
				
					<rect x="366.16" y="97.888" transform="matrix(-1 -1.224647e-16 1.224647e-16 -1 800.4127 427.8471)" style="fill:#FAFAFA;" width="68.093" height="232.07"/>
				
					<rect x="364.589" y="94.739" transform="matrix(-1 -1.224647e-16 1.224647e-16 -1 800.4127 200.8661)" style="fill:#F0F0F0;" width="71.236" height="11.388"/>
				<g>
					
						<rect x="364.589" y="107.389" transform="matrix(-1 -1.224647e-16 1.224647e-16 -1 800.4127 220.4716)" style="fill:#F0F0F0;" width="71.236" height="5.694"/>
					
						<rect x="364.589" y="115.84" transform="matrix(-1 -1.224647e-16 1.224647e-16 -1 800.4127 237.3733)" style="fill:#F0F0F0;" width="71.236" height="5.694"/>
					
						<rect x="364.589" y="124.29" transform="matrix(-1 -1.224647e-16 1.224647e-16 -1 800.4127 254.2752)" style="fill:#F0F0F0;" width="71.236" height="5.694"/>
					
						<rect x="364.589" y="132.741" transform="matrix(-1 -1.224647e-16 1.224647e-16 -1 800.4127 271.1769)" style="fill:#F0F0F0;" width="71.236" height="5.694"/>
					
						<rect x="364.589" y="141.192" transform="matrix(-1 -1.224647e-16 1.224647e-16 -1 800.4127 288.0787)" style="fill:#F0F0F0;" width="71.236" height="5.694"/>
					
						<rect x="364.589" y="149.643" transform="matrix(-1 -1.224647e-16 1.224647e-16 -1 800.4127 304.9804)" style="fill:#F0F0F0;" width="71.236" height="5.694"/>
					
						<rect x="364.589" y="158.094" transform="matrix(-1 -1.224647e-16 1.224647e-16 -1 800.4127 321.8822)" style="fill:#F0F0F0;" width="71.236" height="5.694"/>
					
						<rect x="364.589" y="166.545" transform="matrix(-1 -1.224647e-16 1.224647e-16 -1 800.4127 338.7839)" style="fill:#F0F0F0;" width="71.236" height="5.694"/>
					
						<rect x="364.589" y="174.996" transform="matrix(-1 -1.224647e-16 1.224647e-16 -1 800.4127 355.6858)" style="fill:#F0F0F0;" width="71.236" height="5.694"/>
					
						<rect x="364.589" y="183.447" transform="matrix(-1 -1.224647e-16 1.224647e-16 -1 800.4127 372.5874)" style="fill:#F0F0F0;" width="71.236" height="5.694"/>
					
						<rect x="364.589" y="191.898" transform="matrix(-1 -1.224647e-16 1.224647e-16 -1 800.4127 389.4893)" style="fill:#F0F0F0;" width="71.236" height="5.694"/>
					
						<rect x="364.589" y="200.348" transform="matrix(-1 -1.224647e-16 1.224647e-16 -1 800.4127 406.391)" style="fill:#F0F0F0;" width="71.236" height="5.694"/>
					
						<rect x="364.589" y="208.799" transform="matrix(-1 -1.224647e-16 1.224647e-16 -1 800.4127 423.2928)" style="fill:#F0F0F0;" width="71.236" height="5.694"/>
					
						<rect x="364.589" y="217.25" transform="matrix(-1 -1.224647e-16 1.224647e-16 -1 800.4127 440.1946)" style="fill:#F0F0F0;" width="71.236" height="5.694"/>
					
						<rect x="364.589" y="225.701" transform="matrix(-1 -1.224647e-16 1.224647e-16 -1 800.4127 457.0963)" style="fill:#F0F0F0;" width="71.236" height="5.694"/>
					
						<rect x="364.589" y="234.152" transform="matrix(-1 -1.224647e-16 1.224647e-16 -1 800.4127 473.9982)" style="fill:#F0F0F0;" width="71.236" height="5.694"/>
					
						<rect x="364.589" y="242.603" transform="matrix(-1 -1.224647e-16 1.224647e-16 -1 800.4127 490.8998)" style="fill:#F0F0F0;" width="71.236" height="5.694"/>
					
						<rect x="364.589" y="251.054" transform="matrix(-1 -1.224647e-16 1.224647e-16 -1 800.4127 507.8017)" style="fill:#F0F0F0;" width="71.236" height="5.694"/>
					
						<rect x="364.589" y="259.505" transform="matrix(-1 -1.224647e-16 1.224647e-16 -1 800.4127 524.7034)" style="fill:#F0F0F0;" width="71.236" height="5.694"/>
					
						<rect x="364.589" y="267.956" transform="matrix(-1 -1.224647e-16 1.224647e-16 -1 800.4127 541.6052)" style="fill:#F0F0F0;" width="71.236" height="5.694"/>
					
						<rect x="364.589" y="276.406" transform="matrix(-1 -1.224647e-16 1.224647e-16 -1 800.4127 558.5069)" style="fill:#F0F0F0;" width="71.236" height="5.694"/>
					
						<rect x="364.589" y="284.857" transform="matrix(-1 -1.224647e-16 1.224647e-16 -1 800.4127 575.4087)" style="fill:#F0F0F0;" width="71.236" height="5.694"/>
					
						<rect x="364.589" y="293.308" transform="matrix(-1 -1.224647e-16 1.224647e-16 -1 800.4127 592.3104)" style="fill:#F0F0F0;" width="71.236" height="5.694"/>
					
						<rect x="364.589" y="301.759" transform="matrix(-1 -1.224647e-16 1.224647e-16 -1 800.4127 609.2123)" style="fill:#F0F0F0;" width="71.236" height="5.694"/>
					
						<rect x="364.589" y="310.21" transform="matrix(-1 -1.224647e-16 1.224647e-16 -1 800.4127 626.114)" style="fill:#F0F0F0;" width="71.236" height="5.694"/>
					
						<rect x="364.589" y="318.661" transform="matrix(-1 -1.224647e-16 1.224647e-16 -1 800.4127 643.0158)" style="fill:#F0F0F0;" width="71.236" height="5.694"/>
					
						<rect x="364.589" y="327.112" transform="matrix(-1 -1.224647e-16 1.224647e-16 -1 800.4127 659.9175)" style="fill:#F0F0F0;" width="71.236" height="5.694"/>
				</g>
			</g>
			<g>
				
					<rect x="154.537" y="99.312" transform="matrix(-1 -1.224647e-16 1.224647e-16 -1 377.1664 430.6943)" style="fill:#FAFAFA;" width="68.093" height="232.07"/>
				
					<rect x="152.965" y="96.162" transform="matrix(-1 -1.224647e-16 1.224647e-16 -1 377.1663 203.7131)" style="fill:#F0F0F0;" width="71.236" height="11.388"/>
				<g>
					
						<rect x="152.965" y="108.812" transform="matrix(-1 -1.224647e-16 1.224647e-16 -1 377.1663 218.672)" style="fill:#F0F0F0;" width="71.236" height="1.047"/>
					
						<rect x="152.965" y="111.19" transform="matrix(-1 -1.224647e-16 1.224647e-16 -1 377.1663 223.4276)" style="fill:#F0F0F0;" width="71.236" height="1.048"/>
					
						<rect x="152.965" y="113.568" transform="matrix(-1 -1.224647e-16 1.224647e-16 -1 377.1663 228.183)" style="fill:#F0F0F0;" width="71.236" height="1.048"/>
					
						<rect x="152.965" y="115.946" transform="matrix(-1 -1.224647e-16 1.224647e-16 -1 377.1663 232.9385)" style="fill:#F0F0F0;" width="71.236" height="1.048"/>
					
						<rect x="152.965" y="118.323" transform="matrix(-1 -1.224647e-16 1.224647e-16 -1 377.1663 237.6939)" style="fill:#F0F0F0;" width="71.236" height="1.048"/>
					
						<rect x="152.965" y="120.701" transform="matrix(-1 -1.224647e-16 1.224647e-16 -1 377.1663 242.4493)" style="fill:#F0F0F0;" width="71.236" height="1.048"/>
					
						<rect x="152.965" y="123.079" transform="matrix(-1 -1.224647e-16 1.224647e-16 -1 377.1663 247.2047)" style="fill:#F0F0F0;" width="71.236" height="1.048"/>
					
						<rect x="152.965" y="125.456" transform="matrix(-1 -1.224647e-16 1.224647e-16 -1 377.1663 251.9602)" style="fill:#F0F0F0;" width="71.236" height="1.048"/>
					
						<rect x="152.965" y="127.834" transform="matrix(-1 -1.224647e-16 1.224647e-16 -1 377.1663 256.7156)" style="fill:#F0F0F0;" width="71.236" height="1.048"/>
					
						<rect x="152.965" y="130.212" transform="matrix(-1 -1.224647e-16 1.224647e-16 -1 377.1663 261.4711)" style="fill:#F0F0F0;" width="71.236" height="1.048"/>
					
						<rect x="152.965" y="132.589" transform="matrix(-1 -1.224647e-16 1.224647e-16 -1 377.1663 266.2265)" style="fill:#F0F0F0;" width="71.236" height="1.048"/>
					
						<rect x="152.965" y="134.967" transform="matrix(-1 -1.224647e-16 1.224647e-16 -1 377.1663 270.9819)" style="fill:#F0F0F0;" width="71.236" height="1.048"/>
					
						<rect x="152.965" y="137.345" transform="matrix(-1 -1.224647e-16 1.224647e-16 -1 377.1663 275.7374)" style="fill:#F0F0F0;" width="71.236" height="1.048"/>
					
						<rect x="152.965" y="139.723" transform="matrix(-1 -1.224647e-16 1.224647e-16 -1 377.1663 280.4928)" style="fill:#F0F0F0;" width="71.236" height="1.048"/>
					
						<rect x="152.965" y="142.1" transform="matrix(-1 -1.224647e-16 1.224647e-16 -1 377.1663 285.2482)" style="fill:#F0F0F0;" width="71.236" height="1.048"/>
					
						<rect x="152.965" y="144.478" transform="matrix(-1 -1.224647e-16 1.224647e-16 -1 377.1663 290.0037)" style="fill:#F0F0F0;" width="71.236" height="1.048"/>
					
						<rect x="152.965" y="146.856" transform="matrix(-1 -1.224647e-16 1.224647e-16 -1 377.1663 294.7591)" style="fill:#F0F0F0;" width="71.236" height="1.048"/>
					
						<rect x="152.965" y="149.234" transform="matrix(-1 -1.224647e-16 1.224647e-16 -1 377.1663 299.5145)" style="fill:#F0F0F0;" width="71.236" height="1.048"/>
				</g>
			</g>
			<g>
				
					<rect x="69.429" y="99.312" transform="matrix(-1 -1.224647e-16 1.224647e-16 -1 206.9512 430.6943)" style="fill:#FAFAFA;" width="68.093" height="232.07"/>
				
					<rect x="67.858" y="96.162" transform="matrix(-1 -1.224647e-16 1.224647e-16 -1 206.9512 203.7131)" style="fill:#F0F0F0;" width="71.236" height="11.388"/>
				<g>
					
						<rect x="67.858" y="108.812" transform="matrix(-1 -1.224647e-16 1.224647e-16 -1 206.9512 218.672)" style="fill:#F0F0F0;" width="71.236" height="1.047"/>
					
						<rect x="67.858" y="111.19" transform="matrix(-1 -1.224647e-16 1.224647e-16 -1 206.9512 223.4276)" style="fill:#F0F0F0;" width="71.236" height="1.048"/>
					
						<rect x="67.858" y="113.568" transform="matrix(-1 -1.224647e-16 1.224647e-16 -1 206.9512 228.183)" style="fill:#F0F0F0;" width="71.236" height="1.048"/>
					
						<rect x="67.858" y="115.946" transform="matrix(-1 -1.224647e-16 1.224647e-16 -1 206.9512 232.9385)" style="fill:#F0F0F0;" width="71.236" height="1.048"/>
					
						<rect x="67.858" y="118.323" transform="matrix(-1 -1.224647e-16 1.224647e-16 -1 206.9512 237.6939)" style="fill:#F0F0F0;" width="71.236" height="1.048"/>
					
						<rect x="67.858" y="120.701" transform="matrix(-1 -1.224647e-16 1.224647e-16 -1 206.9512 242.4493)" style="fill:#F0F0F0;" width="71.236" height="1.048"/>
					
						<rect x="67.858" y="123.079" transform="matrix(-1 -1.224647e-16 1.224647e-16 -1 206.9512 247.2047)" style="fill:#F0F0F0;" width="71.236" height="1.048"/>
					
						<rect x="67.858" y="125.456" transform="matrix(-1 -1.224647e-16 1.224647e-16 -1 206.9512 251.9602)" style="fill:#F0F0F0;" width="71.236" height="1.048"/>
					
						<rect x="67.858" y="127.834" transform="matrix(-1 -1.224647e-16 1.224647e-16 -1 206.9512 256.7156)" style="fill:#F0F0F0;" width="71.236" height="1.048"/>
					
						<rect x="67.858" y="130.212" transform="matrix(-1 -1.224647e-16 1.224647e-16 -1 206.9512 261.4711)" style="fill:#F0F0F0;" width="71.236" height="1.048"/>
					
						<rect x="67.858" y="132.589" transform="matrix(-1 -1.224647e-16 1.224647e-16 -1 206.9512 266.2265)" style="fill:#F0F0F0;" width="71.236" height="1.048"/>
					
						<rect x="67.858" y="134.967" transform="matrix(-1 -1.224647e-16 1.224647e-16 -1 206.9512 270.9819)" style="fill:#F0F0F0;" width="71.236" height="1.048"/>
					
						<rect x="67.858" y="137.345" transform="matrix(-1 -1.224647e-16 1.224647e-16 -1 206.9512 275.7374)" style="fill:#F0F0F0;" width="71.236" height="1.048"/>
					
						<rect x="67.858" y="139.723" transform="matrix(-1 -1.224647e-16 1.224647e-16 -1 206.9512 280.4928)" style="fill:#F0F0F0;" width="71.236" height="1.048"/>
					
						<rect x="67.858" y="142.1" transform="matrix(-1 -1.224647e-16 1.224647e-16 -1 206.9512 285.2482)" style="fill:#F0F0F0;" width="71.236" height="1.048"/>
					
						<rect x="67.858" y="144.478" transform="matrix(-1 -1.224647e-16 1.224647e-16 -1 206.9512 290.0037)" style="fill:#F0F0F0;" width="71.236" height="1.048"/>
					
						<rect x="67.858" y="146.856" transform="matrix(-1 -1.224647e-16 1.224647e-16 -1 206.9512 294.7591)" style="fill:#F0F0F0;" width="71.236" height="1.048"/>
					
						<rect x="67.858" y="149.234" transform="matrix(-1 -1.224647e-16 1.224647e-16 -1 206.9512 299.5145)" style="fill:#F0F0F0;" width="71.236" height="1.048"/>
				</g>
			</g>
		</g>
		<g>
			<path style="fill:#E0E0E0;" d="M251.203,360.295c0,0-4.743-10.349,0.676-20.552c5.42-10.203,6.991-12.606,3.536-14.696
				c-3.455-2.09-5.04,8.162-5.04,8.162s-2.912-7.053-0.508-14.434c2.405-7.381,3.913-19.403,0.629-20.693
				c-3.284-1.29-0.627,14.998-3.476,20.549c0,0-2.393-6.18-2.787-12.109c-0.394-5.928,0.221-15.395-2.372-17.824
				c-2.593-2.428-4.255-0.748-1.706,12.335c2.549,13.083,2.53,23.718,2.53,23.718s-5.629-17.162-9.406-17.663
				c-3.778-0.501-3.773,5.057-0.539,9.878c3.234,4.821,9.47,13.457,10.493,17.9c0,0-6.179-12.915-11.736-8.957
				c-5.558,3.958,4.838,11.76,9.471,14.578c4.633,2.819,7.851,20.489,7.851,20.489L251.203,360.295z"/>
			<path style="fill:#EBEBEB;" d="M247.458,364.539c0,0,4.619-10.419-0.923-20.54c-5.542-10.121-7.141-12.5-3.712-14.642
				c3.429-2.141,5.137,8.086,5.137,8.086s2.827-7.096,0.334-14.44c-2.493-7.345-4.145-19.343-0.877-20.682
				c3.268-1.338,0.807,14.987,3.722,20.496c0,0,2.319-6.215,2.642-12.149c0.323-5.934-0.406-15.391,2.158-17.857
				c2.564-2.467,4.245-0.812,1.854,12.308c-2.391,13.12-2.245,23.754-2.245,23.754s5.422-17.245,9.194-17.801
				c3.771-0.557,3.833,5.001,0.658,9.869c-3.176,4.868-9.308,13.597-10.277,18.055c0,0,6.023-13.006,11.628-9.131
				c5.605,3.875-4.696,11.831-9.295,14.718c-4.599,2.888-7.604,20.604-7.604,20.604L247.458,364.539z"/>
			<g>
				<polygon style="fill:#EBEBEB;" points="268.762,357.112 230.605,357.112 233.693,384.417 265.674,384.417 				"/>
			</g>
		</g>
	</g>
</g>
<g id="Background_Simple" style="display:none;">
	<g style="display:inline;">
		<path style="fill:#407BFF;" d="M115.323,150.99c12.754-39.216,61.901-60.716,98.818-68.461
			c43.449-9.115,90.744-4.469,131.109,14.254c21.795,10.109,41.301,26.882,50.5,49.076c9.081,21.91,5.092,46.787-8.054,66.162
			c-15.568,22.944-41.537,30.187-64.064,44.55c-4.633,2.954-9.269,6.099-12.677,10.411c-18.24,23.082,4.076,57.917,7.714,82.409
			c3.357,22.611-12.255,36.88-33.099,41.887c-53.934,12.953-149.34,2.916-137.227-74.549c4.186-26.771,28.077-45.912,38.088-70.631
			c14.523-35.861-47.209-33.759-63.506-50.411c-9.004-9.2-11.974-23.195-9.784-35.88
			C113.664,156.773,114.397,153.835,115.323,150.99z"/>
		<path style="opacity:0.9;fill:#FFFFFF;" d="M115.323,150.99c12.754-39.216,61.901-60.716,98.818-68.461
			c43.449-9.115,90.744-4.469,131.109,14.254c21.795,10.109,41.301,26.882,50.5,49.076c9.081,21.91,5.092,46.787-8.054,66.162
			c-15.568,22.944-41.537,30.187-64.064,44.55c-4.633,2.954-9.269,6.099-12.677,10.411c-18.24,23.082,4.076,57.917,7.714,82.409
			c3.357,22.611-12.255,36.88-33.099,41.887c-53.934,12.953-149.34,2.916-137.227-74.549c4.186-26.771,28.077-45.912,38.088-70.631
			c14.523-35.861-47.209-33.759-63.506-50.411c-9.004-9.2-11.974-23.195-9.784-35.88
			C113.664,156.773,114.397,153.835,115.323,150.99z"/>
	</g>
</g>
<g id="Shadow_1_">
	<ellipse id="_x3C_Path_x3E__359_" style="fill:#F5F5F5;" cx="250" cy="416.238" rx="193.889" ry="11.323"/>
</g>
<g id="Chair">
	<g>
		<path style="fill:#263238;" d="M388.659,302.809c0,0-24.746-5.006-48.636-2.582c-23.89,2.424,11.24,33.641,11.24,33.641h4.931
			c0,0-18.616-19.794-17.579-24.721c1.037-4.928,47.921,1.568,47.921,1.568L388.659,302.809z"/>
		<path style="opacity:0.2;fill:#FFFFFF;enable-background:new    ;" d="M388.659,302.809c0,0-24.746-5.006-48.636-2.582
			c-23.89,2.424,11.24,33.641,11.24,33.641h4.931c0,0-18.616-19.794-17.579-24.721c1.037-4.928,47.921,1.568,47.921,1.568
			L388.659,302.809z"/>
		<path style="fill:#263238;" d="M379.727,332.789c0,0,11.592-41.239,13.508-93.458c0.229-6.234,5.372-11.161,11.61-11.161h20.824
			c6.396,0,11.593,5.163,11.621,11.559c0.082,18.971-1.244,61.538-11.944,93.06H379.727z"/>
		<path style="opacity:0.4;fill:#FFFFFF;enable-background:new    ;" d="M379.727,332.789c0,0,11.592-41.239,13.508-93.458
			c0.229-6.234,5.372-11.161,11.61-11.161h20.824c6.396,0,11.593,5.163,11.621,11.559c0.082,18.971-1.244,61.538-11.944,93.06
			H379.727z"/>
		<path style="fill:#407BFF;" d="M373.65,327.5c3.383-12.796,11.002-45.899,12.607-89.635c0.248-6.758,5.823-12.1,12.586-12.1
			h22.576c6.935,0,12.569,5.597,12.598,12.532c0.088,20.566-1.349,62.61-12.949,96.784l-42.968-1.582
			C375.035,333.385,372.866,330.465,373.65,327.5z"/>
		<path style="opacity:0.2;enable-background:new    ;" d="M373.65,327.5c3.383-12.796,11.002-45.899,12.607-89.635
			c0.248-6.758,5.823-12.1,12.586-12.1h22.576c6.935,0,12.569,5.597,12.598,12.532c0.088,20.566-1.349,62.61-12.949,96.784
			l-42.968-1.582C375.035,333.385,372.866,330.465,373.65,327.5z"/>
		<path style="fill:#407BFF;" d="M346.974,316.861h66.371c2.761,0,5,2.239,5,5v11.928h-76.371v-11.928
			C341.974,319.1,344.213,316.861,346.974,316.861z"/>
		<path style="fill:#263238;" d="M415.857,393.309l-24.471-2.405v-34.391h-9.699v34.381l-24.57,2.415
			c-2.439,0.24-4.298,2.291-4.298,4.742v3.675h32.769h1.798h32.769v-3.675C420.156,395.6,418.296,393.549,415.857,393.309z"/>
		<path style="opacity:0.4;fill:#FFFFFF;enable-background:new    ;" d="M415.857,393.309l-24.471-2.405v-34.391h-9.699v34.381
			l-24.57,2.415c-2.439,0.24-4.298,2.291-4.298,4.742v3.675h32.769h1.798h32.769v-3.675
			C420.156,395.6,418.296,393.549,415.857,393.309z"/>
		<path style="fill:#263238;" d="M361.75,406.283c0,3.502-2.839,6.341-6.341,6.341s-6.341-2.839-6.341-6.341
			c0-3.502,2.839-6.341,6.341-6.341S361.75,402.781,361.75,406.283z"/>
		<path style="opacity:0.4;fill:#FFFFFF;enable-background:new    ;" d="M355.409,409.624c-1.842,0-3.341-1.499-3.341-3.341
			c0-1.842,1.499-3.341,3.341-3.341c1.842,0,3.341,1.499,3.341,3.341C358.75,408.125,357.251,409.624,355.409,409.624z"/>
		<path style="fill:#263238;" d="M411.225,406.283c0,3.502,2.839,6.341,6.341,6.341c3.502,0,6.341-2.839,6.341-6.341
			c0-3.502-2.839-6.341-6.341-6.341C414.064,399.943,411.225,402.781,411.225,406.283z"/>
		<path style="opacity:0.4;fill:#FFFFFF;enable-background:new    ;" d="M417.566,409.624c-1.842,0-3.341-1.499-3.341-3.341
			c0-1.842,1.499-3.341,3.341-3.341c1.842,0,3.341,1.499,3.341,3.341C420.907,408.125,419.408,409.624,417.566,409.624z"/>
		<path style="fill:#263238;" d="M388.923,363.906h-4.772c-2.283,0-4.133-1.851-4.133-4.133v-26.498h13.038v26.498
			C393.056,362.055,391.206,363.906,388.923,363.906z"/>
		<path style="opacity:0.2;fill:#FFFFFF;enable-background:new    ;" d="M388.923,363.906h-4.772c-2.283,0-4.133-1.851-4.133-4.133
			v-26.498h13.038v26.498C393.056,362.055,391.206,363.906,388.923,363.906z"/>
		<g>
			<path style="fill:#263238;" d="M341.263,331.825h82.89c1.111,0,2.011,0.901,2.011,2.011v0.941c0,1.111-0.9,2.011-2.011,2.011
				h-82.89c-1.111,0-2.011-0.9-2.011-2.011v-0.941C339.251,332.725,340.152,331.825,341.263,331.825z"/>
		</g>
		<g style="opacity:0.4;enable-background:new    ;">
			<path style="fill:#FFFFFF;" d="M341.263,331.825h82.89c1.111,0,2.011,0.901,2.011,2.011v0.941c0,1.111-0.9,2.011-2.011,2.011
				h-82.89c-1.111,0-2.011-0.9-2.011-2.011v-0.941C339.251,332.725,340.152,331.825,341.263,331.825z"/>
		</g>
		<g>
			<path style="fill:#263238;" d="M432.659,302.809c0,0-24.746-5.006-48.636-2.582c-23.89,2.424,11.24,33.641,11.24,33.641h4.931
				c0,0-18.616-19.794-17.579-24.721c1.037-4.928,47.921,1.568,47.921,1.568L432.659,302.809z"/>
			<path style="opacity:0.4;fill:#FFFFFF;enable-background:new    ;" d="M432.659,302.809c0,0-24.746-5.006-48.636-2.582
				c-23.89,2.424,11.24,33.641,11.24,33.641h4.931c0,0-18.616-19.794-17.579-24.721c1.037-4.928,47.921,1.568,47.921,1.568
				L432.659,302.809z"/>
		</g>
	</g>
</g>
<g id="Table">
	<g>
		<g>
			<g>
				<path style="fill:#263238;" d="M127.29,308.171v1.01h-15.24v-0.77c0-1.85,1.92-3.37,4.38-3.47l0.81-0.03l5.16-0.21
					C125.06,304.591,127.29,306.171,127.29,308.171z"/>
				<path style="opacity:0.2;fill:#FFFFFF;enable-background:new    ;" d="M120.27,308.171v1.01h-8.22v-0.77
					c0-1.85,1.92-3.37,4.38-3.47l0.81-0.03C119,305.391,120.27,306.671,120.27,308.171z"/>
			</g>
			<g>
				<path style="fill:#263238;" d="M251.56,412.574h1.533c0.19,0,0.348-0.155,0.353-0.347l2.425-93.891l-7.087,0l2.424,93.891
					C251.212,412.419,251.37,412.574,251.56,412.574z"/>
			</g>
			<g>
				<polygon style="fill:#263238;" points="306.237,412.574 309.78,412.574 299.78,318.336 292.693,318.336 				"/>
			</g>
			<polygon style="fill:#263238;" points="77.982,412.574 77.982,412.574 91.563,318.336 84.476,318.336 74.476,412.574 			"/>
			<polygon style="fill:#263238;" points="129.892,412.574 133.963,412.574 133.966,412.571 135.473,318.336 128.386,318.336 			"/>
			<g style="opacity:0.4;enable-background:new    ;">
				<polygon style="fill:#FFFFFF;" points="306.237,412.574 309.78,412.574 299.78,318.336 292.693,318.336 				"/>
			</g>
			<polygon style="opacity:0.4;fill:#FFFFFF;enable-background:new    ;" points="129.892,412.574 133.963,412.574 133.966,412.571 
				135.473,318.336 128.386,318.336 			"/>
			<g style="opacity:0.2;enable-background:new    ;">
				<path style="fill:#FFFFFF;" d="M251.56,412.574h1.533c0.19,0,0.348-0.155,0.353-0.347l2.425-93.891l-7.087,0l2.424,93.891
					C251.212,412.419,251.37,412.574,251.56,412.574z"/>
			</g>
			<polygon style="opacity:0.2;fill:#FFFFFF;enable-background:new    ;" points="77.982,412.574 77.982,412.574 91.563,318.336 
				84.476,318.336 74.476,412.574 			"/>
			<g>
				<path style="fill:#263238;" d="M142.231,309.701H162.4l3.208-28.16c-0.05-1.053-0.919-1.881-1.973-1.881h-13.513
					c-1.054,0-1.923,0.828-1.974,1.881L142.231,309.701z"/>
				<path style="fill:#263238;" d="M111.449,238.247h5.035l5.659,53.184h-5.035c-0.834,0-1.583-0.676-1.671-1.511l-5.337-50.163
					C110.01,238.923,110.614,238.247,111.449,238.247z"/>
				<path style="fill:#263238;" d="M119.237,291.431h75.46c0.834,0,1.439-0.676,1.35-1.511l-5.337-50.163
					c-0.089-0.834-0.837-1.511-1.671-1.511h-75.46c-0.834,0-1.439,0.676-1.35,1.511l5.337,50.163
					C117.654,290.755,118.402,291.431,119.237,291.431z"/>
				<path style="fill:#263238;" d="M141.34,307.514h25.075c0.529,0,0.959,0.429,0.959,0.959v0.269c0,0.53-0.429,0.959-0.959,0.959
					H141.34c-0.53,0-0.959-0.429-0.959-0.959v-0.269C140.381,307.944,140.81,307.514,141.34,307.514z"/>
				<path style="opacity:0.2;fill:#FFFFFF;enable-background:new    ;" d="M119.237,291.431h75.46c0.834,0,1.439-0.676,1.35-1.511
					l-5.337-50.163c-0.089-0.834-0.837-1.511-1.671-1.511h-75.46c-0.834,0-1.439,0.676-1.35,1.511l5.337,50.163
					C117.654,290.755,118.402,291.431,119.237,291.431z"/>
				<path style="fill:#407BFF;" d="M120.646,286.519h71.159c0.728,0,1.255-0.59,1.178-1.318l-4.657-43.765
					c-0.077-0.728-0.73-1.318-1.458-1.318h-71.159c-0.728,0-1.255,0.59-1.178,1.318l4.657,43.765
					C119.265,285.929,119.918,286.519,120.646,286.519z"/>
				<path style="opacity:0.2;fill:#FFFFFF;enable-background:new    ;" d="M141.34,307.514h25.075c0.529,0,0.959,0.429,0.959,0.959
					v0.269c0,0.53-0.429,0.959-0.959,0.959H141.34c-0.53,0-0.959-0.429-0.959-0.959v-0.269
					C140.381,307.944,140.81,307.514,141.34,307.514z"/>
				<path style="opacity:0.2;enable-background:new    ;" d="M120.646,286.519h71.159c0.728,0,1.255-0.59,1.178-1.318l-4.657-43.765
					c-0.077-0.728-0.73-1.318-1.458-1.318h-71.159c-0.728,0-1.255,0.59-1.178,1.318l4.657,43.765
					C119.265,285.929,119.918,286.519,120.646,286.519z"/>
			</g>
			<polygon style="fill:#407BFF;" points="141.811,309.068 124.289,309.068 80.379,309.068 80.379,318.336 124.289,318.336 
				141.811,318.336 303.877,318.336 303.877,309.068 			"/>
			<g>
				<g>
					<path style="fill:#407BFF;" d="M187.263,307.403h1.882c0.198,0,0.359-0.161,0.359-0.359v-1.99c0-0.198-0.161-0.359-0.359-0.359
						h-1.351c-0.163,0-0.305,0.11-0.347,0.267l-0.531,1.99C186.855,307.179,187.027,307.403,187.263,307.403z"/>
					<path style="fill:#407BFF;" d="M184.662,307.403h1.882c0.198,0,0.359-0.161,0.359-0.359v-1.99c0-0.198-0.161-0.359-0.359-0.359
						h-1.351c-0.163,0-0.305,0.11-0.347,0.267l-0.531,1.99C184.254,307.179,184.426,307.403,184.662,307.403z"/>
					<path style="fill:#407BFF;" d="M182.061,307.403h1.882c0.199,0,0.359-0.161,0.359-0.359v-1.99c0-0.198-0.161-0.359-0.359-0.359
						h-1.351c-0.163,0-0.305,0.11-0.347,0.267l-0.531,1.99C181.653,307.179,181.825,307.403,182.061,307.403z"/>
					<path style="fill:#407BFF;" d="M179.461,307.403h1.882c0.198,0,0.359-0.161,0.359-0.359v-1.99c0-0.198-0.161-0.359-0.359-0.359
						h-1.351c-0.163,0-0.305,0.11-0.347,0.267l-0.531,1.99C179.053,307.179,179.225,307.403,179.461,307.403z"/>
					<path style="fill:#407BFF;" d="M176.86,307.403h1.882c0.199,0,0.359-0.161,0.359-0.359v-1.99c0-0.198-0.161-0.359-0.359-0.359
						h-1.351c-0.163,0-0.305,0.11-0.347,0.267l-0.531,1.99C176.452,307.179,176.624,307.403,176.86,307.403z"/>
					<path style="fill:#407BFF;" d="M174.26,307.403h1.882c0.198,0,0.359-0.161,0.359-0.359v-1.99c0-0.198-0.161-0.359-0.359-0.359
						h-1.351c-0.163,0-0.305,0.11-0.347,0.267l-0.531,1.99C173.852,307.179,174.023,307.403,174.26,307.403z"/>
					<path style="fill:#407BFF;" d="M171.659,307.403h1.882c0.199,0,0.359-0.161,0.359-0.359v-1.99c0-0.198-0.161-0.359-0.359-0.359
						h-1.351c-0.163,0-0.305,0.11-0.347,0.267l-0.531,1.99C171.251,307.179,171.423,307.403,171.659,307.403z"/>
					<path style="fill:#407BFF;" d="M169.058,307.403h1.882c0.199,0,0.359-0.161,0.359-0.359v-1.99c0-0.198-0.161-0.359-0.359-0.359
						h-1.351c-0.163,0-0.305,0.11-0.347,0.267l-0.531,1.99C168.65,307.179,168.822,307.403,169.058,307.403z"/>
					<path style="fill:#407BFF;" d="M166.458,307.403h1.882c0.198,0,0.359-0.161,0.359-0.359v-1.99c0-0.198-0.161-0.359-0.359-0.359
						h-1.351c-0.163,0-0.305,0.11-0.347,0.267l-0.531,1.99C166.05,307.179,166.222,307.403,166.458,307.403z"/>
					<path style="fill:#407BFF;" d="M163.857,307.403h1.882c0.199,0,0.359-0.161,0.359-0.359v-1.99c0-0.198-0.161-0.359-0.359-0.359
						h-1.351c-0.163,0-0.305,0.11-0.347,0.267l-0.531,1.99C163.449,307.179,163.621,307.403,163.857,307.403z"/>
					<path style="fill:#407BFF;" d="M161.257,307.403h1.882c0.199,0,0.359-0.161,0.359-0.359v-1.99c0-0.198-0.161-0.359-0.359-0.359
						h-1.351c-0.163,0-0.305,0.11-0.347,0.267l-0.531,1.99C160.849,307.179,161.02,307.403,161.257,307.403z"/>
					<path style="fill:#407BFF;" d="M158.656,307.403h1.882c0.199,0,0.359-0.161,0.359-0.359v-1.99c0-0.198-0.161-0.359-0.359-0.359
						h-1.351c-0.163,0-0.305,0.11-0.347,0.267l-0.531,1.99C158.248,307.179,158.42,307.403,158.656,307.403z"/>
					<path style="fill:#407BFF;" d="M156.055,307.403h1.882c0.199,0,0.359-0.161,0.359-0.359v-1.99c0-0.198-0.161-0.359-0.359-0.359
						h-1.351c-0.163,0-0.305,0.11-0.347,0.267l-0.531,1.99C155.647,307.179,155.819,307.403,156.055,307.403z"/>
					<path style="fill:#407BFF;" d="M153.455,307.403h1.882c0.199,0,0.359-0.161,0.359-0.359v-1.99c0-0.198-0.161-0.359-0.359-0.359
						h-1.351c-0.163,0-0.305,0.11-0.347,0.267l-0.531,1.99C153.047,307.179,153.219,307.403,153.455,307.403z"/>
					<path style="fill:#407BFF;" d="M150.854,307.403h1.882c0.199,0,0.359-0.161,0.359-0.359v-1.99c0-0.198-0.161-0.359-0.359-0.359
						h-1.351c-0.163,0-0.305,0.11-0.347,0.267l-0.531,1.99C150.446,307.179,150.618,307.403,150.854,307.403z"/>
				</g>
				
					<rect x="148.961" y="306.048" transform="matrix(-1 -1.224647e-16 1.224647e-16 -1 339.9985 615.2301)" style="fill:#263238;" width="42.076" height="3.134"/>
				
					<rect x="148.961" y="306.048" transform="matrix(-1 -1.224647e-16 1.224647e-16 -1 339.9985 615.2301)" style="opacity:0.2;fill:#FFFFFF;enable-background:new    ;" width="42.076" height="3.134"/>
				
					<rect x="148.961" y="306.048" transform="matrix(-1 -1.224647e-16 1.224647e-16 -1 311.5556 615.2301)" style="opacity:0.2;fill:#FFFFFF;enable-background:new    ;" width="13.633" height="3.134"/>
			</g>
			
				<rect x="124.288" y="309.068" transform="matrix(-1 -1.224647e-16 1.224647e-16 -1 428.1658 627.4043)" style="opacity:0.2;fill:#FFFFFF;enable-background:new    ;" width="179.589" height="9.268"/>
		</g>
	</g>
</g>
<g id="Trash_bin">
	<g>
		<g>
			<path style="fill:#407BFF;" d="M88.245,397.513c0.615-1.033-0.252-2.587-1.455-2.605c0.527-1.482,0.007-3.273-1.231-4.243
				c-0.156-0.122-0.336-0.237-0.534-0.237c-0.213-0.001-0.401,0.129-0.574,0.253c-1.133,0.814-2.265,1.627-3.398,2.441
				c-0.259,0.186-0.528,0.383-0.674,0.667c-0.694,1.346,1.809,3.07,0.78,4.18c-0.295,0.319-0.772,0.385-1.14,0.615
				c-0.809,0.505-0.906,1.616-1.283,2.492c-0.377,0.876-1.691,1.556-2.194,0.746c0.371-0.84-0.752-1.564-1.665-1.671
				c-0.9-0.105-1.865-0.157-2.369-1.013c-1.294,1.131-4.193-2.025-4.127-3.298c-1.064,0.081-1.789,1.078-2.022,2.074
				c-0.242,1.034-0.092,2.112-0.109,3.172c-0.033,2.061-0.698,4.079-0.661,6.14c0.028,1.604,0.648,3.384,2.116,4.03
				c0.707,0.311,1.505,0.311,2.277,0.306c5.573-0.036,11.146-0.071,16.719-0.107c0.401-0.003,0.82-0.009,1.176-0.195
				c0.754-0.394,0.914-1.384,0.984-2.233c0.299-3.632,0.599-7.264,0.898-10.897C89.254,397.925,88.749,397.719,88.245,397.513z"/>
			<path style="opacity:0.3;fill:#FFFFFF;enable-background:new    ;" d="M88.245,397.513c0.615-1.033-0.252-2.587-1.455-2.605
				c0.527-1.482,0.007-3.273-1.231-4.243c-0.156-0.122-0.336-0.237-0.534-0.237c-0.213-0.001-0.401,0.129-0.574,0.253
				c-1.133,0.814-2.265,1.627-3.398,2.441c-0.259,0.186-0.528,0.383-0.674,0.667c-0.694,1.346,1.809,3.07,0.78,4.18
				c-0.295,0.319-0.772,0.385-1.14,0.615c-0.809,0.505-0.906,1.616-1.283,2.492c-0.377,0.876-1.691,1.556-2.194,0.746
				c0.371-0.84-0.752-1.564-1.665-1.671c-0.9-0.105-1.865-0.157-2.369-1.013c-1.294,1.131-4.193-2.025-4.127-3.298
				c-1.064,0.081-1.789,1.078-2.022,2.074c-0.242,1.034-0.092,2.112-0.109,3.172c-0.033,2.061-0.698,4.079-0.661,6.14
				c0.028,1.604,0.648,3.384,2.116,4.03c0.707,0.311,1.505,0.311,2.277,0.306c5.573-0.036,11.146-0.071,16.719-0.107
				c0.401-0.003,0.82-0.009,1.176-0.195c0.754-0.394,0.914-1.384,0.984-2.233c0.299-3.632,0.599-7.264,0.898-10.897
				C89.254,397.925,88.749,397.719,88.245,397.513z"/>
		</g>
		<g>
			<g>
				<path style="fill:#407BFF;" d="M89.221,379.841h-1.877h-5.169h-1.884h-5.162h-1.883h-5.163h-1.883h-2.92l0.213,2.621
					l0.152,1.871l0.396,4.87l0.226,2.798l0.299,3.724l0.128,1.597l0.043,0.475l0.152,1.877l0.207,2.572l0.128,1.597l0.134,1.621
					l0.152,1.877l0.116,1.42l0.128,1.597l0.055,0.695h3.413h2.883h4.163h2.883h4.163h2.883h3.419l0.055-0.695l0.128-1.591
					l0.116-1.432l0.152-1.878l0.134-1.615l0.128-1.597l0.207-2.578l0.152-1.871l0.037-0.475l0.128-1.597l0.305-3.724l0.226-2.792
					l0.39-4.876l0.152-1.871l0.213-2.621H89.221z M90.781,381.56L90.781,381.56l-0.5-0.5h0.542L90.781,381.56z M90.653,383.151
					l-0.049,0.634l-2.322,2.322l-2.664-2.664l2.383-2.383h0.561L90.653,383.151z M89.983,391.453l-1.701,1.701l-2.664-2.664
					l2.664-2.658l1.841,1.841L89.983,391.453z M65.297,389.673L65.297,389.673l1.841-1.841l2.664,2.658l-2.664,2.664l-1.694-1.701
					L65.297,389.673z M87.423,386.967l-2.664,2.664l-2.664-2.664l2.664-2.664L87.423,386.967z M83.235,381.06h3.048l-1.524,1.524
					L83.235,381.06z M83.894,390.49l-2.658,2.664l-2.664-2.664l2.664-2.658L83.894,390.49z M75.049,394.013l2.664-2.658l2.658,2.658
					l-2.658,2.664L75.049,394.013z M76.847,397.536l-2.664,2.664l-2.657-2.658l2.664-2.664L76.847,397.536z M81.236,394.879
					l2.658,2.664l-2.658,2.658l-2.664-2.664L81.236,394.879z M77.713,389.63l-2.664-2.664l2.664-2.664l2.658,2.664L77.713,389.63z
					 M76.847,390.49l-2.657,2.664l-2.664-2.664l2.664-2.658L76.847,390.49z M70.661,389.63l-2.658-2.664l2.658-2.664l2.664,2.664
					L70.661,389.63z M70.661,391.355l2.664,2.658l-2.664,2.664l-2.658-2.664L70.661,391.355z M73.324,401.065l-2.664,2.658
					l-2.658-2.658l2.658-2.664L73.324,401.065z M74.184,401.925l2.664,2.664l-2.657,2.664l-2.664-2.664L74.184,401.925z
					 M75.049,401.065l2.664-2.664l2.658,2.664l-2.658,2.658L75.049,401.065z M81.236,401.925l2.658,2.664l-2.658,2.664l-2.664-2.664
					L81.236,401.925z M84.759,405.448l2.664,2.664l-1.725,1.725H83.82l-1.725-1.725L84.759,405.448z M82.095,401.065l2.664-2.664
					l2.664,2.664l-2.664,2.658L82.095,401.065z M82.095,394.013l2.664-2.658l2.664,2.658l-2.664,2.664L82.095,394.013z
					 M83.894,383.444l-2.658,2.664l-2.664-2.664l2.383-2.383h0.561L83.894,383.444z M77.713,382.584l-1.524-1.524h3.042
					L77.713,382.584z M76.847,383.444l-2.657,2.664l-2.664-2.664l2.383-2.383h0.561L76.847,383.444z M72.185,381.06l-1.524,1.524
					l-1.518-1.524H72.185z M67.418,381.06l2.383,2.383l-2.664,2.664l-2.316-2.322l-0.049-0.634l2.085-2.091H67.418z M65.138,381.06
					l-0.494,0.494l0,0l-0.043-0.494H65.138z M64.974,385.662l1.304,1.304l-1.109,1.109L64.974,385.662z M65.699,394.592
					l-0.104-1.262l0,0l0.683,0.683L65.699,394.592L65.699,394.592z M65.827,396.195l1.31-1.316l2.664,2.664l-2.664,2.658
					l-1.073-1.073L65.827,396.195z M66.223,401.12l-0.006-0.116l0.061,0.061L66.223,401.12L66.223,401.12z M66.687,406.795
					l-0.335-4.084l0.786-0.786l2.664,2.664l-2.664,2.658L66.687,406.795L66.687,406.795z M66.93,409.836l-0.049-0.609l0.256-0.256
					l0.866,0.866H66.93z M68.003,408.111l2.658-2.664l2.664,2.664l-1.725,1.725h-1.877L68.003,408.111z M73.324,409.836l0.866-0.866
					l0.865,0.866H73.324z M76.774,409.836l-1.725-1.725l2.664-2.664l2.658,2.664l-1.719,1.725H76.774z M80.37,409.836l0.866-0.866
					l0.866,0.866H80.37z M88.49,409.836h-1.073l0.866-0.866l0.256,0.256L88.49,409.836z M88.739,406.795l-0.457,0.451l-2.664-2.658
					l2.664-2.664l0.786,0.786L88.739,406.795z M89.209,400.998l-0.012,0.122l-0.055-0.055L89.209,400.998L89.209,400.998z
					 M89.361,399.127l-1.079,1.073l-2.664-2.658l2.664-2.664l1.317,1.316L89.361,399.127z M89.727,394.598l-0.585-0.585l0.689-0.683
					L89.727,394.598z M90.452,385.656l-0.195,2.426l-1.116-1.116L90.452,385.656L90.452,385.656z"/>
			</g>
			<g style="opacity:0.6;enable-background:new    ;">
				<path style="fill:#FFFFFF;" d="M89.221,379.841h-1.877h-5.169h-1.884h-5.162h-1.883h-5.163h-1.883h-2.92l0.213,2.621
					l0.152,1.871l0.396,4.87l0.226,2.798l0.299,3.724l0.128,1.597l0.043,0.475l0.152,1.877l0.207,2.572l0.128,1.597l0.134,1.621
					l0.152,1.877l0.116,1.42l0.128,1.597l0.055,0.695h3.413h2.883h4.163h2.883h4.163h2.883h3.419l0.055-0.695l0.128-1.591
					l0.116-1.432l0.152-1.878l0.134-1.615l0.128-1.597l0.207-2.578l0.152-1.871l0.037-0.475l0.128-1.597l0.305-3.724l0.226-2.792
					l0.39-4.876l0.152-1.871l0.213-2.621H89.221z M90.781,381.56L90.781,381.56l-0.5-0.5h0.542L90.781,381.56z M90.653,383.151
					l-0.049,0.634l-2.322,2.322l-2.664-2.664l2.383-2.383h0.561L90.653,383.151z M89.983,391.453l-1.701,1.701l-2.664-2.664
					l2.664-2.658l1.841,1.841L89.983,391.453z M65.297,389.673L65.297,389.673l1.841-1.841l2.664,2.658l-2.664,2.664l-1.694-1.701
					L65.297,389.673z M87.423,386.967l-2.664,2.664l-2.664-2.664l2.664-2.664L87.423,386.967z M83.235,381.06h3.048l-1.524,1.524
					L83.235,381.06z M83.894,390.49l-2.658,2.664l-2.664-2.664l2.664-2.658L83.894,390.49z M75.049,394.013l2.664-2.658l2.658,2.658
					l-2.658,2.664L75.049,394.013z M76.847,397.536l-2.664,2.664l-2.657-2.658l2.664-2.664L76.847,397.536z M81.236,394.879
					l2.658,2.664l-2.658,2.658l-2.664-2.664L81.236,394.879z M77.713,389.63l-2.664-2.664l2.664-2.664l2.658,2.664L77.713,389.63z
					 M76.847,390.49l-2.657,2.664l-2.664-2.664l2.664-2.658L76.847,390.49z M70.661,389.63l-2.658-2.664l2.658-2.664l2.664,2.664
					L70.661,389.63z M70.661,391.355l2.664,2.658l-2.664,2.664l-2.658-2.664L70.661,391.355z M73.324,401.065l-2.664,2.658
					l-2.658-2.658l2.658-2.664L73.324,401.065z M74.184,401.925l2.664,2.664l-2.657,2.664l-2.664-2.664L74.184,401.925z
					 M75.049,401.065l2.664-2.664l2.658,2.664l-2.658,2.658L75.049,401.065z M81.236,401.925l2.658,2.664l-2.658,2.664l-2.664-2.664
					L81.236,401.925z M84.759,405.448l2.664,2.664l-1.725,1.725H83.82l-1.725-1.725L84.759,405.448z M82.095,401.065l2.664-2.664
					l2.664,2.664l-2.664,2.658L82.095,401.065z M82.095,394.013l2.664-2.658l2.664,2.658l-2.664,2.664L82.095,394.013z
					 M83.894,383.444l-2.658,2.664l-2.664-2.664l2.383-2.383h0.561L83.894,383.444z M77.713,382.584l-1.524-1.524h3.042
					L77.713,382.584z M76.847,383.444l-2.657,2.664l-2.664-2.664l2.383-2.383h0.561L76.847,383.444z M72.185,381.06l-1.524,1.524
					l-1.518-1.524H72.185z M67.418,381.06l2.383,2.383l-2.664,2.664l-2.316-2.322l-0.049-0.634l2.085-2.091H67.418z M65.138,381.06
					l-0.494,0.494l0,0l-0.043-0.494H65.138z M64.974,385.662l1.304,1.304l-1.109,1.109L64.974,385.662z M65.699,394.592
					l-0.104-1.262l0,0l0.683,0.683L65.699,394.592L65.699,394.592z M65.827,396.195l1.31-1.316l2.664,2.664l-2.664,2.658
					l-1.073-1.073L65.827,396.195z M66.223,401.12l-0.006-0.116l0.061,0.061L66.223,401.12L66.223,401.12z M66.687,406.795
					l-0.335-4.084l0.786-0.786l2.664,2.664l-2.664,2.658L66.687,406.795L66.687,406.795z M66.93,409.836l-0.049-0.609l0.256-0.256
					l0.866,0.866H66.93z M68.003,408.111l2.658-2.664l2.664,2.664l-1.725,1.725h-1.877L68.003,408.111z M73.324,409.836l0.866-0.866
					l0.865,0.866H73.324z M76.774,409.836l-1.725-1.725l2.664-2.664l2.658,2.664l-1.719,1.725H76.774z M80.37,409.836l0.866-0.866
					l0.866,0.866H80.37z M88.49,409.836h-1.073l0.866-0.866l0.256,0.256L88.49,409.836z M88.739,406.795l-0.457,0.451l-2.664-2.658
					l2.664-2.664l0.786,0.786L88.739,406.795z M89.209,400.998l-0.012,0.122l-0.055-0.055L89.209,400.998L89.209,400.998z
					 M89.361,399.127l-1.079,1.073l-2.664-2.658l2.664-2.664l1.317,1.316L89.361,399.127z M89.727,394.598l-0.585-0.585l0.689-0.683
					L89.727,394.598z M90.452,385.656l-0.195,2.426l-1.116-1.116L90.452,385.656L90.452,385.656z"/>
			</g>
		</g>
		<path style="fill:#407BFF;" d="M63.262,382.147H92.16c0.908,0,1.643-0.736,1.643-1.643v-0.107c0-0.908-0.736-1.643-1.643-1.643
			H63.261c-0.907,0-1.643,0.736-1.643,1.643v0.107C61.618,381.412,62.354,382.147,63.262,382.147z"/>
		<path style="fill:#407BFF;" d="M89.839,412.624H65.582c-0.908,0-1.643-0.736-1.643-1.643v-0.107c0-0.908,0.736-1.643,1.643-1.643
			h24.257c0.908,0,1.643,0.736,1.643,1.643v0.107C91.482,411.888,90.747,412.624,89.839,412.624z"/>
	</g>
</g>
<g id="Speech_Bubble">
	<g>
		<path style="fill:#407BFF;" d="M241.543,134.852l29.492-5.105c2.009-0.348,3.356-2.259,3.009-4.268l-5.105-29.492
			c-0.348-2.009-2.259-3.356-4.268-3.008l-29.492,5.105c-2.009,0.348-3.356,2.259-3.008,4.268l5.105,29.492
			C237.623,133.853,239.534,135.2,241.543,134.852z"/>
		<path style="fill:#407BFF;" d="M251.846,130.137c0,0,6.735,10.195,18.133,11.773c0,0-6.572-2.413-8.101-13.982L251.846,130.137z"
			/>
		<g>
			<path style="fill:#407BFF;" d="M261.587,111.104l-4.758,0.569c0,0-1.562-3.186-2.55-10.545c0,0-1.676,0.042-2.441,0.383
				c-0.765,0.341,0.083,8.574,0.083,8.574s-8.626,0.6-9.035,1.03c-0.259,0.272-0.156,1.549-0.046,2.446
				c0.064,0.524,0.493,0.926,1.02,0.956l0.303,0.017l1.533,8.099c0.118,0.624,0.702,1.049,1.333,0.968l7.982-1.021
				c0.79-0.101,1.531-0.439,2.124-0.971l0.788-0.706l4.961-0.32L261.587,111.104z"/>
			<path style="opacity:0.7;fill:#FFFFFF;enable-background:new    ;" d="M261.587,111.104l-4.758,0.569
				c0,0-1.562-3.186-2.55-10.545c0,0-1.676,0.042-2.441,0.383c-0.765,0.341,0.083,8.574,0.083,8.574s-8.626,0.6-9.035,1.03
				c-0.259,0.272-0.156,1.549-0.046,2.446c0.064,0.524,0.493,0.926,1.02,0.956l0.303,0.017l1.533,8.099
				c0.118,0.624,0.702,1.049,1.333,0.968l7.982-1.021c0.79-0.101,1.531-0.439,2.124-0.971l0.788-0.706l4.961-0.32L261.587,111.104z"
				/>
		</g>
	</g>
</g>
<g id="Character">
	<g>
		<g id="_x3C_Group_x3E__126_">
			<path style="fill:#407BFF;" d="M278.541,169.709c-4.357-0.166-21.344,27.493-21.344,27.493l-11.542-2.178l-2.472,5.9
				c0,0,10.403,5.072,14.586,5.525c4.183,0.453,20.19-21.878,20.19-21.878L278.541,169.709z"/>
			<path style="opacity:0.2;fill:#FFFFFF;enable-background:new    ;" d="M278.542,169.704l-0.584,14.864
				c0,0-0.385,0.539-1.057,1.442c-1.222,1.674-3.413,4.602-5.901,7.729c-4.866,6.1-10.9,12.959-13.234,12.706
				c-4.184-0.451-14.588-5.516-14.588-5.516l2.477-5.901l11.538,2.18C257.194,197.207,274.182,169.538,278.542,169.704z"/>
			<path style="opacity:0.2;enable-background:new    ;" d="M276.902,186.01c-1.222,1.674-3.413,4.602-5.901,7.729
				c0.088-5.901,5.252-13.234,5.252-13.234S276.616,182.905,276.902,186.01z"/>
			<path style="fill:#263238;" d="M311.657,411.779h9.756c0.329,0.002,0.613,0.231,0.684,0.552l1.583,7.151
				c0.135,0.64-0.274,1.269-0.914,1.404c-0.086,0.018-0.173,0.027-0.261,0.026c-3.157-0.051-5.455-0.245-9.419-0.245
				c-2.442,0-9.807,0.255-13.178,0.255s-3.81-3.33-2.431-3.637c6.191-1.348,10.849-3.218,12.831-4.995
				C310.676,411.952,311.158,411.769,311.657,411.779z"/>
			<path style="fill:#263238;" d="M270.284,411.523h9.756c0.329,0.002,0.613,0.231,0.684,0.552l1.583,7.151
				c0.136,0.64-0.274,1.269-0.914,1.404c-0.086,0.018-0.173,0.027-0.261,0.026c-3.157-0.051-5.455-0.245-9.419-0.245
				c-2.441,0-9.807,0.255-13.178,0.255c-3.371,0-3.81-3.33-2.431-3.637c6.19-1.348,10.849-3.218,12.831-4.995
				C269.303,411.697,269.786,411.514,270.284,411.523z"/>
			<path style="fill:#263238;" d="M316.83,230.938h-42.623c-4.053,22.13-16.738,111.992-7.637,181.769H281
				c0,0-1.336-105.971,11.404-140.216c1.465,18.327,16.362,140.144,16.362,140.144h14.69c0,0-2.194-45.825-4.392-89.111
				C317.679,296.268,316.889,236.533,316.83,230.938z"/>
			<path style="opacity:0.2;enable-background:new    ;" d="M292.401,272.494c-1.88,5.046-3.443,11.349-4.761,18.439
				c-1.192-16.309,3.575-33.605,3.575-33.605L292.401,272.494z"/>
			<polygon points="273.849,231.448 316.754,231.448 316.754,236.556 273.302,236.028 			"/>
			<rect x="301.431" y="229.15" style="fill:#263238;" width="1.532" height="9.066"/>
			<rect x="279.723" y="229.15" style="fill:#263238;" width="1.532" height="9.066"/>
			<rect x="285.469" y="230.555" style="fill:#FFFFFF;" width="7.935" height="5.718"/>
			<g>
				<path style="fill:#407BFF;" d="M316.886,232.272c1.136-24.414,8.319-58.963,8.319-58.963
					c-19.923-4.804-46.666-3.601-46.666-3.601c-5.213,18.642-5.115,48.722-4.664,62.563H316.886z"/>
				<path style="opacity:0.2;fill:#FFFFFF;enable-background:new    ;" d="M325.203,173.304c0,0-0.804,3.865-1.916,9.92
					c-0.528,2.885-1.134,6.276-1.751,9.986c-0.352,2.169-0.727,4.437-1.079,6.782c-0.352,2.279-0.705,4.624-1.035,7.002
					c-1.178,8.478-2.169,17.407-2.543,25.279h-43.005c-0.451-13.839-0.539-43.919,4.668-62.57
					C278.542,169.704,305.286,168.504,325.203,173.304z"/>
				<path style="opacity:0.2;enable-background:new    ;" d="M323.287,183.224c-0.528,2.885-1.134,6.276-1.751,9.986
					c-0.352,2.169-0.727,4.437-1.079,6.782c-3.16-8.291,2.224-19.488,2.224-19.488L323.287,183.224z"/>
			</g>
			<path style="fill:#263238;" d="M292.698,172.949l1.075,5.285c0,0-6.154,25.668-7.477,38.983l2.242,2.246l3.529-2.246
				c0,0,0.316-27.112,3.429-38.502l5.58-4.569l-4.392-1.422L292.698,172.949z"/>
			<path style="fill:#EEC1BB;" d="M309.402,170.614c-3.686,3.35-12.718,2.111-12.718,2.111s-5.637-1.543-4.453-3.305
				c3.321-0.549,4.928-2.098,5.592-4.081c0.385-1.155,0.443-2.454,0.337-3.793c-0.048-0.703-0.154-1.415-0.279-2.118l11.165-8.268
				C307.583,156.618,305.792,166.658,309.402,170.614z"/>
			<path style="opacity:0.2;enable-background:new    ;" d="M306.466,156.416c-0.443,6.699-5.949,8.547-8.644,8.923
				c0.385-1.155,0.443-2.454,0.337-3.793L306.466,156.416z"/>
			<g>
				<path style="fill:#407BFF;" d="M307.756,166.363l-10.672,4.813l-0.626-3.858l-3.924,1.38c-1.408,0.495-2.293,1.893-2.138,3.378
					l0.443,4.234l5.415-2.963l2.698,3.816l12.82-6.175L307.756,166.363z"/>
				<path style="opacity:0.3;fill:#FFFFFF;enable-background:new    ;" d="M307.756,166.363l-10.672,4.813l-0.626-3.858l-3.924,1.38
					c-1.408,0.495-2.293,1.893-2.138,3.378l0.443,4.234l5.415-2.963l2.698,3.816l12.82-6.175L307.756,166.363z"/>
			</g>
			<g>
				<path style="fill:#263238;" d="M286.156,135.652c0,0-1.668,10.75,4.028,14.904c5.696,4.154,5.757-15.867,5.757-15.867
					L286.156,135.652z"/>
				<path style="fill:#EEC1BB;" d="M306.731,159.155c-2.782,3.973-7.302,5.001-11.22,3.749c-2.519-0.802-4.788-2.556-6.19-5.072
					c-0.188-0.328-0.355-0.676-0.513-1.034c-2.79-6.581-3.648-18.08,3.314-22.368c4.943-3.093,11.472-1.594,14.564,3.36
					c0.889,1.403,1.42,3.003,1.574,4.661C309.091,150.137,309.942,154.617,306.731,159.155z"/>
				<path style="fill:#263238;" d="M297.047,146.522c0.146,0.608-0.136,1.176-0.548,1.245c-0.412,0.068-0.818-0.386-0.925-1.003
					c-0.108-0.617,0.146-1.179,0.548-1.245C296.524,145.453,296.937,145.895,297.047,146.522z"/>
				<path style="fill:#263238;" d="M290.029,147.699c0.146,0.608-0.145,1.178-0.548,1.245c-0.403,0.066-0.818-0.385-0.925-1.003
					c-0.107-0.617,0.146-1.179,0.548-1.245C289.506,146.63,289.928,147.11,290.029,147.699z"/>
				<path style="fill:#D4827D;" d="M292.31,147.63c-0.421,2.022-1.119,3.977-2.075,5.808c0.967,0.472,2.093,0.493,3.077,0.057
					L292.31,147.63z"/>
				<path style="fill:#263238;" d="M286.924,145.137c0.13,0.046,0.275,0.019,0.38-0.07c0.689-0.639,1.64-0.915,2.564-0.745
					c0.195,0.054,0.398-0.06,0.452-0.255c0.054-0.195-0.06-0.398-0.256-0.452c0,0-0.001,0-0.001,0
					c-1.163-0.245-2.372,0.09-3.244,0.897c-0.156,0.13-0.177,0.361-0.047,0.517c0.002,0.002,0.004,0.005,0.006,0.007
					C286.821,145.076,286.87,145.111,286.924,145.137z"/>
				<path style="fill:#263238;" d="M297.965,143.483c0.073-0.014,0.14-0.052,0.191-0.106c0.107-0.172,0.054-0.399-0.118-0.506
					c-0.002-0.001-0.005-0.003-0.007-0.004c-1.008-0.637-2.263-0.743-3.364-0.285c-0.182,0.089-0.258,0.309-0.169,0.491l0,0.001
					c0.093,0.179,0.309,0.253,0.492,0.169l0,0c0.879-0.336,1.866-0.237,2.661,0.267
					C297.754,143.548,297.869,143.538,297.965,143.483z"/>
				<path style="fill:#263238;" d="M301.073,133.877l-0.01,3.433c1.18,0.459,1.998,1.632,1.645,3.025
					c-0.754,2.976,1.386,7.198,3.779,8.699c0,0-0.079-1.241,0.996-1.073c1.075,0.169,1.552,6.624-0.113,9.928
					c0,0,2.74-3.135,3.671-10.082c0.861-6.425,0.442-11.644-1.126-13.903L301.073,133.877z"/>
				<path style="fill:#EEC1BB;" d="M312.64,148.143c-0.557,1.867-1.831,3.437-3.543,4.365c-2.276,1.214-3.968-0.691-3.807-3.131
					c0.164-2.167,1.522-5.478,4.04-5.66C311.847,143.535,313.294,145.843,312.64,148.143z"/>
				<g>
					<path style="fill:#263238;" d="M294.118,155.382c0.633,0.865,1.43,2.565,1.43,2.565c0.167-0.044,0.334-0.089,0.499-0.142
						c2.25-0.66,3.076-1.71,3.309-2.673c0.125-0.527,0.067-1.034-0.033-1.431c-0.111-0.461-0.295-0.764-0.295-0.764
						c-0.984,1.063-3.034,1.84-4.146,2.209C294.417,155.304,294.118,155.382,294.118,155.382z"/>
					<path style="fill:#FFFFFF;" d="M294.881,155.145l0.441,0.745c2.118-0.627,3.525-1.353,4-2.19
						c-0.111-0.461-0.295-0.764-0.295-0.764C298.044,153.999,295.994,154.776,294.881,155.145z"/>
					<path style="fill:#DE5753;" d="M296.046,157.805c2.25-0.66,3.076-1.71,3.309-2.673c-0.758,0.255-1.644,0.646-2.353,1.228
						C296.458,156.803,296.186,157.32,296.046,157.805z"/>
				</g>
				<path style="fill:#263238;" d="M309.402,135.497c0,0,3.693-4.501-5.163-7.259c-8.856-2.759-21.796,5.464-19.165,8.711
					c2.632,3.247,11.698,1.887,11.698,1.887s-2.337-0.29-3.461-1.452C293.311,137.384,306.435,138.255,309.402,135.497z"/>
			</g>
			<path style="fill:#407BFF;" d="M325.203,173.309c5.605,1.897,9.444,36.779,9.376,39.809c-0.069,3.031-8.66,4.337-9.374-1.979
				c-0.713-6.316-3.67-19.818-3.67-19.818s-0.779-6.098,0-9.8C322.314,177.819,325.203,173.309,325.203,173.309z"/>
			<path style="opacity:0.2;fill:#FFFFFF;enable-background:new    ;" d="M325.203,173.309c5.605,1.897,9.444,36.779,9.376,39.809
				c-0.069,3.031-8.66,4.337-9.374-1.979c-0.713-6.316-3.67-19.818-3.67-19.818s-0.779-6.098,0-9.8
				C322.314,177.819,325.203,173.309,325.203,173.309z"/>
		</g>
		<g>
			
				<rect x="165.627" y="201.217" transform="matrix(0.9942 0.1076 -0.1076 0.9942 30.5429 -26.8408)" style="fill:#407BFF;" width="196.898" height="136.966"/>
			
				<rect x="165.627" y="201.217" transform="matrix(0.9942 0.1076 -0.1076 0.9942 30.5429 -26.8408)" style="opacity:0.6;fill:#FFFFFF;enable-background:new    ;" width="196.898" height="136.966"/>
			
				<rect x="200.238" y="176.264" transform="matrix(-0.1076 0.9942 -0.9942 -0.1076 560.6169 36.1673)" style="fill:none;stroke:#407BFF;stroke-miterlimit:10;" width="127.675" height="186.872"/>
			<polygon style="fill:none;stroke:#407BFF;stroke-miterlimit:10;" points="365.341,224.203 366.412,214.307 356.516,213.236 
				356.099,217.087 185.435,198.622 185.852,194.771 175.956,193.701 174.885,203.597 178.841,204.025 166.766,315.626 
				162.81,315.198 161.74,325.094 171.636,326.164 172.052,322.313 342.717,340.778 342.3,344.629 352.196,345.7 353.267,335.804 
				349.311,335.376 361.385,223.775 			"/>
			<g>
				<g>
					<path style="fill:#407BFF;" d="M180.305,199.132l2.273,0.246l-0.246,2.273l-2.273-0.246L180.305,199.132 M179.419,198.03
						l-0.108,0.994l-0.246,2.273l-0.108,0.994l0.994,0.108l2.273,0.246l0.994,0.108l0.108-0.994l0.246-2.273l0.108-0.994
						l-0.994-0.108l-2.273-0.246L179.419,198.03L179.419,198.03z"/>
				</g>
				<g>
					<path style="fill:#407BFF;" d="M167.396,318.445l2.273,0.246l-0.246,2.273l-2.273-0.246L167.396,318.445 M166.51,317.343
						l-0.108,0.994l-0.246,2.273l-0.108,0.994l0.994,0.108l2.273,0.246l0.994,0.108l0.108-0.994l0.246-2.273l0.108-0.994
						l-0.994-0.108l-2.273-0.246L166.51,317.343L166.51,317.343z"/>
				</g>
				<g>
					<path style="fill:#407BFF;" d="M358.728,218.436l2.273,0.246l-0.246,2.273l-2.273-0.246L358.728,218.436 M357.841,217.334
						l-0.107,0.994l-0.246,2.273l-0.108,0.994l0.994,0.108l2.273,0.246l0.994,0.107l0.107-0.994l0.246-2.273l0.108-0.994
						l-0.994-0.108l-2.273-0.246L357.841,217.334L357.841,217.334z"/>
				</g>
				<g>
					<path style="fill:#407BFF;" d="M345.819,337.749l2.273,0.246l-0.246,2.273l-2.273-0.246L345.819,337.749 M344.932,336.648
						l-0.108,0.994l-0.246,2.273l-0.108,0.994l0.994,0.108l2.273,0.246l0.994,0.108l0.108-0.994l0.246-2.273l0.108-0.994
						l-0.994-0.108l-2.273-0.246L344.932,336.648L344.932,336.648z"/>
				</g>
			</g>
			<g>
				<path style="fill:#407BFF;" d="M216.897,220.228c0.297-2.746,2.614-4.502,5.438-4.197c1.497,0.162,2.727,0.84,3.473,1.931
					l-1.216,0.918c-0.591-0.795-1.381-1.239-2.34-1.343c-1.905-0.206-3.43,0.984-3.634,2.876c-0.205,1.892,1.03,3.381,2.935,3.587
					c0.958,0.104,1.825-0.162,2.575-0.825l0.99,1.171c-0.962,0.906-2.308,1.305-3.819,1.142
					C218.487,225.185,216.6,222.974,216.897,220.228z"/>
				<path style="fill:#407BFF;" d="M233.657,225.244l-0.155,1.432l-6.897-0.746l0.995-9.196l6.713,0.727l-0.155,1.432l-5.006-0.542
					l-0.259,2.391l4.441,0.48l-0.152,1.406l-4.44-0.48l-0.274,2.535L233.657,225.244z"/>
				<path style="fill:#407BFF;" d="M241.423,227.533l-1.587-2.896c-0.12,0.001-0.238-0.012-0.356-0.025l-2.076-0.224l-0.29,2.68
					l-1.708-0.185l0.995-9.196l3.783,0.41c2.417,0.261,3.781,1.658,3.561,3.695c-0.15,1.392-0.971,2.34-2.271,2.691l1.788,3.251
					L241.423,227.533z M239.95,219.532l-1.997-0.216l-0.397,3.666l1.997,0.216c1.498,0.162,2.347-0.438,2.472-1.593
					C242.149,220.448,241.447,219.694,239.95,219.532z"/>
				<path style="fill:#407BFF;" d="M247.581,220.357l-3.048-0.33l0.156-1.445l7.803,0.844l-0.156,1.445l-3.047-0.33l-0.839,7.752
					l-1.708-0.185L247.581,220.357z"/>
				<path style="fill:#407BFF;" d="M253.779,219.566l1.708,0.185l-0.995,9.196l-1.708-0.185L253.779,219.566z"/>
				<path style="fill:#407BFF;" d="M259.522,221.637l-0.303,2.798l4.44,0.48l-0.157,1.445l-4.44-0.48l-0.381,3.521l-1.708-0.185
					l0.995-9.196l6.713,0.727l-0.155,1.432L259.522,221.637z"/>
				<path style="fill:#407BFF;" d="M266.336,220.925l1.708,0.185l-0.995,9.196l-1.707-0.185L266.336,220.925z"/>
				<path style="fill:#407BFF;" d="M269.372,225.905c0.297-2.746,2.613-4.502,5.438-4.196c1.497,0.162,2.727,0.84,3.473,1.931
					l-1.217,0.918c-0.591-0.795-1.381-1.239-2.339-1.343c-1.905-0.206-3.43,0.984-3.634,2.876c-0.205,1.892,1.03,3.381,2.935,3.587
					c0.958,0.104,1.825-0.162,2.574-0.825l0.99,1.171c-0.962,0.906-2.308,1.306-3.819,1.142
					C270.962,230.862,269.075,228.651,269.372,225.905z"/>
				<path style="fill:#407BFF;" d="M285.078,230.104l-4.598-0.497l-1.137,2.03l-1.76-0.19l5.133-8.748l1.682,0.182l3.156,9.645
					l-1.786-0.193L285.078,230.104z M284.658,228.702l-1.3-4.208l-2.155,3.835L284.658,228.702z"/>
				<path style="fill:#407BFF;" d="M290.967,225.052l-3.048-0.33l0.156-1.445l7.804,0.844l-0.156,1.445l-3.048-0.33l-0.839,7.751
					l-1.707-0.185L290.967,225.052z"/>
				<path style="fill:#407BFF;" d="M297.165,224.26l1.708,0.185l-0.995,9.196l-1.708-0.185L297.165,224.26z"/>
				<path style="fill:#407BFF;" d="M300.2,229.241c0.294-2.72,2.614-4.502,5.464-4.194c2.851,0.309,4.737,2.533,4.441,5.266
					c-0.296,2.732-2.614,4.502-5.465,4.193C301.79,234.197,299.906,231.96,300.2,229.241z M308.385,230.126
					c0.203-1.879-1.03-3.381-2.882-3.582c-1.853-0.201-3.378,1.003-3.581,2.882c-0.203,1.879,1.029,3.382,2.882,3.582
					C306.656,233.209,308.182,232.005,308.385,230.126z"/>
				<path style="fill:#407BFF;" d="M320.586,226.794l-0.995,9.196l-1.406-0.151l-4.397-6.776l-0.674,6.227l-1.695-0.184l0.995-9.196
					l1.406,0.152l4.397,6.775l0.674-6.227L320.586,226.794z"/>
			</g>
			<path style="opacity:0.6;fill:#FFFFFF;enable-background:new    ;" d="M311.167,262.279l-91.506-9.9
				c-2.138-0.231-4.06,1.315-4.291,3.453c-0.231,2.138,1.315,4.06,3.453,4.291l91.506,9.9c2.138,0.231,4.06-1.315,4.291-3.453
				C314.852,264.432,313.306,262.51,311.167,262.279z"/>
			<g>
				
					<line style="fill:none;stroke:#407BFF;stroke-linecap:round;stroke-linejoin:round;stroke-miterlimit:10;" x1="333.415" y1="281.872" x2="193.738" y2="266.76"/>
				
					<line style="fill:none;stroke:#407BFF;stroke-linecap:round;stroke-linejoin:round;stroke-miterlimit:10;" x1="333.869" y1="277.681" x2="205.137" y2="263.753"/>
				
					<line style="fill:none;stroke:#407BFF;stroke-linecap:round;stroke-linejoin:round;stroke-miterlimit:10;" x1="278.211" y1="280.329" x2="193.264" y2="271.138"/>
			</g>
			<g>
				
					<line style="fill:none;stroke:#407BFF;stroke-linecap:round;stroke-linejoin:round;stroke-miterlimit:10;" x1="208.335" y1="234.199" x2="337.066" y2="248.126"/>
				
					<line style="fill:none;stroke:#407BFF;stroke-linecap:round;stroke-linejoin:round;stroke-miterlimit:10;" x1="196.935" y1="237.205" x2="336.613" y2="252.318"/>
				
					<line style="fill:none;stroke:#407BFF;stroke-linecap:round;stroke-linejoin:round;stroke-miterlimit:10;" x1="195.988" y1="245.962" x2="259.042" y2="252.784"/>
				
					<line style="fill:none;stroke:#407BFF;stroke-linecap:round;stroke-linejoin:round;stroke-miterlimit:10;" x1="196.461" y1="241.584" x2="336.139" y2="256.696"/>
			</g>
			<g>
				<g>
					<polygon style="fill:#407BFF;" points="318.514,328.616 312.741,324.67 306.257,327.29 308.5,306.552 320.758,307.879 					"/>
					<polygon style="opacity:0.2;enable-background:new    ;" points="318.514,328.616 312.741,324.67 306.257,327.29 
						308.5,306.552 320.758,307.879 					"/>
				</g>
				<polygon style="fill:#407BFF;" points="316.348,291.325 318.374,290.149 319.654,292.111 321.909,291.476 322.66,293.695 
					325.003,293.64 325.179,295.976 327.461,296.505 327.051,298.812 329.129,299.892 328.158,302.025 329.903,303.588 
					328.432,305.411 329.733,307.36 327.855,308.76 328.631,310.971 326.464,311.86 326.665,314.194 324.345,314.517 
					323.96,316.828 321.632,316.563 320.684,318.705 318.496,317.87 317.045,319.71 315.133,318.356 313.27,319.777 
					311.754,317.991 309.597,318.904 308.573,316.796 306.256,317.144 305.789,314.849 303.458,314.609 303.576,312.27 
					301.378,311.458 302.075,309.221 300.147,307.889 301.378,305.895 299.843,304.126 301.531,302.501 300.484,300.405 
					302.523,299.251 302.03,296.961 304.292,296.35 304.384,294.009 306.727,293.98 307.399,291.735 309.675,292.29 
					310.884,290.283 312.951,291.386 314.621,289.743 				"/>
				<polygon style="opacity:0.2;fill:#FFFFFF;enable-background:new    ;" points="316.053,294.053 317.671,293.113 318.693,294.68 
					320.493,294.173 321.093,295.945 322.964,295.901 323.104,297.767 324.927,298.189 324.599,300.031 326.259,300.894 
					325.483,302.596 326.876,303.845 325.702,305.301 326.741,306.856 325.241,307.974 325.861,309.74 324.13,310.45 
					324.291,312.314 322.438,312.571 322.131,314.416 320.272,314.205 319.515,315.916 317.768,315.249 316.609,316.718 
					315.082,315.637 313.595,316.772 312.385,315.345 310.662,316.074 309.845,314.392 307.995,314.669 307.621,312.836 
					305.76,312.645 305.855,310.777 304.1,310.129 304.656,308.343 303.117,307.279 304.1,305.687 302.874,304.274 304.221,302.977 
					303.386,301.303 305.014,300.381 304.62,298.553 306.426,298.065 306.5,296.196 308.371,296.172 308.907,294.38 
					310.725,294.823 311.69,293.22 313.34,294.101 314.673,292.789 				"/>
				<g>
					<path style="fill:#407BFF;" d="M314.894,305.765l1.393,0.151l-0.102,0.939l-1.507-0.163l-0.406,1.732l-0.94-0.102l0.407-1.732
						l-1.745-0.189l-0.407,1.732l-0.939-0.102l0.406-1.732l-1.393-0.151l0.102-0.939l1.507,0.163l0.436-1.812l-1.393-0.151
						l0.102-0.94l1.507,0.163l0.407-1.731l0.939,0.102l-0.406,1.731l1.734,0.188l0.407-1.731l0.939,0.102l-0.406,1.731l1.383,0.15
						l-0.092,0.941l-1.507-0.163L314.894,305.765z M313.954,305.663l0.426-1.813l-1.734-0.188l-0.436,1.812L313.954,305.663z"/>
					<path style="fill:#407BFF;" d="M320.301,301.766l-0.782,7.225l-1.342-0.145l0.66-6.1l-1.528-0.165l0.122-1.124L320.301,301.766
						z"/>
				</g>
			</g>
			<g>
				<path style="fill:#407BFF;" d="M204.153,284.188L204.153,284.188c0.492-0.285,1.12-0.136,1.431,0.34l0,0
					c0.255,0.391,0.735,0.571,1.184,0.444l0,0c0.547-0.154,1.119,0.147,1.301,0.685l0,0c0.15,0.442,0.57,0.736,1.036,0.725l0,0
					c0.568-0.013,1.047,0.421,1.09,0.987l0,0c0.035,0.466,0.369,0.854,0.824,0.96l0,0c0.554,0.129,0.91,0.668,0.81,1.227l0,0
					c-0.082,0.46,0.145,0.919,0.559,1.135l0,0c0.504,0.262,0.715,0.873,0.479,1.39l0,0c-0.193,0.425-0.089,0.926,0.259,1.238l0,0
					c0.423,0.379,0.475,1.023,0.118,1.466l0,0c-0.293,0.363-0.316,0.875-0.057,1.264l0,0c0.316,0.473,0.206,1.11-0.25,1.449l0,0
					c-0.374,0.279-0.524,0.769-0.369,1.21l0,0c0.188,0.536-0.077,1.126-0.602,1.342l0,0c-0.432,0.177-0.699,0.615-0.659,1.08l0,0
					c0.049,0.566-0.354,1.072-0.917,1.15l0,0c-0.462,0.064-0.83,0.422-0.906,0.882l0,0c-0.093,0.56-0.61,0.95-1.174,0.885l0,0
					c-0.464-0.053-0.909,0.202-1.097,0.629l0,0c-0.23,0.52-0.826,0.768-1.357,0.566l0,0c-0.436-0.166-0.93-0.03-1.219,0.336l0,0
					c-0.352,0.446-0.992,0.539-1.455,0.21l0,0c-0.381-0.27-0.893-0.261-1.265,0.023l0,0c-0.452,0.345-1.094,0.275-1.462-0.158l0,0
					c-0.302-0.356-0.8-0.475-1.231-0.293l0,0c-0.523,0.221-1.129-0.006-1.377-0.517l0,0c-0.204-0.42-0.657-0.659-1.119-0.589l0,0
					c-0.562,0.084-1.092-0.286-1.205-0.843l0,0c-0.093-0.458-0.473-0.802-0.937-0.849l0,0c-0.565-0.058-0.986-0.549-0.957-1.116l0,0
					c0.023-0.466-0.259-0.894-0.697-1.056l0,0c-0.533-0.197-0.819-0.777-0.65-1.319l0,0c0.139-0.446-0.028-0.93-0.412-1.196l0,0
					c-0.467-0.323-0.6-0.956-0.301-1.439l0,0c0.245-0.397,0.204-0.908-0.102-1.261h0c-0.372-0.429-0.343-1.075,0.066-1.469l0,0
					c0.336-0.324,0.423-0.829,0.215-1.246l0,0c-0.254-0.508-0.065-1.127,0.429-1.407l0,0c0.406-0.23,0.616-0.697,0.518-1.154l0,0
					c-0.12-0.556,0.217-1.107,0.766-1.256l0,0c0.451-0.122,0.77-0.522,0.789-0.989l0,0c0.022-0.568,0.486-1.019,1.054-1.026l0,0
					c0.467-0.006,0.876-0.314,1.01-0.762l0,0c0.163-0.544,0.724-0.866,1.276-0.731l0,0c0.454,0.111,0.927-0.087,1.167-0.487l0,0
					c0.293-0.487,0.916-0.659,1.418-0.391l0,0c0.412,0.22,0.919,0.147,1.252-0.181l0,0c0.405-0.399,1.051-0.41,1.47-0.026l0,0
					C203.24,284.367,203.749,284.422,204.153,284.188z"/>
				<circle style="opacity:0.2;fill:#FFFFFF;enable-background:new    ;" cx="202.35" cy="294.97" r="9.219"/>
				<polygon style="fill:#407BFF;" points="202.846,290.392 204.007,293.566 207.281,294.41 204.62,296.495 204.83,299.869 
					202.024,297.983 198.88,299.225 199.807,295.974 197.654,293.368 201.032,293.245 				"/>
			</g>
			<g>
				
					<ellipse transform="matrix(0.7791 -0.6269 0.6269 0.7791 -135.0448 214.0441)" style="fill:#407BFF;" cx="236.172" cy="298.629" rx="11.191" ry="11.191"/>
				<path style="opacity:0.2;fill:#FFFFFF;enable-background:new    ;" d="M244.563,299.537c-0.501,4.634-4.665,7.985-9.299,7.483
					c-4.634-0.501-7.985-4.665-7.483-9.299c0.501-4.634,4.665-7.985,9.299-7.483C241.714,290.739,245.064,294.902,244.563,299.537z"
					/>
				<g style="opacity:0.2;enable-background:new    ;">
					<path style="fill:#FFFFFF;" d="M235.129,308.264c-5.314-0.575-9.168-5.365-8.593-10.678c0.575-5.313,5.365-9.168,10.678-8.593
						c5.313,0.575,9.168,5.365,8.593,10.678C245.232,304.984,240.442,308.839,235.129,308.264z M237.151,289.581
						c-4.99-0.54-9.488,3.08-10.028,8.069c-0.54,4.99,3.08,9.487,8.07,10.027c4.989,0.54,9.487-3.08,10.027-8.069
						C245.76,294.618,242.14,290.12,237.151,289.581z"/>
				</g>
				<polygon style="fill:#407BFF;" points="237.949,299.015 236.54,295.224 234.352,298.626 230.844,294.916 231.689,301.589 
					233.778,301.815 235.596,302.012 236.011,302.056 237.828,302.253 239.917,302.479 242.17,296.141 				"/>
			</g>
		</g>
		<path style="fill:#EEC1BB;" d="M241.663,200.924l2.468-2.264l2.024,0.219l0.372-2.875l-3.618-0.835c0,0-5.038-0.686-6.781-0.696
			c-0.726-0.004-1.579,0-3.612,4.471C232.155,199.737,241.663,200.924,241.663,200.924z"/>
		<path style="fill:#EEC1BB;" d="M323.287,207.224c0,0,1.247-2.618,1.916-3.199c0.668-0.581,6.771,0.763,7.783,1.599
			c1.011,0.836,0.539,2.707,0.539,2.707s-1.701,2.663-2.862,2.518c-1.162-0.145-7.056-0.436-7.375-0.871
			C322.967,209.542,323.287,207.224,323.287,207.224z"/>
	</g>
</g>
</svg>
