<svg version="1.2" xmlns="http://www.w3.org/2000/svg" viewBox="0 0 450 360" width="450" height="360">
	<title>Experience-Vector1-svg</title>
	<defs>
		<clipPath clipPathUnits="userSpaceOnUse" id="cp1">
			<path d="m259.33 108.72q-0.44 1.72-1.33 3.21l1.93 2.25-3.81 3.81-2.26-1.92q-1.48 0.89-3.21 1.33l-0.23 2.95h-5.39l-0.23-2.95q-1.72-0.44-3.21-1.33l-2.25 1.92-3.81-3.81 1.92-2.25q-0.89-1.48-1.33-3.21l-2.95-0.23v-5.39l2.95-0.23q0.44-1.72 1.33-3.21l-1.92-2.25 3.81-3.81 2.25 1.92q1.49-0.89 3.21-1.33l0.23-2.95h5.39l0.23 2.95q1.73 0.44 3.21 1.33l2.26-1.92 3.81 3.81-1.93 2.25q0.89 1.49 1.33 3.21l2.95 0.23v5.39zm-6.42-2.93c0-2.86-2.32-5.18-5.18-5.18-2.86 0-5.18 2.32-5.18 5.18 0 2.87 2.32 5.19 5.18 5.19 2.86 0 5.18-2.32 5.18-5.19z"/>
		</clipPath>
		<clipPath clipPathUnits="userSpaceOnUse" id="cp2">
			<path d="m234.78 127.42q-0.32 1.24-0.96 2.31l1.38 1.62-2.73 2.74-1.62-1.39q-1.07 0.64-2.31 0.96l-0.17 2.12h-3.87l-0.17-2.12q-1.24-0.32-2.31-0.96l-1.62 1.39-2.73-2.74 1.38-1.62q-0.64-1.07-0.96-2.31l-2.12-0.17v-3.87l2.12-0.17q0.32-1.24 0.96-2.31l-1.38-1.62 2.73-2.73 1.62 1.38q1.07-0.64 2.31-0.96l0.17-2.12h3.87l0.17 2.12q1.24 0.32 2.31 0.96l1.62-1.38 2.73 2.74-1.38 1.62q0.64 1.07 0.96 2.3l2.12 0.17v3.87zm-4.62-2.1c0-2.06-1.67-3.72-3.72-3.72-2.06 0-3.73 1.66-3.73 3.72 0 2.06 1.67 3.73 3.73 3.73 2.05 0 3.72-1.67 3.72-3.73z"/>
		</clipPath>
		<clipPath clipPathUnits="userSpaceOnUse" id="cp3">
			<path d="m352.72 219.64l-32.22 29.25c-15.12-12.87-10.25-32.25-10.25-32.25l11.58-8.13 13.98-9.82c0 0 7.58 3.48 12.81 8.56 3.65 3.56 6.15 7.9 4.1 12.39z"/>
		</clipPath>
		<clipPath clipPathUnits="userSpaceOnUse" id="cp4">
			<path d="m339.72 216.38c0 0-5.3-1.2-9.18-8.7-3.88-7.51-3.43-42.82-2.56-49.82 0.87-7 14.28-10.85 14.91-3.81 0.1 1.07 0.51 3.17 1.12 6 0.8 3.63 1.92 8.46 3.12 13.8 4.04 17.89 9.01 41.58 5.59 45.79"/>
		</clipPath>
		<clipPath clipPathUnits="userSpaceOnUse" id="cp5">
			<path d="m381.37 110.98q0 0.01-0.03 0.19c-0.52 5.67-7.46 4.6-16.61 6.18-6.97 1.2-16.08 6.84-22.77 11.6-5.27 3.74-9.03 6.93-9.03 6.93 0 0-7.68-5.11-14.62-19.32 0 0 25.12-15.77 28.05-35.28 2.31-15.3 24.48-0.31 32.82 20.61 1.66 4.15 2.33 7.05 2.19 9.09z"/>
		</clipPath>
		<clipPath clipPathUnits="userSpaceOnUse" id="cp6">
			<path d="m344.46 129.02c0 0-15.43 11.65-18.7 11.54-3.28-0.1-7.76-0.19-12.07-5.94-3.33-4.45-2.84-8.29-1.88-11 0.27-0.8 0.59-1.49 0.86-2.08 0.67-1.46 13.43-14.31 13.43-14.31l3.17 0.84c0 0 2.06 11.53 14.62 19.53z"/>
		</clipPath>
		<clipPath clipPathUnits="userSpaceOnUse" id="cp7">
			<path d="m328.13 139.25c0 0 6.09 16.97 10.49 20.08 4.4 3.12 15.78-6.35 14.76-7.95-1.03-1.61-12.03-11.82-13.76-20.13 0 0-5.18 0.72-11.49 8z"/>
		</clipPath>
		<clipPath clipPathUnits="userSpaceOnUse" id="cp8">
			<path d="m382.12 324.38c-1.65 1.12-4.81 1.11-8.82 0.37-3.68-0.68-8.07-1.97-12.65-3.56-15.35-5.32-32.82-13.96-32.82-13.96 0 0 0.05-20.52 12.11-28.47 0 0 15.64 10.71 25.71 13.36 8.44 2.23 16.47 32.26 16.47 32.26z"/>
		</clipPath>
		<clipPath clipPathUnits="userSpaceOnUse" id="cp9">
			<path d="m368.73 270.21v0.32c-0.05 2.94-0.88 8.77-2.75 19.1-1.75 9.66-2.08 10.41-3.25 10.9-1.43 0.59-11.68 2.87-16.05 3.81q-0.54 0.11-0.95 0.2c-0.63 0.14-2.29-0.73-2.18-1.36 0.52-3.19 4.08-32.03 5.51-32.97 2.17-1.42 16.2-2.76 17.76-2.33 0.73 0.2 1.91 1.58 1.91 2.33z"/>
		</clipPath>
		<clipPath clipPathUnits="userSpaceOnUse" id="cp10">
			<path d="m156.49 203c0 0-0.35 16.36-18.16 25.16l-30.83-43.63c-2.17-11.8 21.5-16.2 21.5-16.2l0.01 0.02 11.16 14.07z"/>
		</clipPath>
		<clipPath clipPathUnits="userSpaceOnUse" id="cp11">
			<path d="m107.5 184.53c-1.26-2.7 0-9.25 2.24-16.84 2.57-8.71 6.42-18.81 9.25-26.03 1.56-4.01 2.81-7.13 3.34-8.66 2.34-6.67 14.4 0.33 13.54 7.33-0.87 7 1.65 31.67-3.94 38-5.6 6.34-11.03 6.2-11.03 6.2"/>
		</clipPath>
		<clipPath clipPathUnits="userSpaceOnUse" id="cp12">
			<path d="m101.4 148.18l-21.51-65.04 47.71-15.78 21.51 65.04z"/>
		</clipPath>
		<clipPath clipPathUnits="userSpaceOnUse" id="cp13">
			<path d="m131.84 308.23c0 0-47.51 17.21-55.27 7.86 0 0 3.52-9.89 8.3-17.44 2.57-4.06 5.52-7.45 8.48-8.23 3.8-1.01 8.5-2.78 12.87-4.58 7.2-2.98 13.51-6.08 13.51-6.08 12.05 7.95 12.11 28.47 12.11 28.47z"/>
		</clipPath>
		<clipPath clipPathUnits="userSpaceOnUse" id="cp14">
			<path d="m80.22 318.15c-11.18 0.5-11.89-25.82-6.27-64.91 0 0 8.62-17.11 12.6-17.34 1.07-0.06 2.55-0.09 4.13-0.09 4.29-0.03 9.37 0.09 9.37 0.09 0 0 2.3 9.91 2.32 13.28 0.03 5.05-2.19 5.62-2.19 5.62 0.12 4.76-3.73 5.24-7.86 4.59 0 0-0.07 0.24-0.29 0.6-0.55 0.92-2.04 2.63-5.64 3.09-0.06 15.25 14.75 38.34 6.91 43.38"/>
		</clipPath>
		<clipPath clipPathUnits="userSpaceOnUse" id="cp15">
			<path d="m127.07 231.66c0 8.2-3.35 15.34-8.29 19.09h-15.85c-4.95-3.75-8.3-10.89-8.3-19.09q0.01-0.5 0.04-1.01h32.36q0.04 0.51 0.04 1.01z"/>
		</clipPath>
		<clipPath clipPathUnits="userSpaceOnUse" id="cp16">
			<path d="m120.9 252.27l-0.86-2.46h-18.38l-0.85 2.46"/>
		</clipPath>
		<clipPath clipPathUnits="userSpaceOnUse" id="cp17">
			<path d="m192.94 344.03c0 0-56.55 9.49-60.62 1.74q-0.61-1.18-0.82-2.76c-1.33-9.35 6.78-27.79 6.78-27.79 6.29-0.6 12.89 1.03 18.17 2.96q0.01 0.01 0.01 0c6.14 2.26 10.5 4.95 10.54 5.07l-0.42 0.92-0.14 0.29 13.21 0.42 11.82 0.38 0.27 0.01v0.02z"/>
		</clipPath>
		<clipPath clipPathUnits="userSpaceOnUse" id="cp18">
			<path d="m265.35 344.03c0 0 56.55 9.49 60.62 1.74q0.62-1.18 0.82-2.76c1.33-9.35-6.78-27.79-6.78-27.79-6.29-0.6-12.89 1.03-18.17 2.96q-0.01 0.01-0.01 0c-6.14 2.26-10.5 4.95-10.54 5.07l0.42 0.92 0.14 0.29-13.21 0.42-11.82 0.38-0.27 0.01v0.02z"/>
		</clipPath>
	</defs>
	<style>
		.s0 { fill: #92e3a9 } 
		.s1 { opacity: .7;fill: #ffffff } 
		.s2 { fill: none;stroke: #263238;stroke-linecap: round;stroke-linejoin: round } 
		.s3 { fill: #ffffff;stroke: #263238;stroke-linecap: round;stroke-linejoin: round } 
		.s4 { fill: #92e3a9;stroke: #263238;stroke-linecap: round;stroke-linejoin: round } 
		.s5 { opacity: .5;fill: #ffffff } 
		.s6 { opacity: .2;fill: #000000 } 
		.s7 { fill: #ffffff } 
		.s8 { opacity: .2;fill: #92e3a9 } 
		.s9 { opacity: .1;fill: #000000 } 
		.s10 { fill: #999999 } 
		.s11 { fill: #bfbfbf;stroke: #263238;stroke-miterlimit:10 } 
		.s12 { fill: #92e3a9;stroke: #263238;stroke-linecap: round;stroke-linejoin: round;stroke-width: 1 } 
		.s13 { fill: none;stroke: #263238;stroke-linecap: round;stroke-linejoin: round;stroke-width: 1 } 
		.s14 { fill: #757575 } 
		.s15 { fill: #757575;stroke: #263238;stroke-linecap: round;stroke-linejoin: round } 
		.s16 { fill: #000000 } 
		.s17 { fill: #ffffff;stroke: #263238;stroke-miterlimit:10 } 
		.s18 { fill: #999999;stroke: #263238;stroke-linecap: round;stroke-linejoin: round } 
		.s19 { fill: #263238 } 
		.s20 { opacity: .2;fill: none;stroke: #ffffff;stroke-miterlimit:10 } 
		.s21 { fill: none;stroke: #263238;stroke-miterlimit:10 } 
	</style>
	<g id="Background_Simple_1_">
		<g id="Layer">
			<path id="Layer" class="s0" d="m184.2 7c113.6-29.5 151.1 48.5 197.9 124.3 46.9 75.7 95.7 170.1 14.9 229.4h-337c0 0-49.2-12.5-50-78.8-0.6-48.7 48.1-55.4 64.1-130.1 15.9-74.8 52.2-129.8 110.1-144.8z"/>
			<path id="Layer" class="s1" d="m184.2 7c113.6-29.5 151.1 48.5 197.9 124.3 46.9 75.7 95.7 170.1 14.9 229.4h-337c0 0-49.2-12.5-50-78.8-0.6-48.7 48.1-55.4 64.1-130.1 15.9-74.8 52.2-129.8 110.1-144.8z"/>
		</g>
	</g>
	<g id="Graphics">
		<path id="Layer" fill-rule="evenodd" class="s2" d="m392.3 243.9h-26.1c-0.7 0-1.3 0.6-1.3 1.3v8c0 0.7 0.6 1.2 1.3 1.2h1.7c-0.6 1.2-1.6 2.9-1.4 2.9 0.3 0 3-1.9 4.3-2.9h21.5c0.7 0 1.3-0.5 1.3-1.2v-8c0-0.7-0.6-1.3-1.3-1.3z"/>
		<path id="Layer" fill-rule="evenodd" class="s2" d="m385.6 259.1h26.1c0.7 0 1.3 0.6 1.3 1.3v8c0 0.7-0.6 1.3-1.3 1.3h-1.7c0.6 1.1 1.6 2.9 1.4 2.9-0.3 0-3-2-4.3-2.9h-21.5c-0.7 0-1.3-0.6-1.3-1.3v-8c0-0.7 0.6-1.3 1.3-1.3z"/>
		<path id="Layer" fill-rule="evenodd" class="s2" d="m385.6 227.5h26.1c0.7 0 1.3 0.6 1.3 1.2v8c0 0.7-0.6 1.3-1.3 1.3h-1.7c0.6 1.1 1.6 2.9 1.4 2.9-0.3 0-3-2-4.3-2.9h-21.5c-0.7 0-1.3-0.6-1.3-1.3v-8c0-0.6 0.6-1.2 1.3-1.2z"/>
		<path id="Layer" fill-rule="evenodd" class="s2" d="m74.1 180.6c0.7-4.2-2.5-7.2-6.1-7.2-3.6 0.1-6.8 6-6.8 6 0 0-4.2-4.3-8-4.6-3.8-0.4-7.1 3.6-5.3 9 2.5 7.6 14.1 12.6 14.1 12.6 0 0 10.6-7.3 12.1-15.8z"/>
		<path id="Layer" fill-rule="evenodd" class="s2" d="m48.8 195.5c-0.5-2.2-2.6-3-4.4-2.3-1.8 0.8-2.1 4.3-2.1 4.3 0 0-2.9-1.2-4.8-0.6-2 0.6-2.8 3.3-0.8 5.5 2.8 3.2 9.5 3.3 9.5 3.3 0 0 3.7-5.8 2.6-10.2z"/>
		<path id="Layer" fill-rule="evenodd" class="s2" d="m55.3 200.5c-10.1 10.3-3.5 24.6 7 24.5 12-0.2 11-19.6 5.4-10.7-5.6 8.9 8.4 24 15.8 15.3"/>
	</g>
	<g id="Bubble">
		<path id="Layer" class="s3" d="m287 106.7c0-24.2-26.1-43.8-58.3-43.8-32.1 0-58.2 19.6-58.2 43.8 0 22.8 23.2 41.5 52.8 43.6l5.4 14.3 5.5-14.3c29.6-2.1 52.8-20.8 52.8-43.6z"/>
		<g id="Layer">
			<path id="Layer" fill-rule="evenodd" class="s4" d="m229 100.2q-0.5 2.3-1.7 4.2l2.5 2.9-4.9 4.9-2.9-2.5q-2 1.2-4.2 1.8l-0.3 3.8h-6.9l-0.4-3.8q-2.2-0.6-4.1-1.8l-2.9 2.5-4.9-4.9 2.4-2.9q-1.1-1.9-1.7-4.2l-3.8-0.3v-6.9l3.8-0.3q0.6-2.3 1.7-4.2l-2.4-2.9 4.9-4.9 2.9 2.5q1.9-1.2 4.1-1.7l0.4-3.9h6.9l0.3 3.9q2.2 0.5 4.2 1.7l2.9-2.5 4.9 4.9-2.5 2.9q1.2 1.9 1.7 4.2l3.9 0.3v6.9zm-8.3-3.7c0-3.7-3-6.7-6.7-6.7-3.7 0-6.7 3-6.7 6.7 0 3.7 3 6.7 6.7 6.7 3.7 0 6.7-3 6.7-6.7z"/>
			<g id="Layer">
				<path id="XMLID_3_" fill-rule="evenodd" class="s0" d="m259.3 108.7q-0.4 1.7-1.3 3.2l1.9 2.3-3.8 3.8-2.2-1.9q-1.5 0.9-3.2 1.3l-0.3 3h-5.4l-0.2-3q-1.7-0.4-3.2-1.3l-2.3 1.9-3.8-3.8 2-2.3q-0.9-1.5-1.4-3.2l-2.9-0.2v-5.4l2.9-0.2q0.5-1.8 1.4-3.2l-2-2.3 3.8-3.8 2.3 1.9q1.5-0.9 3.2-1.3l0.2-3h5.4l0.3 3q1.7 0.4 3.2 1.3l2.2-1.9 3.8 3.8-1.9 2.3q0.9 1.4 1.3 3.2l3 0.2v5.4zm-6.4-2.9c0-2.9-2.4-5.2-5.2-5.2-2.9 0-5.2 2.3-5.2 5.2 0 2.8 2.3 5.1 5.2 5.1 2.8 0 5.2-2.3 5.2-5.1z"/>
				<g id="Clip-Path" clip-path="url(#cp1)">
					<path id="Layer" fill-rule="evenodd" class="s5" d="m259.3 108.7q-0.4 1.7-1.3 3.2l1.9 2.3-3.8 3.8-2.2-1.9q-1.5 0.9-3.2 1.3l-0.3 3h-5.4l-0.2-3q-1.7-0.4-3.2-1.3l-2.3 1.9-3.8-3.8 2-2.3q-0.9-1.5-1.4-3.2l-2.9-0.2v-5.4l2.9-0.2q0.5-1.8 1.4-3.2l-2-2.3 3.8-3.8 2.3 1.9q1.5-0.9 3.2-1.3l0.2-3h5.4l0.3 3q1.7 0.4 3.2 1.3l2.2-1.9 3.8 3.8-1.9 2.3q0.9 1.4 1.3 3.2l3 0.2v5.4zm-6.4-2.9c0-2.9-2.4-5.2-5.2-5.2-2.9 0-5.2 2.3-5.2 5.2 0 2.8 2.3 5.1 5.2 5.1 2.8 0 5.2-2.3 5.2-5.1z"/>
				</g>
				<path id="XMLID_3_" fill-rule="evenodd" class="s2" d="m259.3 108.7q-0.4 1.7-1.3 3.2l1.9 2.3-3.8 3.8-2.2-1.9q-1.5 0.9-3.2 1.3l-0.3 3h-5.4l-0.2-3q-1.7-0.4-3.2-1.3l-2.3 1.9-3.8-3.8 2-2.3q-0.9-1.5-1.4-3.2l-2.9-0.2v-5.4l2.9-0.2q0.5-1.8 1.4-3.2l-2-2.3 3.8-3.8 2.3 1.9q1.5-0.9 3.2-1.3l0.2-3h5.4l0.3 3q1.7 0.4 3.2 1.3l2.2-1.9 3.8 3.8-1.9 2.3q0.9 1.4 1.3 3.2l3 0.2v5.4zm-6.4-2.9c0-2.9-2.4-5.2-5.2-5.2-2.9 0-5.2 2.3-5.2 5.2 0 2.8 2.3 5.1 5.2 5.1 2.8 0 5.2-2.3 5.2-5.1z"/>
			</g>
			<g id="Layer">
				<path id="XMLID_2_" fill-rule="evenodd" class="s0" d="m234.8 127.4q-0.3 1.3-1 2.3l1.4 1.6-2.7 2.8-1.7-1.4q-1 0.6-2.3 1l-0.1 2.1h-3.9l-0.2-2.1q-1.2-0.4-2.3-1l-1.6 1.4-2.7-2.8 1.3-1.6q-0.6-1-0.9-2.3l-2.1-0.1v-3.9l2.1-0.2q0.3-1.2 0.9-2.3l-1.3-1.6 2.7-2.8 1.6 1.4q1.1-0.6 2.3-0.9l0.2-2.1h3.9l0.1 2.1q1.3 0.3 2.3 0.9l1.7-1.4 2.7 2.8-1.4 1.6q0.7 1.1 1 2.3l2.1 0.2v3.9zm-4.6-2.1c0-2.1-1.7-3.8-3.7-3.8-2.1 0-3.8 1.7-3.8 3.8 0 2 1.7 3.7 3.8 3.7 2 0 3.7-1.7 3.7-3.7z"/>
				<g id="Clip-Path" clip-path="url(#cp2)">
					<path id="Layer" fill-rule="evenodd" class="s1" d="m234.8 127.4q-0.3 1.3-1 2.3l1.4 1.6-2.7 2.8-1.7-1.4q-1 0.6-2.3 1l-0.1 2.1h-3.9l-0.2-2.1q-1.2-0.4-2.3-1l-1.6 1.4-2.7-2.8 1.3-1.6q-0.6-1-0.9-2.3l-2.1-0.1v-3.9l2.1-0.2q0.3-1.2 0.9-2.3l-1.3-1.6 2.7-2.8 1.6 1.4q1.1-0.6 2.3-0.9l0.2-2.1h3.9l0.1 2.1q1.3 0.3 2.3 0.9l1.7-1.4 2.7 2.8-1.4 1.6q0.7 1.1 1 2.3l2.1 0.2v3.9zm-4.6-2.1c0-2.1-1.7-3.8-3.7-3.8-2.1 0-3.8 1.7-3.8 3.8 0 2 1.7 3.7 3.8 3.7 2 0 3.7-1.7 3.7-3.7z"/>
				</g>
				<path id="XMLID_2_" fill-rule="evenodd" class="s2" d="m234.8 127.4q-0.3 1.3-1 2.3l1.4 1.6-2.7 2.8-1.7-1.4q-1 0.6-2.3 1l-0.1 2.1h-3.9l-0.2-2.1q-1.2-0.4-2.3-1l-1.6 1.4-2.7-2.8 1.3-1.6q-0.6-1-0.9-2.3l-2.1-0.1v-3.9l2.1-0.2q0.3-1.2 0.9-2.3l-1.3-1.6 2.7-2.8 1.6 1.4q1.1-0.6 2.3-0.9l0.2-2.1h3.9l0.1 2.1q1.3 0.3 2.3 0.9l1.7-1.4 2.7 2.8-1.4 1.6q0.7 1.1 1 2.3l2.1 0.2v3.9zm-4.6-2.1c0-2.1-1.7-3.8-3.7-3.8-2.1 0-3.8 1.7-3.8 3.8 0 2 1.7 3.7 3.8 3.7 2 0 3.7-1.7 3.7-3.7z"/>
			</g>
		</g>
	</g>
	<g id="Character">
		<g id="Layer">
			<path id="Layer" class="s0" d="m321.5 252.6l-7.1 5.4c-11-4.3-10.3-5.2-20.9-6.7-5.5-0.8-16.8-0.5-26.4 0-8.6 0.4-15.7 1-15.7 1 0 0 21-20.9 26.8-24.1 5.8-3 31.3-14 32.1-14.3q0 0 0 0c0 0 19.2 21.4 11.2 38.7z"/>
			<path id="Layer" class="s6" d="m321.5 252.6l-7.1 5.4c-11-4.3-10.3-5.2-20.9-6.7-5.5-0.8-16.8-0.5-26.4 0 11.9-8.2 44-1.5 44-1.5 0 0-5-6.3-5.4-19.2-0.3-12.3 4.3-16.4 4.6-16.7q0 0 0 0c0 0 19.2 21.4 11.2 38.7z"/>
			<path id="Layer" fill-rule="evenodd" class="s2" d="m251.4 252.3c0 0 21.1-21 26.8-24.1 5.8-3.1 32.1-14.3 32.1-14.3 0 0 19.2 21.4 11.2 38.7l-7.1 5.4"/>
			<g id="Layer">
				<path id="XMLID_17_" class="s7" d="m352.7 219.6l-32.2 29.3c-15.1-12.9-10.2-32.3-10.2-32.3l11.5-8.1 14-9.8c0 0 7.6 3.5 12.8 8.6 3.7 3.5 6.2 7.8 4.1 12.3z"/>
				<g id="Clip-Path" clip-path="url(#cp3)">
					<path id="Layer" class="s8" d="m348.6 207.3c-0.4 1.4-1.5 2.9-3.3 4.4-10.4 8.7-18.9 2.1-23.5-3.2l14-9.8c0 0 7.6 3.5 12.8 8.5z"/>
				</g>
				<path id="XMLID_17_" fill-rule="evenodd" class="s2" d="m352.7 219.6l-32.2 29.3c-15.1-12.9-10.2-32.3-10.2-32.3l11.5-8.1 14-9.8c0 0 7.6 3.5 12.8 8.6 3.7 3.5 6.2 7.8 4.1 12.3z"/>
			</g>
			<g id="Layer">
				<path id="XMLID_19_" class="s7" d="m339.7 216.4c0 0-5.3-1.2-9.2-8.7-3.8-7.5-3.4-42.8-2.5-49.8 0.9-7 14.3-10.9 14.9-3.8 0.1 1 0.5 3.1 1.1 6 0.8 3.6 1.9 8.4 3.1 13.8 4.1 17.8 9 41.5 5.6 45.7"/>
				<g id="Clip-Path" clip-path="url(#cp4)">
					<path id="Layer" class="s8" d="m347.1 173.8c-5.9-4.3-10.1-12.6-10.1-12.6l7-1.2c0.8 3.7 1.9 8.5 3.1 13.8z"/>
				</g>
				<path id="XMLID_19_" fill-rule="evenodd" class="s2" d="m339.7 216.4c0 0-5.3-1.2-9.2-8.7-3.8-7.5-3.4-42.8-2.5-49.8 0.9-7 14.3-10.9 14.9-3.8 0.1 1 0.5 3.1 1.1 6 0.8 3.6 1.9 8.4 3.1 13.8 4.1 17.8 9 41.5 5.6 45.7"/>
			</g>
			<g id="Layer">
				<g id="Layer">
					<g id="Layer">
						<path id="XMLID_10_" class="s7" d="m381.4 111q0 0-0.1 0.2c-0.5 5.6-7.4 4.6-16.6 6.2-6.9 1.2-16 6.8-22.7 11.6-5.3 3.7-9.1 6.9-9.1 6.9 0 0-7.6-5.1-14.6-19.3 0 0 25.1-15.8 28.1-35.3 2.3-15.3 24.4-0.3 32.8 20.6 1.6 4.1 2.3 7 2.2 9.1z"/>
						<g id="Clip-Path" clip-path="url(#cp5)">
							<path id="Layer" class="s9" d="m381.3 111.2c-0.5 5.6-7.4 4.6-16.6 6.2-6.9 1.2-16 6.8-22.7 11.6-3.1-1.8-4.8-3.6-4.1-5.1 3.1-6.8 14.7-9 14.7-9 0 0-1-4.5 0.8-6.7 1.8-2.2 8.5 2.2 18 5.5 8.5 3.1 9.8-1.5 9.9-2.5z"/>
						</g>
						<path id="XMLID_10_" fill-rule="evenodd" class="s2" d="m381.4 111q0 0-0.1 0.2c-0.5 5.6-7.4 4.6-16.6 6.2-6.9 1.2-16 6.8-22.7 11.6-5.3 3.7-9.1 6.9-9.1 6.9 0 0-7.6-5.1-14.6-19.3 0 0 25.1-15.8 28.1-35.3 2.3-15.3 24.4-0.3 32.8 20.6 1.6 4.1 2.3 7 2.2 9.1z"/>
					</g>
					<path id="Layer" fill-rule="evenodd" class="s2" d="m355.2 94c6.1-2.4 8.5-6.6 9.7-5.6 1.2 0.9 5.5 4 4.8 5.8-0.7 1.9-6.3 8.3-6.8 9.4"/>
					<path id="Layer" fill-rule="evenodd" class="s2" d="m352.3 77.6c-3.3 0.4-2.8 9.1 5.3 19.8 8.1 10.7 16.1 15.6 19.7 14.3 3.5-1.2 1-5.8 1-5.8"/>
					<g id="Layer">
						<path id="XMLID_8_" class="s0" d="m344.5 129c0 0-15.5 11.7-18.7 11.6-3.3-0.1-7.8-0.2-12.1-6-3.3-4.4-2.8-8.3-1.9-11 0.3-0.8 0.6-1.5 0.9-2.1 0.6-1.4 13.4-14.3 13.4-14.3l3.2 0.9c0 0 2 11.5 14.6 19.5z"/>
						<g id="Clip-Path" clip-path="url(#cp6)">
							<path id="Layer" class="s6" d="m344.5 129c0 0-15.5 11.7-18.7 11.6-3.3-0.1-7.8-0.2-12.1-6-3.3-4.4-2.8-8.3-1.9-11 0.8 3.2 2.3 7.6 4.8 9.4 4 2.9 20.4-6.3 20.4-6.3 0 0-9.1-11.2-7.7-18.6 0 0 2 11.5 14.6 19.5z"/>
						</g>
						<path id="XMLID_8_" fill-rule="evenodd" class="s2" d="m344.5 129c0 0-15.5 11.7-18.7 11.6-3.3-0.1-7.8-0.2-12.1-6-3.3-4.4-2.8-8.3-1.9-11 0.3-0.8 0.6-1.5 0.9-2.1 0.6-1.4 13.4-14.3 13.4-14.3l3.2 0.9c0 0 2 11.5 14.6 19.5z"/>
					</g>
					<path id="Layer" class="s9" d="m352.3 77.6c-3.3 0.4-2.8 9.1 5.3 19.8 8.1 10.7 16.1 15.6 19.7 14.3 3.5-1.2 1-5.8 1-5.8 0 0-2.2-9.2-10.1-17.6-9.2-9.9-15.9-10.7-15.9-10.7z"/>
				</g>
				<path id="Layer" class="s3" d="m356.9 147.1c-0.4 4.4-12.2 20.6-19.9 17.1"/>
				<g id="Layer">
					<path id="XMLID_9_" class="s0" d="m328.1 139.3c0-0.1 6.1 16.9 10.5 20 4.4 3.1 15.8-6.3 14.8-7.9-1-1.6-12-11.8-13.8-20.2 0 0-5.2 0.8-11.5 8z"/>
					<g id="Clip-Path" clip-path="url(#cp7)">
						<path id="Layer" class="s6" d="m328.1 139.3c0-0.1 6.1 16.9 10.5 20 4.4 3.1 15.8-6.3 14.8-7.9-1-1.6-12-11.8-13.8-20.2 0 0-5.2 0.8-11.5 8z"/>
					</g>
					<path id="XMLID_9_" fill-rule="evenodd" class="s2" d="m328.1 139.3c0-0.1 6.1 16.9 10.5 20 4.4 3.1 15.8-6.3 14.8-7.9-1-1.6-12-11.8-13.8-20.2 0 0-5.2 0.8-11.5 8z"/>
				</g>
				<g id="Layer">
					<path id="Layer" class="s3" d="m356.6 148.5c1-3.5-1.5-2.6-1.1-5.9 0.4-3.3-1.7-3.2-2.4-6.6-0.6-3.4-2.7-3.1-3.9-5.9-1.3-2.8-4.3-1.7-7.3-0.3-2.9 1.4-6.9 7.9-6.9 7.9-0.6 4.1 2.9 3.3 2.9 3.3-2.3 4.3 1.6 5.2 1.6 5.2-0.2 4.6 2.5 4.1 2.5 4.1 0 0-0.1 2.1 2 2.5 1.3 0.2 11.6-0.8 12.6-4.3z"/>
					<path id="Layer" fill-rule="evenodd" class="s2" d="m337.9 141c0 0 5.7-6 7.4-6.7"/>
					<path id="Layer" fill-rule="evenodd" class="s2" d="m339.5 146.2c0 0 3.4-3.8 9-5.7"/>
					<path id="Layer" fill-rule="evenodd" class="s2" d="m342 150.3c0 0 7.5-3.7 8.6-4.1"/>
				</g>
				<path id="Layer" class="s3" d="m332.1 163.4c0 0-5.5-5.1-6.5-7.3-1-2.1-2.9-11.4-1.5-13.9 1.3-2.5 5.4-6.7 6-8.7 0.6-2 4.1 2.4 0.1 10.4 0 0 4.8 5.8 4 12.1"/>
			</g>
			<path id="Layer" class="s9" d="m381.4 111q0 0-0.1 0.2 0.1-0.1 0.1-0.2z"/>
		</g>
		<g id="Layer">
			<path id="Layer" class="s0" d="m328.9 311.4c0 0-2.2 0.9-5.4-3.1-6-7.5-15.1-25.6-21-34.3-2.5-3.7-9.6-7.4-17.1-10.4-11.8-4.8-24.9-8.1-24.9-8.1 0 0 32-2 40.1 0.4 7 2.1 31.8 16.4 38.9 20.4 1.2 0.7 1.9 1.1 1.9 1.1 0 0 1.1 15.1-12.5 34z"/>
			<path id="Layer" class="s6" d="m328.9 311.4c0 0-2.2 0.9-5.4-3.1-6-7.5-15.1-25.6-21-34.3-2.5-3.7-9.6-7.4-17.1-10.4 28.9 6.6 39.2 35.7 39.2 35.7 0 0 1.5-16.6 14.9-23 1.2 0.7 1.9 1.1 1.9 1.1 0 0 1.1 15.1-12.5 34z"/>
			<path id="Layer" fill-rule="evenodd" class="s2" d="m260.5 255.5c0 0 32-2 40.1 0.4 8.2 2.5 40.8 21.5 40.8 21.5 0 0 1.1 15.1-12.5 34"/>
			<g id="Layer">
				<path id="XMLID_16_" class="s7" d="m382.1 324.4c-1.6 1.1-4.8 1.1-8.8 0.4-3.7-0.7-8.1-2-12.6-3.6-15.4-5.3-32.9-14-32.9-14 0 0 0.1-20.5 12.1-28.4 0 0 15.7 10.7 25.8 13.3 8.4 2.3 16.4 32.3 16.4 32.3z"/>
				<g id="Clip-Path" clip-path="url(#cp8)">
					<path id="Layer" class="s8" d="m373.3 324.8c-3.7-0.7-8.1-2-12.6-3.6-2.3-10.4 4.2-22 4.2-22 0.3 11.1 4.6 19.9 8.4 25.5z"/>
				</g>
				<path id="XMLID_16_" fill-rule="evenodd" class="s2" d="m382.1 324.4c-1.6 1.1-4.8 1.1-8.8 0.4-3.7-0.7-8.1-2-12.6-3.6-15.4-5.3-32.9-14-32.9-14 0 0 0.1-20.5 12.1-28.4 0 0 15.7 10.7 25.8 13.3 8.4 2.3 16.4 32.3 16.4 32.3z"/>
			</g>
			<path id="Layer" class="s3" d="m367.7 318.5c-0.9-2.2-1.6-4.9-2.1-8.1"/>
			<path id="Layer" class="s3" d="m367.7 283.8c4.5 0.7 8.6 10.3 11.3 13.7 0 0 7.8 3.6 9.2 7.1 1.3 3.4 6.6 17.2-3.9 20-6.1 1.7-10.7 1.4-13.9-1.9"/>
			<g id="Layer">
				<g id="Layer">
					<path id="XMLID_4_" class="s10" d="m368.7 270.2v0.3c0 3-0.8 8.8-2.7 19.1-1.8 9.7-2.1 10.4-3.3 10.9-1.4 0.6-11.6 2.9-16 3.8q-0.6 0.1-1 0.2c-0.6 0.2-2.3-0.7-2.1-1.3 0.5-3.2 4-32.1 5.5-33 2.1-1.4 16.2-2.8 17.7-2.3 0.8 0.2 1.9 1.6 1.9 2.3z"/>
					<g id="Clip-Path" clip-path="url(#cp9)">
						<path id="Layer" class="s6" d="m368.7 270.5c0 3-0.8 8.8-2.7 19.1-1.8 9.7-2.1 10.4-3.3 10.9-1.4 0.6-11.6 2.9-16 3.8 0.5-4.1 2.1-15.8 5.4-31.7z"/>
					</g>
					<path id="XMLID_4_" fill-rule="evenodd" class="s2" d="m368.7 270.2v0.3c0 3-0.8 8.8-2.7 19.1-1.8 9.7-2.1 10.4-3.3 10.9-1.4 0.6-11.6 2.9-16 3.8q-0.6 0.1-1 0.2c-0.6 0.2-2.3-0.7-2.1-1.3 0.5-3.2 4-32.1 5.5-33 2.1-1.4 16.2-2.8 17.7-2.3 0.8 0.2 1.9 1.6 1.9 2.3z"/>
				</g>
				<path id="Layer" fill-rule="evenodd" class="s2" d="m346.5 302.3c0 0 4.6-27.2 5.1-28.8 0.4-1.7 0.8-1 14.8-2.9"/>
			</g>
			<g id="Layer">
				<path id="Layer" class="s3" d="m365.6 310.4c0 0-7.2 2.6-6.7-1.9 0 0-1.7-1.1-1.7-3 0-1.8 1.2-3.8 1.2-3.8 0 0-2.8 4.8-5.1 2-0.6-0.7 1.9-5.9 1.9-5.9 0 0-2.3 1.4-3.4-1.2-0.3-0.8 3.5-7.9 4.3-8.4 2.8-1.8 10.1-5.5 12.6-4.1 2.5 1.4 3.4 5.9 4.9 7.6 1.5 1.7 0.6 7.3 0 11.3"/>
				<path id="Layer" class="s3" d="m355.2 297.8c0 0 2.6-4.5 3.4-5.1 0.7-0.6 7-2.4 7-2.4"/>
				<path id="Layer" class="s3" d="m358.4 301.7c1.6-1.7 2.5-3.8 3.2-3.9 0.6-0.1 5.7-0.8 6.1-1"/>
				<path id="Layer" class="s3" d="m358.6 308.3c1.8-2 4.5-4.1 5.1-4.1 0.6 0 3.9-0.4 4-0.5"/>
				<path id="Layer" class="s3" d="m366.8 309.4c0 0-1.5 1.3-3.7 0.9"/>
			</g>
			<path id="Layer" class="s3" d="m365.6 310.4c0 0 6.6 5.5 9.6-1"/>
		</g>
		<g id="Layer">
			<path id="Layer" class="s0" d="m204 251.9c0 0-2.9-0.1-7.2-0.2-9.7-0.3-26.4-0.6-30.4-0.4-7.3 0.5-14.4 3.9-14.4 3.9l-16.1-22c2.4-30.5 21.9-33.9 21.9-33.9 0 0 13.7 15.7 18.7 20 5 4.2 27.5 32.6 27.5 32.6z"/>
			<path id="Layer" class="s6" d="m196.8 251.7c-9.7-0.3-26.4-0.6-30.4-0.4-7.3 0.5-14.4 3.9-14.4 3.9l-16.1-22c2.4-30.5 21.9-33.9 21.9-33.9 0 0 1.1 18.7-13.8 31.4 0 0 4.6 12.9 14.7 15.5 10 2.6 29.6 0.5 38.1 5.5z"/>
			<path id="Layer" fill-rule="evenodd" class="s2" d="m204 251.9c0 0-22.5-28.4-27.5-32.6-5-4.3-18.7-20-18.7-20 0 0-19.5 3.4-21.9 33.9l16.1 22"/>
			<g id="Layer">
				<path id="XMLID_11_" class="s7" d="m156.5 203c0 0-0.4 16.4-18.2 25.2l-30.8-43.7c-2.2-11.8 21.5-16.2 21.5-16.2v0.1l11.2 14z"/>
				<g id="Clip-Path" clip-path="url(#cp10)">
					<path id="Layer" class="s8" d="m140.2 182.4c-10.4 8.2-22-0.6-22-0.6l10.8-13.5z"/>
				</g>
				<path id="XMLID_11_" fill-rule="evenodd" class="s2" d="m156.5 203c0 0-0.4 16.4-18.2 25.2l-30.8-43.7c-2.2-11.8 21.5-16.2 21.5-16.2v0.1l11.2 14z"/>
			</g>
			<g id="Layer">
				<path id="XMLID_7_" class="s7" d="m107.5 184.5c-1.3-2.7 0-9.2 2.2-16.8 2.6-8.7 6.5-18.8 9.3-26 1.6-4 2.8-7.2 3.3-8.7 2.4-6.7 14.4 0.3 13.6 7.3-0.9 7 1.6 31.7-4 38-5.6 6.4-11 6.2-11 6.2"/>
				<g id="Clip-Path" clip-path="url(#cp11)">
					<path id="Layer" class="s8" d="m127.1 137.6c0 0-4.6 27-8.9 28.6-1.8 0.7-5.2 1.1-8.5 1.5 2.6-8.7 6.5-18.8 9.3-26z"/>
				</g>
				<path id="XMLID_7_" fill-rule="evenodd" class="s2" d="m107.5 184.5c-1.3-2.7 0-9.2 2.2-16.8 2.6-8.7 6.5-18.8 9.3-26 1.6-4 2.8-7.2 3.3-8.7 2.4-6.7 14.4 0.3 13.6 7.3-0.9 7 1.6 31.7-4 38-5.6 6.4-11 6.2-11 6.2"/>
			</g>
			<g id="Layer">
				<path id="Layer" class="s11" d="m117.2 153.2c-0.9 1.2-2.7 1.5-3.9 0.6l-42.1-30.4c-1.3-1-1.6-2.7-0.7-4l41.2-57c1-1.3 2.7-1.5 4-0.6l42.1 30.4c1.3 0.9 1.5 2.7 0.6 3.9z"/>
				<path id="Layer" class="s12" d="m122.7 73.3l3.7-5 21.9 15.8-3.7 5z"/>
				<g id="Layer">
					<path id="XMLID_1_" class="s0" d="m74.1 120.8l40.1-55.5 40.7 29.4-40.1 55.6z"/>
					<g id="Clip-Path" clip-path="url(#cp12)">
						<path id="Layer" class="s1" d="m74.1 120.8l40.1-55.5 40.7 29.4-40.1 55.6z"/>
					</g>
					<path id="XMLID_1_" class="s13" d="m74.1 120.8l40.1-55.5 40.7 29.4-40.1 55.6z"/>
				</g>
				<path id="Layer" fill-rule="evenodd" class="s2" d="m143.8 84.4l-2.3 3c-0.3 0.5-1 0.6-1.4 0.3l-5.6-4c0.3-0.9 0.1-2-0.8-2.6-0.8-0.6-1.9-0.5-2.6 0.1l-5.6-4c-0.4-0.4-0.6-1-0.2-1.5l2.2-3.1c0.4-0.5 1-0.6 1.5-0.2l14.5 10.5c0.5 0.3 0.6 1 0.3 1.5z"/>
			</g>
			<path id="Layer" class="s3" d="m132 144.1c0 0 6.4-3.9 7.7-5.9 1.4-1.9 5.1-10.7 4.2-13.4-0.9-2.7-4.1-7.6-4.3-9.7-0.2-2-4.5 1.6-2.1 10.2 0 0-5.8 4.8-6.2 11.2"/>
			<path id="Layer" class="s3" d="m128.6 107.2c0 7.6-6.1 13.7-13.7 13.7-7.5 0-13.6-6.1-13.6-13.7 0-7.5 6.1-13.6 13.6-13.6 7.6 0 13.7 6.1 13.7 13.6z"/>
			<path id="Layer" class="s3" d="m108.1 102.3l1.7 9.6 15.3-4.1"/>
		</g>
		<g id="Layer">
			<path id="Layer" class="s0" d="m199.2 256.5c0 0-19.7 3.1-34.4 11.1-3.1 1.6-5.9 3.5-8.3 5.5-6.9 5.9-12.9 18.1-18 27.8-4.4 8.2-7.7 11.5-7.7 11.5-13.6-18.9-12.6-34-12.6-34q0 0 0.2 0c2.2-1.3 32.8-19.1 40.7-21.5 8.1-2.4 40.1-0.4 40.1-0.4z"/>
			<path id="Layer" class="s6" d="m164.8 267.6c-3.1 1.6-5.9 3.5-8.3 5.5-6.9 5.9-12.9 18.1-18 27.8-4.4 8.2-7.7 11.5-7.7 11.5-13.6-18.9-12.6-34-12.6-34q0 0 0.2 0c1-0.5 8.1-2.9 17.5 15.2 0 0 6.5-21.2 28.8-26z"/>
			<path id="Layer" class="s3" d="m98.8 234.8c0 0-8.6-2.2-6 5.9 2.6 8 11.8 7.7 11.8 7.7"/>
			<path id="Layer" fill-rule="evenodd" class="s2" d="m199.2 256.5c0 0-32-2-40.1 0.4-8.2 2.5-40.9 21.5-40.9 21.5 0 0-1 15.1 12.6 34"/>
			<g id="Layer">
				<path id="XMLID_12_" class="s7" d="m131.8 308.2c0 0-47.5 17.2-55.2 7.9 0 0 3.5-9.9 8.3-17.4 2.5-4.1 5.5-7.5 8.4-8.3 3.8-1 8.5-2.8 12.9-4.6 7.2-2.9 13.5-6 13.5-6 12.1 7.9 12.1 28.4 12.1 28.4z"/>
				<g id="Clip-Path" clip-path="url(#cp13)">
					<path id="Layer" class="s8" d="m106.2 285.8c-1.3 6.5-5.2 18.5-14.8 17.7-3.7-0.3-5.6-2.2-6.5-4.9 2.5-4 5.5-7.4 8.5-8.2 3.8-1 8.4-2.8 12.8-4.6z"/>
				</g>
				<path id="XMLID_12_" fill-rule="evenodd" class="s2" d="m131.8 308.2c0 0-47.5 17.2-55.2 7.9 0 0 3.5-9.9 8.3-17.4 2.5-4.1 5.5-7.5 8.4-8.3 3.8-1 8.5-2.8 12.9-4.6 7.2-2.9 13.5-6 13.5-6 12.1 7.9 12.1 28.4 12.1 28.4z"/>
			</g>
			<g id="Layer">
				<path id="XMLID_13_" class="s7" d="m80.2 318.1c-11.2 0.5-11.9-25.8-6.3-64.9 0 0 8.7-17.1 12.6-17.3 1.1-0.1 2.6-0.1 4.2-0.1 4.3 0 9.3 0.1 9.3 0.1 0 0 2.3 9.9 2.4 13.3 0 5-2.2 5.6-2.2 5.6 0.1 4.8-3.8 5.2-7.9 4.6 0 0-0.1 0.2-0.3 0.6-0.5 0.9-2 2.6-5.6 3.1-0.1 15.2 14.7 38.3 6.9 43.4"/>
				<g id="Clip-Path" clip-path="url(#cp14)">
					<path id="Layer" class="s8" d="m102.4 249.2c0 5-2.2 5.6-2.2 5.6 0.1 4.8-3.8 5.2-7.9 4.6 0 0 0 0.2-0.3 0.6l1.3-3.8c0 0 1.3 0.5 2.1 0.1 2.5-1.2 1.2-5.5 1.2-5.5 0 0 1.4-0.4 1.8-2.4 0.4-1.9-3.9-3.3-3.9-3.3 1.3-2.3-1.7-4.4-1.7-4.4 1.1-1.7-0.3-3.5-2.1-4.9 4.3 0 9.3 0.1 9.3 0.1 0 0 2.3 9.9 2.4 13.3z"/>
				</g>
				<path id="XMLID_13_" fill-rule="evenodd" class="s2" d="m80.2 318.1c-11.2 0.5-11.9-25.8-6.3-64.9 0 0 8.7-17.1 12.6-17.3 1.1-0.1 2.6-0.1 4.2-0.1 4.3 0 9.3 0.1 9.3 0.1 0 0 2.3 9.9 2.4 13.3 0 5-2.2 5.6-2.2 5.6 0.1 4.8-3.8 5.2-7.9 4.6 0 0-0.1 0.2-0.3 0.6-0.5 0.9-2 2.6-5.6 3.1-0.1 15.2 14.7 38.3 6.9 43.4"/>
			</g>
			<path id="Layer" fill-rule="evenodd" class="s2" d="m100.1 247.7c-1.4-2.5-2.7-1.1-9.3-2.7 0 0 4.2 0.5 7.5-0.3"/>
			<path id="Layer" fill-rule="evenodd" class="s2" d="m90 240.1c0.9 0.4 4.8 0.1 6.6 0"/>
			<path id="Layer" fill-rule="evenodd" class="s2" d="m92.3 250.8c0-0.2 5.6 0.3 6.5 1 0.9 0.6 1.5 3.1 1.5 3.1"/>
			<path id="Layer" fill-rule="evenodd" class="s2" d="m96.6 256.2c-0.4 0.3-3.3 0-3.3 0 0 0-0.2 1.9-1 3.2"/>
			<g id="Layer">
				<g id="Layer">
					<path id="XMLID_5_" class="s14" d="m127.1 231.7c0 8.2-3.4 15.3-8.3 19.1h-15.9c-4.9-3.8-8.3-10.9-8.3-19.1q0-0.5 0.1-1h32.3q0.1 0.5 0.1 1z"/>
					<g id="Clip-Path" clip-path="url(#cp15)">
						<path id="Layer" class="s6" d="m114.9 249.8v0.9h-12c-4.9-3.7-8.3-10.8-8.3-19q0-0.5 0.1-1h3.5c2.4 5.9 7.8 16.2 16.7 19.1z"/>
					</g>
					<path id="XMLID_5_" fill-rule="evenodd" class="s2" d="m127.1 231.7c0 8.2-3.4 15.3-8.3 19.1h-15.9c-4.9-3.8-8.3-10.9-8.3-19.1q0-0.5 0.1-1h32.3q0.1 0.5 0.1 1z"/>
				</g>
				<path id="Layer" class="s15" d="m120 249.8h-18.3l-0.9 2.5h20.1z"/>
				<g id="Layer">
					<path id="XMLID_6_" class="s16" d="m120.9 252.3l-0.9-2.5h-18.3l-0.9 2.5"/>
					<g id="Clip-Path" clip-path="url(#cp16)">
						<path id="Layer" class="s6" d="m100.8 252.3h20.1"/>
					</g>
				</g>
			</g>
			<path id="Layer" fill-rule="evenodd" class="s2" d="m105.6 210.7c-2.7 4.8 4.7 9.3 1 15.9"/>
			<path id="Layer" fill-rule="evenodd" class="s2" d="m110.4 210.7c-2.7 4.8 4.7 9.3 1 15.9"/>
			<path id="Layer" fill-rule="evenodd" class="s2" d="m115.6 210.7c-2.8 4.8 4.7 9.3 1 15.9"/>
		</g>
		<g id="Layer">
			<path id="Layer" class="s4" d="m303.3 281.1c-7.1-12.1-36.5-22.7-69.2-24q-0.1 0-0.2 0-1.7 0-3.3-0.1-0.8 0-1.6 0-0.8 0-1.6 0-1.6 0.1-3.3 0.1-0.1 0-0.2 0c-32.7 1.3-62.1 11.9-69.2 24-7.6 13-18.8 33.8-18.8 33.8 6.3 10.2 30.5 11.6 30.5 11.6l1.3 27.4h53.2 16.2 53.2l1.3-27.4c0 0 24.2-1.4 30.5-11.6 0 0-11.2-20.8-18.8-33.8z"/>
			<g id="Layer">
				<g id="Layer">
					<path id="XMLID_14_" class="s7" d="m192.9 344c0 0-56.5 9.5-60.6 1.8q-0.6-1.2-0.8-2.8c-1.3-9.3 6.8-27.8 6.8-27.8 6.3-0.6 12.9 1 18.1 3q0.1 0 0.1 0c6.1 2.2 10.5 4.9 10.5 5l-0.4 1-0.2 0.3 13.3 0.4 11.8 0.4h0.2z"/>
					<g id="Clip-Path" clip-path="url(#cp17)">
						<g id="Layer">
							<path id="Layer" class="s8" d="m166.6 324.2c-13 0.2-17.9 2-17.9 2 0 0 3.3-5.1 7.8-8q0 0 0 0c6.1 2.2 10.5 4.9 10.5 5.1z"/>
							<path id="Layer" class="s8" d="m192.9 344c0 0-56.5 9.5-60.6 1.8q-0.6-1.2-0.8-2.8c1.4 0.6 2.9 0.9 4.4 1 7.4 0.2 44.7-4.4 44.7-4.4l-1-14.7v-0.5q5.4 0.3 11.9 0.9 0.1 0 0.2 0z"/>
						</g>
					</g>
					<path id="XMLID_14_" fill-rule="evenodd" class="s2" d="m192.9 344c0 0-56.5 9.5-60.6 1.8q-0.6-1.2-0.8-2.8c-1.3-9.3 6.8-27.8 6.8-27.8 6.3-0.6 12.9 1 18.1 3q0.1 0 0.1 0c6.1 2.2 10.5 4.9 10.5 5l-0.4 1-0.2 0.3 13.3 0.4 11.8 0.4h0.2z"/>
				</g>
				<path id="Layer" fill-rule="evenodd" class="s2" d="m166.4 324.5c0 0-13.3-0.4-19 2.2"/>
			</g>
			<path id="Layer" fill-rule="evenodd" class="s2" d="m286.6 320.7c0 0-5.2-24.2 5-36"/>
			<path id="Layer" fill-rule="evenodd" class="s2" d="m295.5 296.8c0 0-6.8 5-8.1 13.1"/>
			<path id="Layer" fill-rule="evenodd" class="s2" d="m166.4 281.9c0 0 9.3 18.1 4 40.1"/>
			<path id="Layer" fill-rule="evenodd" class="s2" d="m159.7 290.3c0 0 7.3 4.5 10.7 11.4"/>
			<path id="Layer" fill-rule="evenodd" class="s2" d="m251.4 260c0 0-10.9 27.7-43.1 12.7"/>
			<path id="Layer" fill-rule="evenodd" class="s2" d="m301.6 278.8c0 0-7 4-10.1 13"/>
			<path id="Layer" fill-rule="evenodd" class="s2" d="m156.4 278.8c0 0 5.5 2.9 8.6 9.9"/>
			<path id="Layer" fill-rule="evenodd" class="s2" d="m204 259.1c0 0 3.6 14.7 24.2 15.1"/>
			<path id="Layer" fill-rule="evenodd" class="s2" d="m271.2 274.2c0 0-38.4 37.4-65.5 38.8"/>
			<path id="Layer" fill-rule="evenodd" class="s2" d="m184.2 280.5c0 0 5.3 11.9 15 16.3"/>
			<g id="Layer">
				<g id="Layer">
					<path id="XMLID_15_" class="s7" d="m265.4 344c0 0 56.5 9.5 60.6 1.8q0.6-1.2 0.8-2.8c1.3-9.3-6.8-27.8-6.8-27.8-6.3-0.6-12.9 1-18.2 3q0 0 0 0c-6.1 2.2-10.5 4.9-10.5 5l0.4 1 0.2 0.3-13.3 0.4-11.8 0.4h-0.2z"/>
					<g id="Clip-Path" clip-path="url(#cp18)">
						<g id="Layer">
							<path id="Layer" class="s8" d="m291.7 324.2c13 0.2 17.9 2 17.9 2 0 0-3.3-5.1-7.8-8q0 0 0 0c-6.1 2.2-10.5 4.9-10.5 5.1z"/>
							<path id="Layer" class="s8" d="m265.4 344c0 0 56.5 9.5 60.6 1.8q0.6-1.2 0.8-2.8c-1.5 0.6-2.9 0.9-4.4 1-7.4 0.2-44.7-4.4-44.7-4.4l0.9-14.7 0.1-0.5q-5.4 0.3-11.9 0.9-0.1 0-0.2 0z"/>
						</g>
					</g>
					<path id="XMLID_15_" fill-rule="evenodd" class="s2" d="m265.4 344c0 0 56.5 9.5 60.6 1.8q0.6-1.2 0.8-2.8c1.3-9.3-6.8-27.8-6.8-27.8-6.3-0.6-12.9 1-18.2 3q0 0 0 0c-6.1 2.2-10.5 4.9-10.5 5l0.4 1 0.2 0.3-13.3 0.4-11.8 0.4h-0.2z"/>
				</g>
				<path id="Layer" fill-rule="evenodd" class="s2" d="m291.9 324.5c0 0 13.3-0.4 19 2.2"/>
			</g>
		</g>
		<path id="Layer" class="s17" d="m248.2 260.1c0 0-6.1 11-20.4 10.3-11.6-0.6-19.5-9.4-19.5-9.4 4.1-3.4 4.8-11.6 4.5-17q0-0.2 0-0.4-0.1-0.5-0.1-1c-0.3-3.9-1.1-6.8-1.1-6.8l34.8 1.7c-1.5 4.2-2.1 7.7-2.3 10.6 0 1.8 0.1 3.3 0.3 4.7q0 0 0 0.1c1 5.2 3.8 7.2 3.8 7.2z"/>
		<g id="Layer">
			<path id="Layer" class="s15" d="m170.4 339.3v3.8c0 1.1 0.9 2.1 2.1 2.1h112c1.2 0 2.1-1 2.1-2.1v-3.8z"/>
			<g id="Layer">
				<path id="Layer" class="s11" d="m300.4 284.6l-14.4 53.9c-0.3 1.1-1.2 2.1-2.3 2.5q-0.6 0.2-1.1 0.2h-108.2q-0.5 0-1.1-0.2c-1.1-0.4-2-1.4-2.3-2.5l-14.4-53.9c-0.4-1.5 0.5-2.7 2-2.7h139.8c1.5 0 2.4 1.2 2 2.7z"/>
				<path id="Layer" class="s18" d="m298.1 287.4l-14.4 53.6q-0.6 0.2-1.1 0.2h-108.2q-0.5 0-1.1-0.2l-14.4-53.6c-0.4-1.5 0.5-2.7 2-2.7h135.2c1.5 0 2.4 1.2 2 2.7z"/>
			</g>
			<path id="Layer" class="s11" d="m235.8 317.6c-3.2 0-5.8-2-5.8-4.3q0-0.8 0.4-1.6-0.9-0.1-1.9-0.1c-4.5 0-8.1 2.6-8.1 6 0 3.3 3.6 6 8.1 6 4.5 0 8.1-2.7 8.1-6q0-0.1 0-0.1-0.4 0.1-0.8 0.1z"/>
		</g>
		<path id="Layer" class="s19" d="m246.4 237.5c-1.5 4.2-2.1 7.7-2.3 10.6-3.7 3.7-8.4 6.6-13.5 5.8-7.4-1.2-13.5-6.7-17.9-11.3-0.3-3.9-1.1-6.8-1.1-6.8z"/>
		<g id="Layer">
			<g id="Layer">
				<path id="Layer" class="s17" d="m253.5 212.2c0 0 2.8-3.1 4.2-2 1.4 1 3 3.8 2.3 6.4-0.8 2.6-4.1 7.1-4.3 9.7-0.3 2.7-1.9 5.6-3.8 3.9-1.8-1.7 1.6-18 1.6-18z"/>
				<path id="Layer" class="s17" d="m203.5 212.2c0 0-2.8-3.1-4.2-2-1.4 1-3 3.8-2.3 6.4 0.8 2.6 4.1 7.1 4.3 9.7 0.3 2.7 1.9 5.6 3.8 3.9 1.8-1.7-1.6-18-1.6-18z"/>
			</g>
			<path id="Layer" class="s17" d="m227.9 176.9c35.3 0 26.9 47.1 20.4 62.2-2.3 5.3-14.1 12.2-19.8 12.2-5.3 0-17.5-8.3-19.6-13.3-6.6-15.1-14.6-61.1 19-61.1z"/>
			<g id="Layer">
				<path id="Layer" fill-rule="evenodd" class="s2" d="m233.9 214.4c0 0 9-1.6 12 1.9"/>
				<path id="Layer" class="s19" d="m240.7 221.2c0 1.1-0.6 2-1.2 2-0.7 0-1.3-0.9-1.3-2 0-1.1 0.6-1.9 1.3-1.9 0.6 0 1.2 0.8 1.2 1.9z"/>
				<path id="Layer" fill-rule="evenodd" class="s2" d="m223.1 214.4c0 0-8.3-0.7-12 1.9"/>
				<path id="Layer" class="s19" d="m216.3 221.2c0 1.1 0.6 2 1.2 2 0.7 0 1.3-0.9 1.3-2 0-1.1-0.6-1.9-1.3-1.9-0.6 0-1.2 0.8-1.2 1.9z"/>
			</g>
			<path id="Layer" class="s19" d="m242.5 189c0 0-12.6 4.7-27.2 0 0 0-4.7-0.3-6.6 2.1-1.9 2.4 0 9.8 0.5 12.8 0.5 3-4.2 5.1-3.5 12.7l-1.8 2.6c0 0-5-12.2-3.8-22.8 1.3-10.5 7.9-14.6 7.9-14.6 0 0 3.1-9.1 20.8-9 19.2 0.1 21.1 10.4 21.1 10.4 0 0 13 8.7 3.4 36.9l-2.1-3.5c0 0 1-5.7-2.4-10.7-1.7-2.5 1-9.8 0.4-13.6-0.7-3.7-6.7-3.3-6.7-3.3z"/>
			<path id="Layer" fill-rule="evenodd" class="s2" d="m230.6 219.3c0 0 0.5 8 2.1 11.1 1.5 3-3.9 3.5-6.2 1.7"/>
			<path id="Layer" fill-rule="evenodd" class="s2" d="m221.7 238.5c0 1.3 4.1 2.8 8 2.8 4 0 7-1.7 6.4-2.3"/>
			<path id="Layer" class="s19" d="m253.1 194.1c0 0-5.2 7.1-17 11.9v-3.3c0 0-10.6 6.1-20.2 5.2l2.2-4.4c0 0-8.1 8.6-14.9 8.2-6.8-0.3-8.8-38.9 25.6-38.9 28 0 24.3 21.3 24.3 21.3z"/>
			<path id="Layer" class="s19" d="m247.3 196.4c0 0-1.9 10.3 7.8 17.7 0 0 5.7-6.1 3.5-17.7-2.2-11.5-7.2-11.9-7.2-11.9z"/>
			<path id="Layer" fill-rule="evenodd" class="s20" d="m243 180.5c0 0-3.6 15.3-16.8 23"/>
			<path id="Layer" fill-rule="evenodd" class="s20" d="m234.6 180.5c0 0-5.8 15-27.6 17.5"/>
			<path id="Layer" fill-rule="evenodd" class="s20" d="m248.2 186.1c0 0 0.1 7.9-5.2 11.9"/>
		</g>
		<path id="Layer" class="s3" d="m374.4 68.3l9.9-19.3"/>
		<path id="Layer" class="s3" d="m384.3 78.7l22.4-13.4"/>
		<path id="Layer" class="s3" d="m393.6 94.8l19.4-1.2"/>
	</g>
	<g id="Table">
		<g id="Layer">
			<path id="Layer" class="s17" d="m75.5 360.7h-15.5v-13.3c0-1.2 1-2.2 2.2-2.2h332.6c1.2 0 2.2 1 2.2 2.2v13.3"/>
			<path id="Layer" class="s21" d="m379 360.7h-138.3"/>
			<path id="Layer" class="s21" d="m230.8 360.7h-9.9"/>
			<path id="Layer" class="s21" d="m156.5 360.7h-73"/>
		</g>
	</g>
</svg>