<svg id="visual" viewBox="0 0 1000 500" width="1000" height="500" xmlns="http://www.w3.org/2000/svg" xmlns:xlink="http://www.w3.org/1999/xlink" version="1.1"><rect x="0" y="0" width="1000" height="500" fill="#3C4AAE"></rect><path d="M0 407L23.8 409.8C47.7 412.7 95.3 418.3 143 416C190.7 413.7 238.3 403.3 286 403.5C333.7 403.7 381.3 414.3 428.8 414.3C476.3 414.3 523.7 403.7 571.2 404.5C618.7 405.3 666.3 417.7 714 423.7C761.7 429.7 809.3 429.3 857 424.5C904.7 419.7 952.3 410.3 976.2 405.7L1000 401L1000 501L976.2 501C952.3 501 904.7 501 857 501C809.3 501 761.7 501 714 501C666.3 501 618.7 501 571.2 501C523.7 501 476.3 501 428.8 501C381.3 501 333.7 501 286 501C238.3 501 190.7 501 143 501C95.3 501 47.7 501 23.8 501L0 501Z" fill="#5765c5"></path><path d="M0 427L23.8 427C47.7 427 95.3 427 143 428C190.7 429 238.3 431 286 432.7C333.7 434.3 381.3 435.7 428.8 435.5C476.3 435.3 523.7 433.7 571.2 430.2C618.7 426.7 666.3 421.3 714 424.2C761.7 427 809.3 438 857 440.2C904.7 442.3 952.3 435.7 976.2 432.3L1000 429L1000 501L976.2 501C952.3 501 904.7 501 857 501C809.3 501 761.7 501 714 501C666.3 501 618.7 501 571.2 501C523.7 501 476.3 501 428.8 501C381.3 501 333.7 501 286 501C238.3 501 190.7 501 143 501C95.3 501 47.7 501 23.8 501L0 501Z" fill="#b0afe3"></path><path d="M0 480L23.8 477.7C47.7 475.3 95.3 470.7 143 465.5C190.7 460.3 238.3 454.7 286 456.5C333.7 458.3 381.3 467.7 428.8 467C476.3 466.3 523.7 455.7 571.2 454C618.7 452.3 666.3 459.7 714 462.2C761.7 464.7 809.3 462.3 857 462.7C904.7 463 952.3 466 976.2 467.5L1000 469L1000 501L976.2 501C952.3 501 904.7 501 857 501C809.3 501 761.7 501 714 501C666.3 501 618.7 501 571.2 501C523.7 501 476.3 501 428.8 501C381.3 501 333.7 501 286 501C238.3 501 190.7 501 143 501C95.3 501 47.7 501 23.8 501L0 501Z" fill="#ffffff"></path></svg>