<svg xmlns="http://www.w3.org/2000/svg"  viewBox="0 0 64 64" width="64px" height="64px"><linearGradient id="LOVOp_ExFQ2190gE4V1bha" x1="51" x2="51" y1="20.5" y2="31.047" gradientUnits="userSpaceOnUse" spreadMethod="reflect"><stop offset="0" stop-color="#8ab4ff"/><stop offset="1" stop-color="#e492ff"/></linearGradient><path fill="url(#LOVOp_ExFQ2190gE4V1bha)" d="M51 22A4 4 0 1 0 51 30A4 4 0 1 0 51 22Z"/><linearGradient id="LOVOp_ExFQ2190gE4V1bhb" x1="32" x2="32" y1="11.667" y2="53.339" gradientUnits="userSpaceOnUse" spreadMethod="reflect"><stop offset="0" stop-color="#1A6DFF"/><stop offset="1" stop-color="#C822FF"/></linearGradient><path fill="url(#LOVOp_ExFQ2190gE4V1bhb)" d="M58,16.424V15c0-1.654-1.346-3-3-3H21c-1.654,0-3,1.346-3,3v1.424 c-1.763,0.774-3,2.531-3,4.576v7H6c-1.654,0-3,1.346-3,3v18c0,1.654,1.346,3,3,3h20h2h28c2.757,0,5-2.243,5-5V21 C61,18.955,59.763,17.198,58,16.424z M20,15c0-0.551,0.448-1,1-1h34c0.552,0,1,0.449,1,1v1H20V15z M17,21c0-1.654,1.346-3,3-3h36 c1.654,0,3,1.346,3,3v22.586l-8.965-8.965c-0.944-0.944-2.199-1.464-3.535-1.464s-2.591,0.52-3.535,1.464L38,39.586l-7-7V31 c0-1.654-1.346-3-3-3H17V21z M31,49V35.414L45.586,50h-14.77C30.928,49.686,31,49.352,31,49z M5,40.051 c5.268,0.478,9.472,4.681,9.949,9.949h-2.008C12.478,45.836,9.165,42.522,5,42.059V40.051z M5,49v-4.92 c3.059,0.441,5.479,2.861,5.92,5.92H6C5.448,50,5,49.551,5,49z M26,50h-9.051C16.461,43.63,11.37,38.539,5,38.051V31 c0-0.551,0.448-1,1-1h22c0.552,0,1,0.449,1,1v18c0,0.551-0.448,1-1,1H26z M56,50h-7.586l-9-9l4.965-4.965 c1.133-1.133,3.109-1.133,4.242,0L59,46.414V47C59,48.654,57.654,50,56,50z"/><linearGradient id="LOVOp_ExFQ2190gE4V1bhc" x1="22" x2="22" y1="11.667" y2="53.339" gradientUnits="userSpaceOnUse" spreadMethod="reflect"><stop offset="0" stop-color="#1A6DFF"/><stop offset="1" stop-color="#C822FF"/></linearGradient><path fill="url(#LOVOp_ExFQ2190gE4V1bhc)" d="M19 34H25V36H19z"/><linearGradient id="LOVOp_ExFQ2190gE4V1bhd" x1="18" x2="18" y1="11.667" y2="53.339" gradientUnits="userSpaceOnUse" spreadMethod="reflect"><stop offset="0" stop-color="#1A6DFF"/><stop offset="1" stop-color="#C822FF"/></linearGradient><path fill="url(#LOVOp_ExFQ2190gE4V1bhd)" d="M15 38H21V40H15z"/><linearGradient id="LOVOp_ExFQ2190gE4V1bhe" x1="22" x2="22" y1="11.667" y2="53.339" gradientUnits="userSpaceOnUse" spreadMethod="reflect"><stop offset="0" stop-color="#1A6DFF"/><stop offset="1" stop-color="#C822FF"/></linearGradient><path fill="url(#LOVOp_ExFQ2190gE4V1bhe)" d="M19 42H25V44H19z"/></svg>