<svg id="visual" viewBox="0 0 960 540" width="960" height="540" xmlns="http://www.w3.org/2000/svg" xmlns:xlink="http://www.w3.org/1999/xlink" version="1.1"><rect x="0" y="0" width="960" height="540" fill="#00164d"></rect><defs><linearGradient id="grad1_0" x1="43.8%" y1="0%" x2="100%" y2="100%"><stop offset="14.444444444444446%" stop-color="#5485ff" stop-opacity="1"></stop><stop offset="85.55555555555554%" stop-color="#5485ff" stop-opacity="1"></stop></linearGradient></defs><defs><linearGradient id="grad1_1" x1="43.8%" y1="0%" x2="100%" y2="100%"><stop offset="14.444444444444446%" stop-color="#5485ff" stop-opacity="1"></stop><stop offset="85.55555555555554%" stop-color="#4a73e3" stop-opacity="1"></stop></linearGradient></defs><defs><linearGradient id="grad1_2" x1="43.8%" y1="0%" x2="100%" y2="100%"><stop offset="14.444444444444446%" stop-color="#3f62c8" stop-opacity="1"></stop><stop offset="85.55555555555554%" stop-color="#4a73e3" stop-opacity="1"></stop></linearGradient></defs><defs><linearGradient id="grad1_3" x1="43.8%" y1="0%" x2="100%" y2="100%"><stop offset="14.444444444444446%" stop-color="#3f62c8" stop-opacity="1"></stop><stop offset="85.55555555555554%" stop-color="#3451ae" stop-opacity="1"></stop></linearGradient></defs><defs><linearGradient id="grad1_4" x1="43.8%" y1="0%" x2="100%" y2="100%"><stop offset="14.444444444444446%" stop-color="#284194" stop-opacity="1"></stop><stop offset="85.55555555555554%" stop-color="#3451ae" stop-opacity="1"></stop></linearGradient></defs><defs><linearGradient id="grad1_5" x1="43.8%" y1="0%" x2="100%" y2="100%"><stop offset="14.444444444444446%" stop-color="#284194" stop-opacity="1"></stop><stop offset="85.55555555555554%" stop-color="#1b327c" stop-opacity="1"></stop></linearGradient></defs><defs><linearGradient id="grad1_6" x1="43.8%" y1="0%" x2="100%" y2="100%"><stop offset="14.444444444444446%" stop-color="#0e2464" stop-opacity="1"></stop><stop offset="85.55555555555554%" stop-color="#1b327c" stop-opacity="1"></stop></linearGradient></defs><defs><linearGradient id="grad1_7" x1="43.8%" y1="0%" x2="100%" y2="100%"><stop offset="14.444444444444446%" stop-color="#0e2464" stop-opacity="1"></stop><stop offset="85.55555555555554%" stop-color="#00164d" stop-opacity="1"></stop></linearGradient></defs><defs><linearGradient id="grad2_0" x1="0%" y1="0%" x2="56.3%" y2="100%"><stop offset="14.444444444444446%" stop-color="#5485ff" stop-opacity="1"></stop><stop offset="85.55555555555554%" stop-color="#5485ff" stop-opacity="1"></stop></linearGradient></defs><defs><linearGradient id="grad2_1" x1="0%" y1="0%" x2="56.3%" y2="100%"><stop offset="14.444444444444446%" stop-color="#4a73e3" stop-opacity="1"></stop><stop offset="85.55555555555554%" stop-color="#5485ff" stop-opacity="1"></stop></linearGradient></defs><defs><linearGradient id="grad2_2" x1="0%" y1="0%" x2="56.3%" y2="100%"><stop offset="14.444444444444446%" stop-color="#4a73e3" stop-opacity="1"></stop><stop offset="85.55555555555554%" stop-color="#3f62c8" stop-opacity="1"></stop></linearGradient></defs><defs><linearGradient id="grad2_3" x1="0%" y1="0%" x2="56.3%" y2="100%"><stop offset="14.444444444444446%" stop-color="#3451ae" stop-opacity="1"></stop><stop offset="85.55555555555554%" stop-color="#3f62c8" stop-opacity="1"></stop></linearGradient></defs><defs><linearGradient id="grad2_4" x1="0%" y1="0%" x2="56.3%" y2="100%"><stop offset="14.444444444444446%" stop-color="#3451ae" stop-opacity="1"></stop><stop offset="85.55555555555554%" stop-color="#284194" stop-opacity="1"></stop></linearGradient></defs><defs><linearGradient id="grad2_5" x1="0%" y1="0%" x2="56.3%" y2="100%"><stop offset="14.444444444444446%" stop-color="#1b327c" stop-opacity="1"></stop><stop offset="85.55555555555554%" stop-color="#284194" stop-opacity="1"></stop></linearGradient></defs><defs><linearGradient id="grad2_6" x1="0%" y1="0%" x2="56.3%" y2="100%"><stop offset="14.444444444444446%" stop-color="#1b327c" stop-opacity="1"></stop><stop offset="85.55555555555554%" stop-color="#0e2464" stop-opacity="1"></stop></linearGradient></defs><defs><linearGradient id="grad2_7" x1="0%" y1="0%" x2="56.3%" y2="100%"><stop offset="14.444444444444446%" stop-color="#00164d" stop-opacity="1"></stop><stop offset="85.55555555555554%" stop-color="#0e2464" stop-opacity="1"></stop></linearGradient></defs><g transform="translate(960, 0)"><path d="M0 297C-34.2 259 -68.3 220.9 -116 200.9C-163.7 180.9 -224.8 179 -257.2 148.5C-289.6 118 -293.3 59 -297 0L0 0Z" fill="#061d58"></path><path d="M0 259.9C-29.9 226.6 -59.8 193.3 -101.5 175.8C-143.2 158.3 -196.7 156.6 -225.1 129.9C-253.4 103.3 -256.6 51.6 -259.9 0L0 0Z" fill="#152b70"></path><path d="M0 222.8C-25.6 194.2 -51.3 165.7 -87 150.7C-122.7 135.7 -168.6 134.2 -192.9 111.4C-217.2 88.5 -220 44.3 -222.7 0L0 0Z" fill="#223a88"></path><path d="M0 185.6C-21.4 161.8 -42.7 138.1 -72.5 125.6C-102.3 113.1 -140.5 111.9 -160.8 92.8C-181 73.8 -183.3 36.9 -185.6 0L0 0Z" fill="#2e49a1"></path><path d="M0 148.5C-17.1 129.5 -34.2 110.5 -58 100.5C-81.8 90.5 -112.4 89.5 -128.6 74.3C-144.8 59 -146.7 29.5 -148.5 0L0 0Z" fill="#395abb"></path><path d="M0 111.4C-12.8 97.1 -25.6 82.8 -43.5 75.3C-61.4 67.8 -84.3 67.1 -96.5 55.7C-108.6 44.3 -110 22.1 -111.4 0L0 0Z" fill="#446bd6"></path><path d="M0 74.3C-8.5 64.7 -17.1 55.2 -29 50.2C-40.9 45.2 -56.2 44.7 -64.3 37.1C-72.4 29.5 -73.3 14.8 -74.2 0L0 0Z" fill="#4f7cf1"></path><path d="M0 37.1C-4.3 32.4 -8.5 27.6 -14.5 25.1C-20.5 22.6 -28.1 22.4 -32.2 18.6C-36.2 14.8 -36.7 7.4 -37.1 0L0 0Z" fill="#5485ff"></path></g><g transform="translate(0, 540)"><path d="M0 -297C53.1 -289.9 106.2 -282.8 148.5 -257.2C190.8 -231.6 222.1 -187.5 245.1 -141.5C268 -95.5 282.5 -47.8 297 0L0 0Z" fill="#061d58"></path><path d="M0 -259.9C46.5 -253.7 93 -247.5 129.9 -225.1C166.9 -202.6 194.4 -164 214.4 -123.8C234.5 -83.6 247.2 -41.8 259.9 0L0 0Z" fill="#152b70"></path><path d="M0 -222.7C39.8 -217.4 79.7 -212.1 111.4 -192.9C143.1 -173.7 166.6 -140.6 183.8 -106.1C201 -71.7 211.9 -35.8 222.8 0L0 0Z" fill="#223a88"></path><path d="M0 -185.6C33.2 -181.2 66.4 -176.8 92.8 -160.8C119.2 -144.7 138.8 -117.2 153.2 -88.4C167.5 -59.7 176.6 -29.9 185.6 0L0 0Z" fill="#2e49a1"></path><path d="M0 -148.5C26.6 -145 53.1 -141.4 74.2 -128.6C95.4 -115.8 111.1 -93.7 122.5 -70.8C134 -47.8 141.3 -23.9 148.5 0L0 0Z" fill="#395abb"></path><path d="M0 -111.4C19.9 -108.7 39.8 -106.1 55.7 -96.5C71.5 -86.8 83.3 -70.3 91.9 -53.1C100.5 -35.8 105.9 -17.9 111.4 0L0 0Z" fill="#446bd6"></path><path d="M0 -74.2C13.3 -72.5 26.6 -70.7 37.1 -64.3C47.7 -57.9 55.5 -46.9 61.3 -35.4C67 -23.9 70.6 -11.9 74.3 0L0 0Z" fill="#4f7cf1"></path><path d="M0 -37.1C6.6 -36.2 13.3 -35.4 18.6 -32.2C23.8 -28.9 27.8 -23.4 30.6 -17.7C33.5 -11.9 35.3 -6 37.1 0L0 0Z" fill="#5485ff"></path></g></svg>